<?xml version="1.0" encoding="UTF-8" standalone="no"?>
<svg
   version="1.1"
   width="874px"
   height="438px"
   style="shape-rendering:geometricPrecision; text-rendering:geometricPrecision; image-rendering:optimizeQuality; fill-rule:evenodd; clip-rule:evenodd"
   id="svg45"
   sodipodi:docname="logo_fabios_copia.svg"
   inkscape:version="1.3.2 (091e20e, 2023-11-25, custom)"
   xmlns:inkscape="http://www.inkscape.org/namespaces/inkscape"
   xmlns:sodipodi="http://sodipodi.sourceforge.net/DTD/sodipodi-0.dtd"
   xmlns="http://www.w3.org/2000/svg"
   xmlns:svg="http://www.w3.org/2000/svg">
  <defs
     id="defs45">
    <inkscape:path-effect
       effect="bspline"
       id="path-effect48"
       is_visible="true"
       lpeversion="1.3"
       weight="33.333333"
       steps="2"
       helper_size="0"
       apply_no_weight="true"
       apply_with_weight="true"
       only_selected="false"
       uniform="false" />
  </defs>
  <sodipodi:namedview
     id="namedview45"
     pagecolor="#ffffff"
     bordercolor="#000000"
     borderopacity="0.25"
     inkscape:showpageshadow="2"
     inkscape:pageopacity="0.0"
     inkscape:pagecheckerboard="0"
     inkscape:deskcolor="#d1d1d1"
     inkscape:zoom="1.1355321"
     inkscape:cx="394.5287"
     inkscape:cy="257.58849"
     inkscape:window-width="1920"
     inkscape:window-height="1001"
     inkscape:window-x="-9"
     inkscape:window-y="-9"
     inkscape:window-maximized="1"
     inkscape:current-layer="svg45" />
  <g
     id="g1">
    <path
       style="opacity:1;fill:#fefefe;fill-opacity:0"
       fill="#fefefe"
       d="M -0.5,-0.5 C 290.833,-0.5 582.167,-0.5 873.5,-0.5C 873.5,145.5 873.5,291.5 873.5,437.5C 582.167,437.5 290.833,437.5 -0.5,437.5C -0.5,291.5 -0.5,145.5 -0.5,-0.5 Z"
       id="path1" />
  </g>
  <g
     id="g2">
    <path
       style="opacity:1"
       fill="#dbe8e1"
       d="M 315.5,27.5 C 315.783,28.2891 316.283,28.9558 317,29.5C 317.5,125.166 317.667,220.833 317.5,316.5C 316.831,221.294 316.164,125.961 315.5,30.5C 227.462,29.1695 139.462,29.1695 51.5,30.5C 50.7492,31.376 50.2492,32.376 50,33.5C 49.8333,80.5 49.6667,127.5 49.5,174.5C 49.3378,222.249 49.8378,269.915 51,317.5C 139.096,318.498 227.263,318.832 315.5,318.5C 227.334,319.666 139.001,319.832 50.5,319C 49.8742,318.25 49.3742,317.416 49,316.5C 48.1667,220.832 48.3333,125.165 49.5,29.5C 50.3081,29.1924 50.9747,28.6924 51.5,28C 139.499,27.5 227.499,27.3333 315.5,27.5 Z"
       id="path2" />
  </g>
  <g
     id="g3">
    <path
       style="opacity:1"
       fill="#f4fdf9"
       d="M 315.5,27.5 C 318.649,28.1603 320.149,30.1603 320,33.5C 320.671,32.7476 321.504,32.4142 322.5,32.5C 322.5,128.833 322.5,225.167 322.5,321.5C 322.067,318.741 320.4,317.408 317.5,317.5C 317.5,317.167 317.5,316.833 317.5,316.5C 317.667,220.833 317.5,125.166 317,29.5C 316.283,28.9558 315.783,28.2891 315.5,27.5 Z"
       id="path3" />
  </g>
  <g
     id="g4">
    <path
       style="opacity:1"
       fill="#dde8e1"
       d="M 819.5,31.5 C 654.167,31.5 488.833,31.5 323.5,31.5C 323.168,127.737 323.501,223.904 324.5,320C 488.086,321.497 651.753,321.997 815.5,321.5C 651.294,322.831 486.961,322.831 322.5,321.5C 322.5,225.167 322.5,128.833 322.5,32.5C 404.997,31.1667 487.831,30.5 571,30.5C 654.001,30.5 736.834,30.8333 819.5,31.5 Z"
       id="path4" />
  </g>
  <g
     id="g5">
    <path
       style="opacity:1"
       fill="#a5c3b1"
       d="M 792.5,146.5 C 790.047,156.64 792.714,165.14 800.5,172C 806.231,175.525 811.897,179.025 817.5,182.5C 818.681,190.612 818.514,198.945 817,207.5C 815.374,204.934 813.874,205.101 812.5,208C 812.833,208.333 813.167,208.667 813.5,209C 811.235,210.118 808.901,210.951 806.5,211.5C 803.925,210.432 801.758,208.765 800,206.5C 796.952,201.737 794.452,196.737 792.5,191.5C 791.502,200.475 791.168,209.475 791.5,218.5C 792.552,218.649 793.552,218.483 794.5,218C 795.346,215.82 796.846,214.32 799,213.5C 802.485,214.938 805.985,216.272 809.5,217.5C 810.747,219.178 812.414,220.511 814.5,221.5C 815.318,224.107 815.818,226.774 816,229.5C 815.994,248.206 815.828,266.872 815.5,285.5C 813.621,285.393 813.288,285.893 814.5,287C 813.87,288.892 812.87,290.559 811.5,292C 813.973,293.742 813.973,295.575 811.5,297.5C 813.37,300.424 814.037,303.424 813.5,306.5C 812.448,306.351 811.448,306.517 810.5,307C 813.161,314.455 810.828,317.288 803.5,315.5C 803.344,311.865 802.178,311.532 800,314.5C 791.4,313.421 782.9,313.421 774.5,314.5C 772.971,314.471 771.804,313.804 771,312.5C 769.333,315.167 767.667,315.167 766,312.5C 765.261,313.574 764.261,314.241 763,314.5C 761.413,313.33 759.747,312.33 758,311.5C 757.5,312 757,312.5 756.5,313C 757.833,313.333 759.167,313.667 760.5,314C 758.251,314.863 756.418,314.363 755,312.5C 752.199,313.795 749.366,313.795 746.5,312.5C 743.493,314.719 740.659,314.386 738,311.5C 736.688,313.658 735.022,313.991 733,312.5C 732.692,313.308 732.192,313.975 731.5,314.5C 731.331,313.603 730.998,312.603 730.5,311.5C 729.201,312.09 728.368,313.09 728,314.5C 726.702,313.44 725.535,312.274 724.5,311C 725.289,310.454 726.289,309.787 727.5,309C 725.5,307 723.5,307 721.5,309C 724.424,312.093 724.091,313.26 720.5,312.5C 718.813,312.76 717.313,313.427 716,314.5C 714.333,313.5 712.667,312.5 711,311.5C 710.667,312.167 710.333,312.833 710,313.5C 709.481,312.484 708.647,311.818 707.5,311.5C 704.224,313.162 700.891,313.496 697.5,312.5C 696.145,311.325 696.312,310.325 698,309.5C 698.333,310.167 698.667,310.833 699,311.5C 699.667,310.167 699.667,308.833 699,307.5C 695.325,307.419 691.492,307.919 687.5,309C 693.743,310.995 694.243,312.828 689,314.5C 688.667,314.167 688.333,313.833 688,313.5C 687.692,314.308 687.192,314.975 686.5,315.5C 683.356,312.993 680.189,312.993 677,315.5C 672.101,313.952 667.101,312.952 662,312.5C 659.333,313.833 656.667,313.833 654,312.5C 653.309,314.891 652.309,314.891 651,312.5C 648.667,313.167 646.333,313.833 644,314.5C 643.333,313.833 642.667,313.167 642,312.5C 637.197,313.597 632.53,314.264 628,314.5C 627.125,312.487 625.791,312.487 624,314.5C 622.671,313.506 621.338,312.506 620,311.5C 619.619,312.482 618.786,313.148 617.5,313.5C 615.726,313.113 614.059,312.447 612.5,311.5C 613.016,312.758 612.35,313.758 610.5,314.5C 610.089,313.738 609.923,312.738 610,311.5C 608.869,312.604 608.035,312.271 607.5,310.5C 607.709,309.914 608.043,309.414 608.5,309C 606.253,307.345 603.92,307.012 601.5,308C 604.333,306.167 604.167,304.667 601,303.5C 600.028,305.305 598.861,306.972 597.5,308.5C 598.518,309.852 599.851,310.852 601.5,311.5C 601.192,312.308 600.692,312.975 600,313.5C 599.333,312.167 598.667,312.167 598,313.5C 597.309,311.109 596.309,311.109 595,313.5C 594.667,312.833 594.333,312.167 594,311.5C 589.657,312.439 585.657,313.439 582,314.5C 581.219,313.056 581.386,311.723 582.5,310.5C 584.245,310.476 586.079,310.81 588,311.5C 588.945,311.095 589.612,310.428 590,309.5C 590.333,310.167 590.667,310.833 591,311.5C 592.53,310.08 594.363,309.08 596.5,308.5C 596.167,308.167 595.833,307.833 595.5,307.5C 593.359,307.888 591.359,307.888 589.5,307.5C 588.483,310.028 587.316,310.028 586,307.5C 583.318,307.955 580.485,307.955 577.5,307.5C 576.152,309.461 574.819,309.628 573.5,308C 570.869,307.893 568.369,307.727 566,307.5C 565.25,308.126 564.416,308.626 563.5,309C 569.139,310.966 574.472,311.966 579.5,312C 579.07,312.92 578.736,313.753 578.5,314.5C 577.5,313.167 576.5,313.167 575.5,314.5C 574.833,313.833 574.167,313.167 573.5,312.5C 567.255,313.656 561.088,313.656 555,312.5C 554.36,314.398 553.027,314.732 551,313.5C 549.674,313.755 548.674,314.422 548,315.5C 547.333,314.167 546.333,313.167 545,312.5C 542.086,313.145 539.086,313.478 536,313.5C 531.806,313.69 527.806,313.023 524,311.5C 523,312.167 522,312.833 521,313.5C 518.768,312.813 516.602,312.479 514.5,312.5C 513.808,313.025 513.308,313.692 513,314.5C 512.535,313.069 511.701,311.903 510.5,311C 512.044,310.71 513.377,310.044 514.5,309C 513.747,307.513 512.914,307.346 512,308.5C 510.333,307.833 508.667,307.167 507,306.5C 504.667,307.833 502.333,307.833 500,306.5C 496.105,308.483 492.105,309.149 488,308.5C 486.491,307.91 484.991,307.244 483.5,306.5C 484.025,305.808 484.692,305.308 485.5,305C 483.413,304.208 481.579,303.041 480,301.5C 479.333,302.167 478.667,302.833 478,303.5C 476.887,302.289 475.72,302.289 474.5,303.5C 470.04,309.796 465.206,310.13 460,304.5C 457.12,306.714 454.12,306.714 451,304.5C 449.933,305.191 448.766,305.691 447.5,306C 448.471,307.204 449.471,307.704 450.5,307.5C 449.359,308.425 449.359,309.259 450.5,310C 449.833,310.667 449.167,311.333 448.5,312C 442.111,312.363 435.945,312.196 430,311.5C 429.167,312.5 428.333,313.5 427.5,314.5C 427.511,313.559 427.011,312.892 426,312.5C 424.105,314.182 421.938,314.682 419.5,314C 420.362,311.266 421.195,311.099 422,313.5C 424.474,310.725 427.64,309.392 431.5,309.5C 435.406,310.679 439.072,310.679 442.5,309.5C 443.167,310.167 443.833,310.833 444.5,311.5C 445.833,310.167 445.833,308.833 444.5,307.5C 442.208,308.309 440.041,308.643 438,308.5C 436.883,307.051 436.216,305.384 436,303.5C 435.862,306.469 434.362,308.135 431.5,308.5C 429.871,307.577 428.371,307.243 427,307.5C 426.311,308.357 425.478,309.023 424.5,309.5C 423.529,306.866 421.695,306.866 419,309.5C 418.396,307.314 417.23,307.148 415.5,309C 415.833,309.333 416.167,309.667 416.5,310C 412.71,312.181 412.71,314.181 416.5,316C 414.43,316.379 412.93,315.545 412,313.5C 411.667,313.833 411.333,314.167 411,314.5C 408.651,312.256 409.151,311.089 412.5,311C 412,310.5 411.5,310 411,309.5C 410.333,310.833 409.667,310.833 409,309.5C 408.293,311.081 407.46,312.581 406.5,314C 406.833,314.333 407.167,314.667 407.5,315C 405.302,315.373 403.135,315.873 401,316.5C 399.416,316.012 398.249,315.012 397.5,313.5C 396.914,313.709 396.414,314.043 396,314.5C 394,313.833 392,313.167 390,312.5C 386.276,313.626 382.276,313.626 378,312.5C 376.057,314.715 374.391,314.715 373,312.5C 372.333,313.833 371.667,313.833 371,312.5C 370.667,313.167 370.333,313.833 370,314.5C 369.15,313.576 368.15,313.576 367,314.5C 366.055,314.095 365.388,313.428 365,312.5C 363.667,315.167 362.333,315.167 361,312.5C 359.863,313.364 358.53,314.364 357,315.5C 352.229,314.38 347.395,313.38 342.5,312.5C 341.731,310.199 340.731,310.033 339.5,312C 342.167,312.667 342.167,313.333 339.5,314C 336.2,313.954 332.866,313.788 329.5,313.5C 329.703,311.61 329.037,310.11 327.5,309C 328.374,306.965 328.707,304.632 328.5,302C 326.044,298.728 326.377,296.061 329.5,294C 327.681,291.228 327.681,288.228 329.5,285C 329.077,281.875 328.743,278.708 328.5,275.5C 330.679,273.717 330.679,271.717 328.5,269.5C 329.22,260.119 329.554,251.285 329.5,243C 326.966,240.413 326.966,237.747 329.5,235C 328.367,220.836 328.367,207.503 329.5,195C 328.833,193.333 328.167,191.667 327.5,190C 329.032,189.3 330.032,188.134 330.5,186.5C 330.478,184.449 329.811,182.283 328.5,180C 329.11,175.142 329.11,170.475 328.5,166C 329.167,165.667 329.833,165.333 330.5,165C 329.5,164 328.5,163 327.5,162C 328.535,155.872 328.535,149.872 327.5,144C 328.167,143.667 328.833,143.333 329.5,143C 329.589,141.284 329.256,139.451 328.5,137.5C 330.701,132.369 330.701,127.203 328.5,122C 329.01,119.59 329.01,116.924 328.5,114C 330.857,111.539 330.857,108.706 328.5,105.5C 329.718,104.197 329.385,103.197 327.5,102.5C 328.181,89.9229 328.181,77.7562 327.5,66C 327.759,64.7387 328.426,63.7387 329.5,63C 328.677,57.2876 328.344,51.4543 328.5,45.5C 328.864,43.2674 329.864,41.434 331.5,40C 330.5,39.6667 329.5,39.3333 328.5,39C 330.5,38.5 332.5,38 334.5,37.5C 336.571,38.2861 338.238,39.6194 339.5,41.5C 341.335,40.8084 343.168,41.1417 345,42.5C 345.667,41.5 345.667,40.5 345,39.5C 343.334,40.3402 343.167,39.8402 344.5,38C 347.434,38.3738 350.268,38.5405 353,38.5C 352.923,37.2624 353.089,36.2624 353.5,35.5C 354.519,36.6872 355.686,37.6872 357,38.5C 360.589,37.6688 364.423,37.3355 368.5,37.5C 373.744,40.8881 379.077,40.8881 384.5,37.5C 385.799,38.09 386.632,39.09 387,40.5C 387.347,36.8838 388.514,36.2172 390.5,38.5C 402.717,38.0236 414.717,37.6903 426.5,37.5C 427.333,38.5 428.167,39.5 429,40.5C 430.512,38.0426 431.846,38.0426 433,40.5C 433.79,38.2102 435.124,37.8769 437,39.5C 438.285,39.0496 439.452,38.3829 440.5,37.5C 441.48,38.9814 442.647,40.3147 444,41.5C 443.383,39.9052 443.716,38.5719 445,37.5C 446,40.1667 447,40.1667 448,37.5C 449.458,38.7468 450.958,38.7468 452.5,37.5C 455.435,39.8907 458.435,39.8907 461.5,37.5C 464.022,38.1162 466.856,38.4495 470,38.5C 471.779,36.9826 471.279,36.1492 468.5,36C 471.308,35.0799 473.475,35.9133 475,38.5C 485.847,38.3173 496.847,37.9839 508,37.5C 508.333,38.1667 508.667,38.8333 509,39.5C 510.555,37.8542 512.221,37.5209 514,38.5C 515,37.5 516,36.5 517,35.5C 517.84,38.4637 518.84,38.797 520,36.5C 522.811,38.0933 525.644,38.4266 528.5,37.5C 529.994,37.7092 531.161,38.3759 532,39.5C 535.174,37.3792 538.507,37.0458 542,38.5C 543.929,36.3163 545.763,36.6496 547.5,39.5C 547.833,38.8333 548.167,38.1667 548.5,37.5C 551.086,38.2194 553.753,38.2194 556.5,37.5C 558.32,37.6493 559.82,38.3159 561,39.5C 561.953,37.4078 563.286,37.0745 565,38.5C 566.925,36.0266 568.758,36.0266 570.5,38.5C 572.702,37.2203 574.868,37.2203 577,38.5C 577.308,37.6919 577.808,37.0253 578.5,36.5C 580.434,36.9005 581.934,37.9005 583,39.5C 584.085,38.7069 585.252,38.0402 586.5,37.5C 588.672,37.6759 591.005,37.8425 593.5,38C 592.396,39.1313 592.729,39.9646 594.5,40.5C 595.833,38.8176 597,37.151 598,35.5C 598.637,38.3278 600.304,40.3278 603,41.5C 604.113,40.2396 604.28,39.073 603.5,38C 604.784,37.3162 605.951,37.4829 607,38.5C 607.483,37.552 607.649,36.552 607.5,35.5C 608.873,35.3433 610.207,35.51 611.5,36C 612.399,37.2362 613.566,38.0696 615,38.5C 618.267,37.9777 621.6,37.6443 625,37.5C 626.333,40.1667 627.667,40.1667 629,37.5C 631.573,38.6398 634.073,38.6398 636.5,37.5C 637.696,37.8457 637.696,38.3457 636.5,39C 639.711,39.7982 642.711,39.2982 645.5,37.5C 646.251,38.376 646.751,39.376 647,40.5C 647.787,39.2893 648.454,38.2893 649,37.5C 650.285,37.9504 651.452,38.6171 652.5,39.5C 653.541,37.0087 654.374,37.0087 655,39.5C 655.959,37.3423 657.459,37.009 659.5,38.5C 661.029,38.4712 662.196,37.8045 663,36.5C 665.863,39.4017 668.196,39.0684 670,35.5C 672.172,36.5089 673.338,38.1756 673.5,40.5C 676.954,38.5132 680.787,37.1799 685,36.5C 686.763,36.9755 688.43,37.6422 690,38.5C 690.691,36.1088 691.691,36.1088 693,38.5C 694.765,37.7607 696.765,37.7607 699,38.5C 699.974,36.1224 700.641,36.4557 701,39.5C 701.333,38.8333 701.667,38.1667 702,37.5C 702.667,38.8333 703.333,38.8333 704,37.5C 704.626,39.9913 705.459,39.9913 706.5,37.5C 707.216,38.311 708.05,38.9777 709,39.5C 710.66,38.1709 712.493,37.1709 714.5,36.5C 715.192,37.0253 715.692,37.6919 716,38.5C 717.699,37.5939 719.533,37.2606 721.5,37.5C 721.5,38.8333 721.5,40.1667 721.5,41.5C 725.257,41.7136 725.924,40.7136 723.5,38.5C 724.5,38.1667 725.5,37.8333 726.5,37.5C 731.984,38.4648 737.317,38.4648 742.5,37.5C 742.094,39.1092 742.094,40.4425 742.5,41.5C 743.429,40.3112 743.762,38.9778 743.5,37.5C 745.451,37.2267 746.951,37.8934 748,39.5C 748.804,38.1955 749.971,37.5288 751.5,37.5C 756.656,37.3859 761.822,37.7193 767,38.5C 767.333,37.8333 767.667,37.1667 768,36.5C 771.1,36.5118 773.933,37.1784 776.5,38.5C 778.507,37.8291 780.34,36.8291 782,35.5C 786.835,36.8665 791.002,38.1998 794.5,39.5C 799.33,38.7525 803.997,37.4192 808.5,35.5C 810.622,36.4271 812.955,36.4271 815.5,35.5C 815.244,37.7925 815.577,39.9592 816.5,42C 816.143,47.5478 815.143,52.8811 813.5,58C 816.033,59.916 816.033,61.916 813.5,64C 814.494,69.288 814.828,74.788 814.5,80.5C 813.975,81.1924 813.308,81.6924 812.5,82C 814.854,86.3765 814.854,90.7098 812.5,95C 813.895,97.0748 813.562,98.9081 811.5,100.5C 812.544,101.623 813.21,102.956 813.5,104.5C 812.955,109.684 811.955,114.684 810.5,119.5C 814.456,120.053 814.456,120.886 810.5,122C 812.283,123.067 812.783,124.567 812,126.5C 811.911,123.151 810.744,122.651 808.5,125C 808.957,125.414 809.291,125.914 809.5,126.5C 806.721,127.389 804.055,128.556 801.5,130C 802.5,130.333 803.5,130.667 804.5,131C 802.172,132.324 799.839,133.657 797.5,135C 797.957,135.414 798.291,135.914 798.5,136.5C 793.986,138.343 791.986,141.676 792.5,146.5 Z"
       id="path5" />
  </g>
  <g
     id="g6">
    <path
       style="opacity:1;fill:#a5c3b1;fill-opacity:1"
       fill="#aac3b4"
       d="M 820.5,33.5 C 820.5,66.8333 820.5,100.167 820.5,133.5C 807.927,131.459 798.594,135.792 792.5,146.5C 791.986,141.676 793.986,138.343 798.5,136.5C 798.291,135.914 797.957,135.414 797.5,135C 799.839,133.657 802.172,132.324 804.5,131C 803.5,130.667 802.5,130.333 801.5,130C 804.055,128.556 806.721,127.389 809.5,126.5C 809.291,125.914 808.957,125.414 808.5,125C 810.744,122.651 811.911,123.151 812,126.5C 812.783,124.567 812.283,123.067 810.5,122C 814.456,120.886 814.456,120.053 810.5,119.5C 811.955,114.684 812.955,109.684 813.5,104.5C 813.21,102.956 812.544,101.623 811.5,100.5C 813.562,98.9081 813.895,97.0748 812.5,95C 814.854,90.7098 814.854,86.3765 812.5,82C 813.308,81.6924 813.975,81.1924 814.5,80.5C 814.828,74.788 814.494,69.288 813.5,64C 816.033,61.916 816.033,59.916 813.5,58C 815.143,52.8811 816.143,47.5478 816.5,42C 815.577,39.9592 815.244,37.7925 815.5,35.5C 812.955,36.4271 810.622,36.4271 808.5,35.5C 803.997,37.4192 799.33,38.7525 794.5,39.5C 791.002,38.1998 786.835,36.8665 782,35.5C 780.34,36.8291 778.507,37.8291 776.5,38.5C 773.933,37.1784 771.1,36.5118 768,36.5C 767.667,37.1667 767.333,37.8333 767,38.5C 761.822,37.7193 756.656,37.3859 751.5,37.5C 749.971,37.5288 748.804,38.1955 748,39.5C 746.951,37.8934 745.451,37.2267 743.5,37.5C 743.762,38.9778 743.429,40.3112 742.5,41.5C 742.094,40.4425 742.094,39.1092 742.5,37.5C 737.317,38.4648 731.984,38.4648 726.5,37.5C 725.5,37.8333 724.5,38.1667 723.5,38.5C 725.924,40.7136 725.257,41.7136 721.5,41.5C 721.5,40.1667 721.5,38.8333 721.5,37.5C 719.533,37.2606 717.699,37.5939 716,38.5C 715.692,37.6919 715.192,37.0253 714.5,36.5C 712.493,37.1709 710.66,38.1709 709,39.5C 708.05,38.9777 707.216,38.311 706.5,37.5C 705.459,39.9913 704.626,39.9913 704,37.5C 703.333,38.8333 702.667,38.8333 702,37.5C 701.667,38.1667 701.333,38.8333 701,39.5C 700.641,36.4557 699.974,36.1224 699,38.5C 696.765,37.7607 694.765,37.7607 693,38.5C 691.691,36.1088 690.691,36.1088 690,38.5C 688.43,37.6422 686.763,36.9755 685,36.5C 680.787,37.1799 676.954,38.5132 673.5,40.5C 673.338,38.1756 672.172,36.5089 670,35.5C 668.196,39.0684 665.863,39.4017 663,36.5C 662.196,37.8045 661.029,38.4712 659.5,38.5C 657.459,37.009 655.959,37.3423 655,39.5C 654.374,37.0087 653.541,37.0087 652.5,39.5C 651.452,38.6171 650.285,37.9504 649,37.5C 648.454,38.2893 647.787,39.2893 647,40.5C 646.751,39.376 646.251,38.376 645.5,37.5C 642.711,39.2982 639.711,39.7982 636.5,39C 637.696,38.3457 637.696,37.8457 636.5,37.5C 634.073,38.6398 631.573,38.6398 629,37.5C 627.667,40.1667 626.333,40.1667 625,37.5C 621.6,37.6443 618.267,37.9777 615,38.5C 613.566,38.0696 612.399,37.2362 611.5,36C 610.207,35.51 608.873,35.3433 607.5,35.5C 607.649,36.552 607.483,37.552 607,38.5C 605.951,37.4829 604.784,37.3162 603.5,38C 604.28,39.073 604.113,40.2396 603,41.5C 600.304,40.3278 598.637,38.3278 598,35.5C 597,37.151 595.833,38.8176 594.5,40.5C 592.729,39.9646 592.396,39.1313 593.5,38C 591.005,37.8425 588.672,37.6759 586.5,37.5C 585.252,38.0402 584.085,38.7069 583,39.5C 581.934,37.9005 580.434,36.9005 578.5,36.5C 577.808,37.0253 577.308,37.6919 577,38.5C 574.868,37.2203 572.702,37.2203 570.5,38.5C 568.758,36.0266 566.925,36.0266 565,38.5C 563.286,37.0745 561.953,37.4078 561,39.5C 559.82,38.3159 558.32,37.6493 556.5,37.5C 553.753,38.2194 551.086,38.2194 548.5,37.5C 548.167,38.1667 547.833,38.8333 547.5,39.5C 545.763,36.6496 543.929,36.3163 542,38.5C 538.507,37.0458 535.174,37.3792 532,39.5C 531.161,38.3759 529.994,37.7092 528.5,37.5C 525.644,38.4266 522.811,38.0933 520,36.5C 518.84,38.797 517.84,38.4637 517,35.5C 516,36.5 515,37.5 514,38.5C 512.221,37.5209 510.555,37.8542 509,39.5C 508.667,38.8333 508.333,38.1667 508,37.5C 496.847,37.9839 485.847,38.3173 475,38.5C 473.475,35.9133 471.308,35.0799 468.5,36C 471.279,36.1492 471.779,36.9826 470,38.5C 466.856,38.4495 464.022,38.1162 461.5,37.5C 458.435,39.8907 455.435,39.8907 452.5,37.5C 450.958,38.7468 449.458,38.7468 448,37.5C 447,40.1667 446,40.1667 445,37.5C 443.716,38.5719 443.383,39.9052 444,41.5C 442.647,40.3147 441.48,38.9814 440.5,37.5C 439.452,38.3829 438.285,39.0496 437,39.5C 435.124,37.8769 433.79,38.2102 433,40.5C 431.846,38.0426 430.512,38.0426 429,40.5C 428.167,39.5 427.333,38.5 426.5,37.5C 414.717,37.6903 402.717,38.0236 390.5,38.5C 388.514,36.2172 387.347,36.8838 387,40.5C 386.632,39.09 385.799,38.09 384.5,37.5C 379.077,40.8881 373.744,40.8881 368.5,37.5C 364.423,37.3355 360.589,37.6688 357,38.5C 355.686,37.6872 354.519,36.6872 353.5,35.5C 353.089,36.2624 352.923,37.2624 353,38.5C 350.268,38.5405 347.434,38.3738 344.5,38C 343.167,39.8402 343.334,40.3402 345,39.5C 345.667,40.5 345.667,41.5 345,42.5C 343.168,41.1417 341.335,40.8084 339.5,41.5C 338.238,39.6194 336.571,38.2861 334.5,37.5C 332.5,38 330.5,38.5 328.5,39C 329.5,39.3333 330.5,39.6667 331.5,40C 329.864,41.434 328.864,43.2674 328.5,45.5C 328.344,51.4543 328.677,57.2876 329.5,63C 328.426,63.7387 327.759,64.7387 327.5,66C 328.181,77.7562 328.181,89.9229 327.5,102.5C 329.385,103.197 329.718,104.197 328.5,105.5C 330.857,108.706 330.857,111.539 328.5,114C 329.01,116.924 329.01,119.59 328.5,122C 330.701,127.203 330.701,132.369 328.5,137.5C 329.256,139.451 329.589,141.284 329.5,143C 328.833,143.333 328.167,143.667 327.5,144C 328.535,149.872 328.535,155.872 327.5,162C 328.5,163 329.5,164 330.5,165C 329.833,165.333 329.167,165.667 328.5,166C 329.11,170.475 329.11,175.142 328.5,180C 329.811,182.283 330.478,184.449 330.5,186.5C 330.032,188.134 329.032,189.3 327.5,190C 328.167,191.667 328.833,193.333 329.5,195C 328.367,207.503 328.367,220.836 329.5,235C 326.966,237.747 326.966,240.413 329.5,243C 329.554,251.285 329.22,260.119 328.5,269.5C 330.679,271.717 330.679,273.717 328.5,275.5C 328.743,278.708 329.077,281.875 329.5,285C 327.681,288.228 327.681,291.228 329.5,294C 326.377,296.061 326.044,298.728 328.5,302C 328.707,304.632 328.374,306.965 327.5,309C 329.037,310.11 329.703,311.61 329.5,313.5C 332.866,313.788 336.2,313.954 339.5,314C 342.167,313.333 342.167,312.667 339.5,312C 340.731,310.033 341.731,310.199 342.5,312.5C 347.395,313.38 352.229,314.38 357,315.5C 358.53,314.364 359.863,313.364 361,312.5C 362.333,315.167 363.667,315.167 365,312.5C 365.388,313.428 366.055,314.095 367,314.5C 368.15,313.576 369.15,313.576 370,314.5C 370.333,313.833 370.667,313.167 371,312.5C 371.667,313.833 372.333,313.833 373,312.5C 374.391,314.715 376.057,314.715 378,312.5C 382.276,313.626 386.276,313.626 390,312.5C 392,313.167 394,313.833 396,314.5C 396.414,314.043 396.914,313.709 397.5,313.5C 398.249,315.012 399.416,316.012 401,316.5C 403.135,315.873 405.302,315.373 407.5,315C 407.167,314.667 406.833,314.333 406.5,314C 407.46,312.581 408.293,311.081 409,309.5C 409.667,310.833 410.333,310.833 411,309.5C 411.5,310 412,310.5 412.5,311C 409.151,311.089 408.651,312.256 411,314.5C 411.333,314.167 411.667,313.833 412,313.5C 412.93,315.545 414.43,316.379 416.5,316C 412.71,314.181 412.71,312.181 416.5,310C 416.167,309.667 415.833,309.333 415.5,309C 417.23,307.148 418.396,307.314 419,309.5C 421.695,306.866 423.529,306.866 424.5,309.5C 425.478,309.023 426.311,308.357 427,307.5C 428.371,307.243 429.871,307.577 431.5,308.5C 434.362,308.135 435.862,306.469 436,303.5C 436.216,305.384 436.883,307.051 438,308.5C 440.041,308.643 442.208,308.309 444.5,307.5C 445.833,308.833 445.833,310.167 444.5,311.5C 443.833,310.833 443.167,310.167 442.5,309.5C 439.072,310.679 435.406,310.679 431.5,309.5C 427.64,309.392 424.474,310.725 422,313.5C 421.195,311.099 420.362,311.266 419.5,314C 421.938,314.682 424.105,314.182 426,312.5C 427.011,312.892 427.511,313.559 427.5,314.5C 428.333,313.5 429.167,312.5 430,311.5C 435.945,312.196 442.111,312.363 448.5,312C 449.167,311.333 449.833,310.667 450.5,310C 449.359,309.259 449.359,308.425 450.5,307.5C 449.471,307.704 448.471,307.204 447.5,306C 448.766,305.691 449.933,305.191 451,304.5C 454.12,306.714 457.12,306.714 460,304.5C 465.206,310.13 470.04,309.796 474.5,303.5C 475.72,302.289 476.887,302.289 478,303.5C 478.667,302.833 479.333,302.167 480,301.5C 481.579,303.041 483.413,304.208 485.5,305C 484.692,305.308 484.025,305.808 483.5,306.5C 484.991,307.244 486.491,307.91 488,308.5C 492.105,309.149 496.105,308.483 500,306.5C 502.333,307.833 504.667,307.833 507,306.5C 508.667,307.167 510.333,307.833 512,308.5C 512.914,307.346 513.747,307.513 514.5,309C 513.377,310.044 512.044,310.71 510.5,311C 511.701,311.903 512.535,313.069 513,314.5C 513.308,313.692 513.808,313.025 514.5,312.5C 516.602,312.479 518.768,312.813 521,313.5C 522,312.833 523,312.167 524,311.5C 527.806,313.023 531.806,313.69 536,313.5C 539.086,313.478 542.086,313.145 545,312.5C 546.333,313.167 547.333,314.167 548,315.5C 548.674,314.422 549.674,313.755 551,313.5C 553.027,314.732 554.36,314.398 555,312.5C 561.088,313.656 567.255,313.656 573.5,312.5C 574.167,313.167 574.833,313.833 575.5,314.5C 576.5,313.167 577.5,313.167 578.5,314.5C 578.736,313.753 579.07,312.92 579.5,312C 574.472,311.966 569.139,310.966 563.5,309C 564.416,308.626 565.25,308.126 566,307.5C 568.369,307.727 570.869,307.893 573.5,308C 574.819,309.628 576.152,309.461 577.5,307.5C 580.485,307.955 583.318,307.955 586,307.5C 587.316,310.028 588.483,310.028 589.5,307.5C 591.359,307.888 593.359,307.888 595.5,307.5C 595.833,307.833 596.167,308.167 596.5,308.5C 594.363,309.08 592.53,310.08 591,311.5C 590.667,310.833 590.333,310.167 590,309.5C 589.612,310.428 588.945,311.095 588,311.5C 586.079,310.81 584.245,310.476 582.5,310.5C 581.386,311.723 581.219,313.056 582,314.5C 585.657,313.439 589.657,312.439 594,311.5C 594.333,312.167 594.667,312.833 595,313.5C 596.309,311.109 597.309,311.109 598,313.5C 598.667,312.167 599.333,312.167 600,313.5C 600.692,312.975 601.192,312.308 601.5,311.5C 599.851,310.852 598.518,309.852 597.5,308.5C 598.861,306.972 600.028,305.305 601,303.5C 604.167,304.667 604.333,306.167 601.5,308C 603.92,307.012 606.253,307.345 608.5,309C 608.043,309.414 607.709,309.914 607.5,310.5C 608.035,312.271 608.869,312.604 610,311.5C 609.923,312.738 610.089,313.738 610.5,314.5C 612.35,313.758 613.016,312.758 612.5,311.5C 614.059,312.447 615.726,313.113 617.5,313.5C 618.786,313.148 619.619,312.482 620,311.5C 621.338,312.506 622.671,313.506 624,314.5C 625.791,312.487 627.125,312.487 628,314.5C 632.53,314.264 637.197,313.597 642,312.5C 642.667,313.167 643.333,313.833 644,314.5C 646.333,313.833 648.667,313.167 651,312.5C 652.309,314.891 653.309,314.891 654,312.5C 656.667,313.833 659.333,313.833 662,312.5C 667.101,312.952 672.101,313.952 677,315.5C 680.189,312.993 683.356,312.993 686.5,315.5C 687.192,314.975 687.692,314.308 688,313.5C 688.333,313.833 688.667,314.167 689,314.5C 694.243,312.828 693.743,310.995 687.5,309C 691.492,307.919 695.325,307.419 699,307.5C 699.667,308.833 699.667,310.167 699,311.5C 698.667,310.833 698.333,310.167 698,309.5C 696.312,310.325 696.145,311.325 697.5,312.5C 700.891,313.496 704.224,313.162 707.5,311.5C 708.647,311.818 709.481,312.484 710,313.5C 710.333,312.833 710.667,312.167 711,311.5C 712.667,312.5 714.333,313.5 716,314.5C 717.313,313.427 718.813,312.76 720.5,312.5C 724.091,313.26 724.424,312.093 721.5,309C 723.5,307 725.5,307 727.5,309C 726.289,309.787 725.289,310.454 724.5,311C 725.535,312.274 726.702,313.44 728,314.5C 728.368,313.09 729.201,312.09 730.5,311.5C 730.998,312.603 731.331,313.603 731.5,314.5C 732.192,313.975 732.692,313.308 733,312.5C 735.022,313.991 736.688,313.658 738,311.5C 740.659,314.386 743.493,314.719 746.5,312.5C 749.366,313.795 752.199,313.795 755,312.5C 756.418,314.363 758.251,314.863 760.5,314C 759.167,313.667 757.833,313.333 756.5,313C 757,312.5 757.5,312 758,311.5C 759.747,312.33 761.413,313.33 763,314.5C 764.261,314.241 765.261,313.574 766,312.5C 767.667,315.167 769.333,315.167 771,312.5C 771.804,313.804 772.971,314.471 774.5,314.5C 782.9,313.421 791.4,313.421 800,314.5C 802.178,311.532 803.344,311.865 803.5,315.5C 810.828,317.288 813.161,314.455 810.5,307C 811.448,306.517 812.448,306.351 813.5,306.5C 814.037,303.424 813.37,300.424 811.5,297.5C 813.973,295.575 813.973,293.742 811.5,292C 812.87,290.559 813.87,288.892 814.5,287C 813.288,285.893 813.621,285.393 815.5,285.5C 815.224,295.776 815.224,306.11 815.5,316.5C 814.209,316.263 813.209,316.596 812.5,317.5C 812.167,317.5 811.833,317.5 811.5,317.5C 650.5,317.5 489.5,317.5 328.5,317.5C 327.527,316.209 326.527,316.209 325.5,317.5C 324.333,223.502 324.167,129.502 325,35.5C 325.5,35 326,34.5 326.5,34C 489.5,33.3333 652.5,33.3333 815.5,34C 817.053,35.3026 818.72,35.136 820.5,33.5 Z"
       id="path6" />
  </g>
  <g
     id="g7">
    <path
       style="opacity:1"
       fill="#f9fdfa"
       d="M 491.5,131.5 C 493.888,132.219 495.388,133.885 496,136.5C 506.392,160.951 517.058,185.284 528,209.5C 529.833,211.333 531.667,213.167 533.5,215C 525.5,215.667 517.5,215.667 509.5,215C 508.167,214.333 508.167,213.667 509.5,213C 510.793,212.51 512.127,212.343 513.5,212.5C 512.742,204.753 510.076,197.753 505.5,191.5C 493.848,190.334 482.181,190.167 470.5,191C 467.02,197.271 464.02,203.771 461.5,210.5C 463.737,211.132 465.403,212.465 466.5,214.5C 460.863,215.663 455.196,215.83 449.5,215C 452.102,214.117 454.269,212.617 456,210.5C 468.325,184.347 480.158,158.013 491.5,131.5 Z"
       id="path7" />
  </g>
  <g
     id="g8">
    <path
       style="opacity:1"
       fill="#f6fdf8"
       d="M 769.5,133.5 C 771.857,133.337 774.19,133.503 776.5,134C 778.386,137.967 778.886,142.134 778,146.5C 776.906,153.585 775.406,160.585 773.5,167.5C 770.415,158.424 768.415,149.091 767.5,139.5C 767.719,137.307 768.385,135.307 769.5,133.5 Z"
       id="path8" />
  </g>
  <g
     id="g9">
    <path
       style="opacity:1"
       fill="#f6fcf8"
       d="M 370.5,134.5 C 393.833,134.5 417.167,134.5 440.5,134.5C 440.581,139.407 441.248,144.241 442.5,149C 442.167,149.833 441.833,150.667 441.5,151.5C 439.683,147.371 437.016,143.871 433.5,141C 420.561,139.578 407.561,139.078 394.5,139.5C 394.5,150.167 394.5,160.833 394.5,171.5C 403.527,171.749 412.527,171.416 421.5,170.5C 422.5,170.167 423.5,169.833 424.5,169.5C 425.236,167.459 426.069,165.459 427,163.5C 428.527,169.415 428.861,175.415 428,181.5C 427.333,182.833 426.667,182.833 426,181.5C 424.991,179.975 424.491,178.308 424.5,176.5C 414.5,176.5 404.5,176.5 394.5,176.5C 394.333,187.838 394.5,199.172 395,210.5C 396.925,211.88 398.759,213.38 400.5,215C 392.812,215.831 385.145,215.665 377.5,214.5C 378.815,212.684 380.315,211.017 382,209.5C 382.667,187.167 382.667,164.833 382,142.5C 380.859,140.391 379.359,138.558 377.5,137C 374.639,137.03 372.305,136.197 370.5,134.5 Z"
       id="path9" />
  </g>
  <g
     id="g10">
    <path
       style="opacity:1"
       fill="#f8fdfa"
       d="M 625.5,134.5 C 638.184,134.168 650.851,134.501 663.5,135.5C 660.893,136.318 658.226,136.818 655.5,137C 654.12,138.925 652.62,140.759 651,142.5C 650.333,164.5 650.333,186.5 651,208.5C 652.337,211.002 654.171,213.002 656.5,214.5C 648.833,215.833 641.167,215.833 633.5,214.5C 635.323,213.509 636.823,212.176 638,210.5C 638.667,187.5 638.667,164.5 638,141.5C 636.954,139.91 635.787,138.41 634.5,137C 631.008,137.07 628.008,136.237 625.5,134.5 Z"
       id="path10" />
  </g>
  <g
     id="g11">
    <path
       style="opacity:1"
       fill="#f9fdf9"
       d="M 544.5,135.5 C 557.66,134.34 570.994,134.173 584.5,135C 594.144,135.21 602.31,138.71 609,145.5C 615.133,159.731 610.967,169.564 596.5,175C 606.806,176.641 613.306,182.475 616,192.5C 616.214,205.293 610.047,213.126 597.5,216C 580.806,216.833 564.139,216.499 547.5,215C 554.713,215.12 558.213,211.62 558,204.5C 558.667,185.167 558.667,165.833 558,146.5C 556.669,139.007 552.169,135.34 544.5,135.5 Z"
       id="path11" />
  </g>
  <g
     id="g12">
    <path
       style="opacity:1"
       fill="#fafdfa"
       d="M 705.5,133.5 C 730.812,130.231 747.645,140.564 756,164.5C 759.616,182.987 754.449,198.487 740.5,211C 718.046,224.598 698.212,221.432 681,201.5C 678.229,197.196 676.229,192.529 675,187.5C 670.426,160.965 680.593,142.965 705.5,133.5 Z"
       id="path12" />
  </g>
  <g
     id="g13">
    <path
       style="opacity:1"
       fill="#a8c2b1"
       d="M 573.5,138.5 C 584.6,136.801 592.767,140.801 598,150.5C 599.742,160.183 596.242,167.35 587.5,172C 581.912,173.289 576.245,173.789 570.5,173.5C 570.333,162.495 570.5,151.495 571,140.5C 571.995,139.934 572.828,139.267 573.5,138.5 Z"
       id="path13" />
  </g>
  <g
     id="g14">
    <path
       style="opacity:1"
       fill="#a7c3b2"
       d="M 710.5,136.5 C 719.338,135.501 726.838,138.168 733,144.5C 745.422,162.991 746.755,182.324 737,202.5C 725.017,218.962 711.684,220.295 697,206.5C 687.928,193.916 684.928,179.916 688,164.5C 690.558,150.98 698.058,141.647 710.5,136.5 Z"
       id="path14" />
  </g>
  <g
     id="g15">
    <path
       style="opacity:1"
       fill="#aec5b6"
       d="M 486.5,151.5 C 488.074,151.937 489.241,152.937 490,154.5C 494.488,164.813 498.988,175.146 503.5,185.5C 493.167,186.833 482.833,186.833 472.5,185.5C 477.774,174.303 482.441,162.969 486.5,151.5 Z"
       id="path15" />
  </g>
  <g
     id="g16">
    <path
       style="opacity:1"
       fill="#aac3b3"
       d="M 570.5,176.5 C 582.984,174.335 592.817,178.335 600,188.5C 603.448,199.784 599.615,207.95 588.5,213C 582.509,213.499 576.509,213.666 570.5,213.5C 570.5,201.167 570.5,188.833 570.5,176.5 Z"
       id="path16" />
  </g>
  <g
     id="g17">
    <path
       style="opacity:1"
       fill="#c0d1c7"
       d="M 317.5,316.5 C 317.5,316.833 317.5,317.167 317.5,317.5C 316.833,317.833 316.167,318.167 315.5,318.5C 227.263,318.832 139.096,318.498 51,317.5C 49.8378,269.915 49.3378,222.249 49.5,174.5C 49.6667,127.5 49.8333,80.5 50,33.5C 50.2492,32.376 50.7492,31.376 51.5,30.5C 139.462,29.1695 227.462,29.1695 315.5,30.5C 316.164,125.961 316.831,221.294 317.5,316.5 Z"
       id="path17" />
  </g>
  <g
     id="g18">
    <path
       style="opacity:1"
       fill="#a6c1b1"
       d="M 309.5,31.5 C 311.167,31.5 312.833,31.5 314.5,31.5C 314.5,126.167 314.5,220.833 314.5,315.5C 313.5,315.5 312.5,315.5 311.5,315.5C 311.631,314.761 311.464,314.094 311,313.5C 310.481,314.516 309.647,315.182 308.5,315.5C 306.728,314.64 305.395,313.307 304.5,311.5C 302.936,312.186 301.269,312.019 299.5,311C 301.569,310.676 301.902,309.842 300.5,308.5C 301.63,307.378 302.297,306.044 302.5,304.5C 303.499,217.668 303.833,130.668 303.5,43.5C 302.5,43.5 301.5,43.5 300.5,43.5C 222.98,42.8276 145.313,42.1609 67.5,41.5C 65.6171,41.8757 64.1171,42.8757 63,44.5C 61.1607,130.829 61.1607,217.162 63,303.5C 64.1739,305.671 66.0072,306.671 68.5,306.5C 71.5888,307.428 74.7555,308.428 78,309.5C 80.749,306.887 83.5823,306.887 86.5,309.5C 89.125,308.62 91.4584,309.287 93.5,311.5C 94.8333,310.833 96.1667,310.167 97.5,309.5C 100.588,309.352 103.755,309.685 107,310.5C 109.326,308.746 111.992,307.746 115,307.5C 116.911,308.407 118.744,308.407 120.5,307.5C 121.448,310.715 122.781,311.048 124.5,308.5C 126.598,309.484 128.598,309.151 130.5,307.5C 132.059,308.074 133.559,308.74 135,309.5C 137.24,309.91 139.407,309.243 141.5,307.5C 142.5,308.833 143.5,308.833 144.5,307.5C 145.969,309.375 147.802,309.375 150,307.5C 150.626,309.991 151.459,309.991 152.5,307.5C 155.822,307.795 159.322,308.462 163,309.5C 164.646,307.859 165.646,308.193 166,310.5C 167.986,308.258 170.486,307.258 173.5,307.5C 176.699,308.521 179.866,308.521 183,307.5C 184.711,307.439 186.044,308.106 187,309.5C 188.113,308.289 189.28,308.289 190.5,309.5C 191.167,308.833 191.833,308.167 192.5,307.5C 196.281,307.981 200.281,308.648 204.5,309.5C 206.044,309.21 207.377,308.544 208.5,307.5C 210.5,310.167 212.5,310.167 214.5,307.5C 215.425,308.641 216.259,308.641 217,307.5C 217.308,308.308 217.808,308.975 218.5,309.5C 219.833,308.833 221.167,308.167 222.5,307.5C 223.833,308.167 225.167,308.833 226.5,309.5C 231.994,310.037 237.66,309.37 243.5,307.5C 245.223,308.552 246.89,308.552 248.5,307.5C 249.478,307.977 250.311,308.643 251,309.5C 253.184,310.108 255.184,309.441 257,307.5C 262.228,309.945 267.395,309.945 272.5,307.5C 273.167,308.167 273.833,308.833 274.5,309.5C 276.404,308.74 278.404,308.74 280.5,309.5C 282.374,309.61 283.874,308.944 285,307.5C 286.754,309.25 288.921,309.917 291.5,309.5C 291.5,310.833 291.5,312.167 291.5,313.5C 290.178,313.67 289.011,313.337 288,312.5C 286.491,314.881 284.325,315.881 281.5,315.5C 269.167,315.295 256.667,315.295 244,315.5C 241.5,315.333 239,315.167 236.5,315C 235.789,313.745 234.956,312.579 234,311.5C 233.784,313.384 233.117,315.051 232,316.5C 228.447,315.194 224.78,314.194 221,313.5C 219.11,313.215 217.777,312.215 217,310.5C 213.318,314.094 209.818,314.427 206.5,311.5C 205.167,312.5 203.833,313.5 202.5,314.5C 201.833,313.833 201.167,313.167 200.5,312.5C 198.5,313.167 196.5,313.833 194.5,314.5C 193.808,313.975 193.308,313.308 193,312.5C 191.249,313.809 189.749,313.475 188.5,311.5C 187.833,312.167 187.167,312.833 186.5,313.5C 178.86,313.489 171.193,313.489 163.5,313.5C 163.649,312.448 163.483,311.448 163,310.5C 162.077,311.759 161.243,313.092 160.5,314.5C 159.167,313.167 157.833,313.167 156.5,314.5C 155.667,313.5 154.833,312.5 154,311.5C 151.575,313.006 149.242,314.673 147,316.5C 146.374,314.009 145.541,314.009 144.5,316.5C 143.808,315.975 143.308,315.308 143,314.5C 139.869,315.206 136.702,315.873 133.5,316.5C 132.522,316.023 131.689,315.357 131,314.5C 128.667,315.833 126.333,315.833 124,314.5C 122.149,316.781 120.482,316.781 119,314.5C 114.107,315.316 109.107,315.649 104,315.5C 101.6,314.956 99.267,314.289 97,313.5C 95.038,313.031 93.2047,313.697 91.5,315.5C 89.9411,314.926 88.4411,314.26 87,313.5C 86.6827,315.301 86.016,315.634 85,314.5C 83.3333,317.167 81.6667,317.167 80,314.5C 75.7617,315.489 71.4284,316.156 67,316.5C 62.6609,316.03 58.4942,315.864 54.5,316C 54.8333,315.667 55.1667,315.333 55.5,315C 54.2986,314.097 53.4652,312.931 53,311.5C 52.3333,218.833 52.3333,126.167 53,33.5C 138.542,33.0526 224.042,32.3859 309.5,31.5 Z"
       id="path18" />
  </g>
  <g
     id="g19"
     style="fill:#000000;fill-opacity:1">
    <path
       style="opacity:1;fill:#000000;fill-opacity:1"
       fill="#fefefd"
       d="M 301.5,297.5 C 301.975,300.082 301.308,302.082 299.5,303.5C 227.414,304.153 155.414,303.487 83.5,301.5C 80.1261,301.729 77.1261,302.062 74.5,302.5C 72.2906,301.894 70.124,301.227 68,300.5C 67.8333,297.167 67.6667,293.833 67.5,290.5C 67.5175,236.386 67.8508,182.886 68.5,130C 67.561,114.581 66.8943,99.2475 66.5,84C 67.2715,72.3661 67.9381,60.8661 68.5,49.5C 70.2857,47.9789 72.119,47.6456 74,48.5C 75.3988,47.7734 76.8988,47.2734 78.5,47C 85.8333,46.8333 93.1667,46.6667 100.5,46.5C 162.035,46.8899 223.868,46.8899 286,46.5C 289.767,47.3682 293.601,48.0349 297.5,48.5C 297.462,51.1813 298.129,53.6813 299.5,56C 297.552,60.5114 297.552,65.5114 299.5,71C 299.355,71.772 299.022,72.4387 298.5,73C 300.163,147.788 301.163,222.622 301.5,297.5 Z"
       id="path19" />
  </g>
  <g
     id="g20">
    <path
       style="opacity:1"
       fill="#d6e4dc"
       d="M 300.5,43.5 C 302.138,44.7046 302.471,46.0379 301.5,47.5C 300.711,47.2172 300.044,46.7172 299.5,46C 221.597,45.1685 143.763,45.3352 66,46.5C 65.5,131.499 65.3333,216.499 65.5,301.5C 64.3343,216.001 64.1676,130.334 65,44.5C 143.429,43.5017 221.929,43.1684 300.5,43.5 Z"
       id="path20" />
  </g>
  <g
     id="g21">
    <path
       style="opacity:1"
       fill="#f2faf5"
       d="M 806.5,211.5 C 810.985,214.74 815.985,216.906 821.5,218C 817.392,220.009 813.392,219.843 809.5,217.5C 805.985,216.272 802.485,214.938 799,213.5C 796.846,214.32 795.346,215.82 794.5,218C 793.552,218.483 792.552,218.649 791.5,218.5C 791.168,209.475 791.502,200.475 792.5,191.5C 794.452,196.737 796.952,201.737 800,206.5C 801.758,208.765 803.925,210.432 806.5,211.5 Z"
       id="path21" />
  </g>
  <g
     id="g22">
    <path
       style="opacity:1"
       fill="#c1d4c9"
       d="M 300.5,43.5 C 301.5,43.5 302.5,43.5 303.5,43.5C 303.833,130.668 303.499,217.668 302.5,304.5C 301.5,304.5 300.5,304.5 299.5,304.5C 299.5,304.167 299.5,303.833 299.5,303.5C 301.308,302.082 301.975,300.082 301.5,297.5C 301.5,214.167 301.5,130.833 301.5,47.5C 302.471,46.0379 302.138,44.7046 300.5,43.5 Z"
       id="path22" />
  </g>
  <g
     id="g23">
    <path
       style="opacity:1"
       fill="#f2fbf5"
       d="M 301.5,47.5 C 301.5,130.833 301.5,214.167 301.5,297.5C 301.163,222.622 300.163,147.788 298.5,73C 299.022,72.4387 299.355,71.772 299.5,71C 297.552,65.5114 297.552,60.5114 299.5,56C 298.129,53.6813 297.462,51.1813 297.5,48.5C 293.601,48.0349 289.767,47.3682 286,46.5C 223.868,46.8899 162.035,46.8899 100.5,46.5C 93.1667,46.6667 85.8333,46.8333 78.5,47C 76.8988,47.2734 75.3988,47.7734 74,48.5C 72.119,47.6456 70.2857,47.9789 68.5,49.5C 67.9381,60.8661 67.2715,72.3661 66.5,84C 66.8943,99.2475 67.561,114.581 68.5,130C 67.8508,182.886 67.5175,236.386 67.5,290.5C 67.6667,293.833 67.8333,297.167 68,300.5C 70.124,301.227 72.2906,301.894 74.5,302.5C 77.1261,302.062 80.1261,301.729 83.5,301.5C 155.414,303.487 227.414,304.153 299.5,303.5C 299.5,303.833 299.5,304.167 299.5,304.5C 221.833,304.667 144.166,304.5 66.5,304C 65.7476,303.329 65.4142,302.496 65.5,301.5C 65.3333,216.499 65.5,131.499 66,46.5C 143.763,45.3352 221.597,45.1685 299.5,46C 300.044,46.7172 300.711,47.2172 301.5,47.5 Z"
       id="path23" />
  </g>
  <g
     id="g24"
     style="fill:#f8fdfa;fill-opacity:1">
    <path
       style="opacity:1;fill:#f8fdfa;fill-opacity:1"
       fill="#030303"
       d="M 223.5,84.5 C 234.505,84.3335 245.505,84.5002 256.5,85C 261.713,88.5461 265.88,93.0461 269,98.5C 269.667,99.8333 269.667,101.167 269,102.5C 255.34,111.339 241.84,120.339 228.5,129.5C 227.833,129.333 227.167,129.167 226.5,129C 228.13,122.277 230.464,115.777 233.5,109.5C 232.833,109.167 232.167,108.833 231.5,108.5C 218.064,111.692 204.731,115.192 191.5,119C 182.987,141.375 173.987,163.542 164.5,185.5C 180.708,182.599 197.041,180.599 213.5,179.5C 218.434,178.717 222.601,180.05 226,183.5C 226.667,185.167 226.667,186.833 226,188.5C 202.931,192.976 180.097,198.476 157.5,205C 149.591,219.711 143.424,235.211 139,251.5C 138.667,255.167 138.333,258.833 138,262.5C 137.5,263.667 136.667,264.5 135.5,265C 126.507,266.089 119.34,262.922 114,255.5C 107.879,247.683 106.212,239.016 109,229.5C 123.266,195.535 137.432,161.535 151.5,127.5C 148.967,124.817 145.967,122.65 142.5,121C 135.838,115.873 133.671,109.373 136,101.5C 137.648,100.283 139.481,99.4497 141.5,99C 168.698,92.9978 196.032,88.1645 223.5,84.5 Z"
       id="path24" />
  </g>
  <g
     id="g25">
    <path
       style="opacity:1"
       fill="#afc5b7"
       d="M 820.5,319.5 C 818.2,317.798 815.533,317.132 812.5,317.5C 813.209,316.596 814.209,316.263 815.5,316.5C 815.224,306.11 815.224,295.776 815.5,285.5C 815.828,266.872 815.994,248.206 816,229.5C 815.818,226.774 815.318,224.107 814.5,221.5C 812.414,220.511 810.747,219.178 809.5,217.5C 813.392,219.843 817.392,220.009 821.5,218C 815.985,216.906 810.985,214.74 806.5,211.5C 808.901,210.951 811.235,210.118 813.5,209C 813.167,208.667 812.833,208.333 812.5,208C 813.874,205.101 815.374,204.934 817,207.5C 818.514,198.945 818.681,190.612 817.5,182.5C 819.101,183.643 819.767,182.976 819.5,180.5C 818.868,176.183 818.368,171.85 818,167.5C 814.588,164.877 811.088,162.377 807.5,160C 799.354,152.689 799.687,145.689 808.5,139C 816.476,134.294 824.809,133.461 833.5,136.5C 834.833,136.167 836.167,135.833 837.5,135.5C 838.167,134.167 839.167,133.167 840.5,132.5C 841.498,141.81 841.832,151.143 841.5,160.5C 840.5,160.5 839.5,160.5 838.5,160.5C 837.043,152.752 833.376,146.252 827.5,141C 825.35,139.589 823.016,138.755 820.5,138.5C 820.077,148.58 820.577,158.58 822,168.5C 829.515,172.346 836.182,177.346 842,183.5C 849.918,196.47 847.418,207.303 834.5,216C 830.716,217.947 826.716,219.28 822.5,220C 821.874,220.75 821.374,221.584 821,222.5C 820.5,254.832 820.333,287.165 820.5,319.5 Z"
       id="path25" />
  </g>
  <g
     id="g26"
     style="fill:#000000;fill-opacity:1">
    <path
       style="opacity:1;fill:#000000;fill-opacity:1"
       fill="#f8fcf8"
       d="M 820.5,184.5 C 824.422,186.915 827.922,189.915 831,193.5C 835.359,203.774 832.359,210.774 822,214.5C 820.527,204.665 820.027,194.665 820.5,184.5 Z"
       id="path26" />
  </g>
  <g
     id="g27">
    <path
       style="opacity:1"
       fill="#bccec4"
       d="M 300.5,43.5 C 221.929,43.1684 143.429,43.5017 65,44.5C 64.1676,130.334 64.3343,216.001 65.5,301.5C 65.4142,302.496 65.7476,303.329 66.5,304C 144.166,304.5 221.833,304.667 299.5,304.5C 299.631,305.376 299.298,306.043 298.5,306.5C 221.804,305.167 145.137,305.167 68.5,306.5C 66.0072,306.671 64.1739,305.671 63,303.5C 61.1607,217.162 61.1607,130.829 63,44.5C 64.1171,42.8757 65.6171,41.8757 67.5,41.5C 145.313,42.1609 222.98,42.8276 300.5,43.5 Z"
       id="path27" />
  </g>
  <g
     id="g28">
    <path
       style="opacity:1"
       fill="#acc3b5"
       d="M 309.5,31.5 C 224.042,32.3859 138.542,33.0526 53,33.5C 52.3333,126.167 52.3333,218.833 53,311.5C 53.4652,312.931 54.2986,314.097 55.5,315C 55.1667,315.333 54.8333,315.667 54.5,316C 58.4942,315.864 62.6609,316.03 67,316.5C 71.4284,316.156 75.7617,315.489 80,314.5C 81.6667,317.167 83.3333,317.167 85,314.5C 86.016,315.634 86.6827,315.301 87,313.5C 88.4411,314.26 89.9411,314.926 91.5,315.5C 93.2047,313.697 95.038,313.031 97,313.5C 99.267,314.289 101.6,314.956 104,315.5C 109.107,315.649 114.107,315.316 119,314.5C 120.482,316.781 122.149,316.781 124,314.5C 126.333,315.833 128.667,315.833 131,314.5C 131.689,315.357 132.522,316.023 133.5,316.5C 136.702,315.873 139.869,315.206 143,314.5C 143.308,315.308 143.808,315.975 144.5,316.5C 145.541,314.009 146.374,314.009 147,316.5C 149.242,314.673 151.575,313.006 154,311.5C 154.833,312.5 155.667,313.5 156.5,314.5C 157.833,313.167 159.167,313.167 160.5,314.5C 161.243,313.092 162.077,311.759 163,310.5C 163.483,311.448 163.649,312.448 163.5,313.5C 171.193,313.489 178.86,313.489 186.5,313.5C 187.167,312.833 187.833,312.167 188.5,311.5C 189.749,313.475 191.249,313.809 193,312.5C 193.308,313.308 193.808,313.975 194.5,314.5C 196.5,313.833 198.5,313.167 200.5,312.5C 201.167,313.167 201.833,313.833 202.5,314.5C 203.833,313.5 205.167,312.5 206.5,311.5C 209.818,314.427 213.318,314.094 217,310.5C 217.777,312.215 219.11,313.215 221,313.5C 224.78,314.194 228.447,315.194 232,316.5C 233.117,315.051 233.784,313.384 234,311.5C 234.956,312.579 235.789,313.745 236.5,315C 239,315.167 241.5,315.333 244,315.5C 256.667,315.295 269.167,315.295 281.5,315.5C 284.325,315.881 286.491,314.881 288,312.5C 289.011,313.337 290.178,313.67 291.5,313.5C 291.5,312.167 291.5,310.833 291.5,309.5C 288.921,309.917 286.754,309.25 285,307.5C 283.874,308.944 282.374,309.61 280.5,309.5C 278.404,308.74 276.404,308.74 274.5,309.5C 273.833,308.833 273.167,308.167 272.5,307.5C 267.395,309.945 262.228,309.945 257,307.5C 255.184,309.441 253.184,310.108 251,309.5C 250.311,308.643 249.478,307.977 248.5,307.5C 246.89,308.552 245.223,308.552 243.5,307.5C 237.66,309.37 231.994,310.037 226.5,309.5C 225.167,308.833 223.833,308.167 222.5,307.5C 221.167,308.167 219.833,308.833 218.5,309.5C 217.808,308.975 217.308,308.308 217,307.5C 216.259,308.641 215.425,308.641 214.5,307.5C 212.5,310.167 210.5,310.167 208.5,307.5C 207.377,308.544 206.044,309.21 204.5,309.5C 200.281,308.648 196.281,307.981 192.5,307.5C 191.833,308.167 191.167,308.833 190.5,309.5C 189.28,308.289 188.113,308.289 187,309.5C 186.044,308.106 184.711,307.439 183,307.5C 179.866,308.521 176.699,308.521 173.5,307.5C 170.486,307.258 167.986,308.258 166,310.5C 165.646,308.193 164.646,307.859 163,309.5C 159.322,308.462 155.822,307.795 152.5,307.5C 151.459,309.991 150.626,309.991 150,307.5C 147.802,309.375 145.969,309.375 144.5,307.5C 143.5,308.833 142.5,308.833 141.5,307.5C 139.407,309.243 137.24,309.91 135,309.5C 133.559,308.74 132.059,308.074 130.5,307.5C 128.598,309.151 126.598,309.484 124.5,308.5C 122.781,311.048 121.448,310.715 120.5,307.5C 118.744,308.407 116.911,308.407 115,307.5C 111.992,307.746 109.326,308.746 107,310.5C 103.755,309.685 100.588,309.352 97.5,309.5C 96.1667,310.167 94.8333,310.833 93.5,311.5C 91.4584,309.287 89.125,308.62 86.5,309.5C 83.5823,306.887 80.749,306.887 78,309.5C 74.7555,308.428 71.5888,307.428 68.5,306.5C 145.137,305.167 221.804,305.167 298.5,306.5C 299.298,306.043 299.631,305.376 299.5,304.5C 300.5,304.5 301.5,304.5 302.5,304.5C 302.297,306.044 301.63,307.378 300.5,308.5C 301.902,309.842 301.569,310.676 299.5,311C 301.269,312.019 302.936,312.186 304.5,311.5C 305.395,313.307 306.728,314.64 308.5,315.5C 309.647,315.182 310.481,314.516 311,313.5C 311.464,314.094 311.631,314.761 311.5,315.5C 311.389,316.117 311.056,316.617 310.5,317C 224.263,317.832 138.097,317.665 52,316.5C 51.3333,221.833 51.3333,127.167 52,32.5C 137.763,31.5016 223.596,31.1682 309.5,31.5 Z"
       id="path28" />
  </g>
  <g
     id="g29">
    <path
       style="opacity:1"
       fill="#c2d2c9"
       d="M 819.5,31.5 C 820.338,31.8417 820.672,32.5084 820.5,33.5C 818.72,35.136 817.053,35.3026 815.5,34C 652.5,33.3333 489.5,33.3333 326.5,34C 326,34.5 325.5,35 325,35.5C 324.167,129.502 324.333,223.502 325.5,317.5C 326.527,316.209 327.527,316.209 328.5,317.5C 329.263,318.268 330.263,318.768 331.5,319C 337.416,319.19 343.249,319.69 349,320.5C 356.547,319.591 363.88,319.591 371,320.5C 388.281,318.149 405.781,318.149 423.5,320.5C 434.666,319.805 445.166,319.805 455,320.5C 457.333,319.833 459.667,319.167 462,318.5C 467.668,319.168 473.668,319.168 480,318.5C 481.667,319.167 483.333,319.833 485,320.5C 508.742,319.54 531.409,319.54 553,320.5C 557,319.833 561,319.167 565,318.5C 570.349,319.997 575.849,320.664 581.5,320.5C 600.777,320.451 620.111,320.285 639.5,320C 645.748,319.812 651.915,319.312 658,318.5C 669.97,318.808 682.136,319.474 694.5,320.5C 708.4,319.367 722.233,319.367 736,320.5C 742.333,319.833 748.667,319.167 755,318.5C 764.42,318.911 774.253,319.245 784.5,319.5C 793.712,319.638 802.712,318.971 811.5,317.5C 811.833,317.5 812.167,317.5 812.5,317.5C 815.533,317.132 818.2,317.798 820.5,319.5C 819.22,320.931 817.553,321.598 815.5,321.5C 651.753,321.997 488.086,321.497 324.5,320C 323.501,223.904 323.168,127.737 323.5,31.5C 488.833,31.5 654.167,31.5 819.5,31.5 Z"
       id="path29" />
  </g>
  <g
     id="g30">
    <path
       style="opacity:1"
       fill="#b6ccc0"
       d="M 328.5,317.5 C 489.5,317.5 650.5,317.5 811.5,317.5C 802.712,318.971 793.712,319.638 784.5,319.5C 774.253,319.245 764.42,318.911 755,318.5C 748.667,319.167 742.333,319.833 736,320.5C 722.233,319.367 708.4,319.367 694.5,320.5C 682.136,319.474 669.97,318.808 658,318.5C 651.915,319.312 645.748,319.812 639.5,320C 620.111,320.285 600.777,320.451 581.5,320.5C 575.849,320.664 570.349,319.997 565,318.5C 561,319.167 557,319.833 553,320.5C 531.409,319.54 508.742,319.54 485,320.5C 483.333,319.833 481.667,319.167 480,318.5C 473.668,319.168 467.668,319.168 462,318.5C 459.667,319.167 457.333,319.833 455,320.5C 445.166,319.805 434.666,319.805 423.5,320.5C 405.781,318.149 388.281,318.149 371,320.5C 363.88,319.591 356.547,319.591 349,320.5C 343.249,319.69 337.416,319.19 331.5,319C 330.263,318.768 329.263,318.268 328.5,317.5 Z"
       id="path30" />
  </g>
  <g
     id="g31"
     style="fill:#ffffff;fill-opacity:1"
     transform="matrix(1.1956988,0,0,1.4754149,-101.95905,-171.74129)">
    <path
       style="opacity:1;fill:#ffffff;fill-opacity:1"
       fill="#4d4e4e"
       d="m 370.5,347.5 c 1.3,1.723 1.967,3.89 2,6.5 -0.167,2.167 -0.333,4.333 -0.5,6.5 -0.181,-3.195 -0.681,-6.195 -1.5,-9 -3.032,-0.395 -6.032,0.438 -9,2.5 -1.85,2.018 -3.85,3.851 -6,5.5 -0.333,-0.5 -0.667,-1 -1,-1.5 3.797,-5.739 9.13,-9.239 16,-10.5 z"
       id="path31" />
  </g>
  <g
     id="g32"
     style="fill:#ffffff;fill-opacity:1"
     transform="matrix(1.1956988,0,0,1.4754149,-101.95905,-171.74129)">
    <path
       style="opacity:1;fill:#ffffff;fill-opacity:1"
       fill="#919191"
       d="m 580.5,366.5 c -0.237,1.291 0.096,2.291 1,3 0,1 0,2 0,3 1,0 2,0 3,0 -1.068,0.934 -2.401,1.268 -4,1 -1.414,-3.89 -2.58,-7.89 -3.5,-12 -0.183,2.865 -0.683,5.531 -1.5,8 0.169,-6.687 0.669,-13.354 1.5,-20 1.011,-0.837 2.178,-1.17 3.5,-1 -0.163,6.224 -0.163,12.224 0,18 z"
       id="path32" />
  </g>
  <g
     id="g33"
     style="fill:#ffffff;fill-opacity:1"
     transform="matrix(1.1956988,0,0,1.4754149,-101.95905,-171.74129)">
    <path
       style="opacity:1;fill:#ffffff;fill-opacity:1"
       fill="#3d3b3b"
       d="m 488.5,352.5 c 6.827,-0.675 9.66,2.325 8.5,9 -0.645,-5.514 -3.478,-7.514 -8.5,-6 -3.378,2.858 -3.878,6.191 -1.5,10 2.618,4.951 6.284,8.951 11,12 0.346,-1.718 0.846,-3.385 1.5,-5 0.667,-1.333 1.333,-1.333 2,0 -2.77,3.929 -2.437,7.596 1,11 -0.167,0.333 -0.333,0.667 -0.5,1 -0.689,-0.857 -1.522,-1.523 -2.5,-2 -2.15,1.649 -4.15,3.482 -6,5.5 -7.55,2.721 -11.883,0.054 -13,-8 0.864,-4.388 2.531,-8.388 5,-12 -1.366,-3.412 -1.866,-6.912 -1.5,-10.5 1.366,-1.862 2.866,-3.528 4.5,-5 z"
       id="path33" />
  </g>
  <g
     id="g34"
     style="fill:#ffffff;fill-opacity:1"
     transform="matrix(1.1956988,0,0,1.4754149,-101.95905,-171.74129)">
    <path
       style="opacity:1;fill:#ffffff;fill-opacity:1"
       fill="#1a1a19"
       d="m 426.5,357.5 c 1,0 2,0 3,0 0,1 0,2 0,3 -1,0 -2,0 -3,0 0,-1 0,-2 0,-3 z"
       id="path34" />
  </g>
  <g
     id="g35"
     style="fill:#ffffff;fill-opacity:1"
     transform="matrix(1.1956988,0,0,1.4754149,-101.95905,-171.74129)">
    <path
       style="opacity:1;fill:#ffffff;fill-opacity:1"
       fill="#777877"
       d="m 370.5,347.5 c 0.709,-0.904 1.709,-1.237 3,-1 0,6 0,12 0,18 -1.109,0.057 -2.109,0.39 -3,1 0,-4.667 0,-9.333 0,-14 0.819,2.805 1.319,5.805 1.5,9 0.167,-2.167 0.333,-4.333 0.5,-6.5 -0.033,-2.61 -0.7,-4.777 -2,-6.5 z"
       id="path35" />
  </g>
  <g
     id="g36"
     style="fill:#ffffff;fill-opacity:1"
     transform="matrix(1.1956988,0,0,1.4754149,-101.95905,-171.74129)">
    <path
       style="opacity:1;fill:#ffffff;fill-opacity:1"
       fill="#444343"
       d="m 370.5,365.5 c 0.891,-0.61 1.891,-0.943 3,-1 2.758,1.548 5.258,1.215 7.5,-1 0.143,-4.119 0.81,-8.119 2,-12 4.667,-5.333 9.333,-5.333 14,0 1.297,4.617 0.13,8.45 -3.5,11.5 -2.708,1.069 -5.375,2.236 -8,3.5 -1.16,3.959 -1.327,7.959 -0.5,12 1.525,2.587 3.692,3.42 6.5,2.5 4.07,-4.138 7.403,-8.805 10,-14 3.036,-2.006 6.369,-2.84 10,-2.5 0,1 0,2 0,3 -7.467,-0.694 -11.3,2.639 -11.5,10 2.369,2.408 4.869,2.408 7.5,0 1.59,-2.18 2.924,-4.513 4,-7 1.009,3.561 2.843,6.561 5.5,9 4.595,-3.511 7.429,-8.178 8.5,-14 1,0 2,0 3,0 0,4.333 0,8.667 0,13 1.967,0.239 3.801,-0.094 5.5,-1 1.333,-2 2.667,-4 4,-6 0.529,-2.085 0.029,-3.918 -1.5,-5.5 0.167,-1.5 1,-2.333 2.5,-2.5 2.828,1.751 5.495,3.751 8,6 1.118,3.355 2.618,6.522 4.5,9.5 2.461,-0.408 4.794,-1.074 7,-2 -1.227,2.729 -3.227,4.562 -6,5.5 -1.529,-0.029 -2.696,-0.696 -3.5,-2 -1.139,-3.083 -2.472,-6.083 -4,-9 -0.739,-1.074 -1.739,-1.741 -3,-2 -2.156,2.301 -3.822,4.967 -5,8 -7.079,7.224 -10.912,5.557 -11.5,-5 -1.681,4.392 -4.514,7.725 -8.5,10 -2.296,-1.128 -4.129,-2.795 -5.5,-5 -1.859,1.692 -3.859,3.192 -6,4.5 -3.68,0.682 -6.18,-0.818 -7.5,-4.5 -5.521,7.936 -10.855,7.936 -16,0 -0.246,-3.39 -0.746,-6.723 -1.5,-10 -2.688,-1.297 -5.188,-0.964 -7.5,1 0.197,7.071 -1.97,13.237 -6.5,18.5 -6.828,2.386 -10.494,0.053 -11,-7 0.115,-2.732 0.948,-5.232 2.5,-7.5 4.061,-2.774 8.228,-5.108 12.5,-7 z"
       id="path36" />
  </g>
  <g
     id="g37"
     style="fill:#ffffff;fill-opacity:1"
     transform="matrix(1.1956988,0,0,1.4754149,-101.95905,-171.74129)">
    <path
       style="opacity:1;fill:#000000;fill-opacity:1"
       fill="#f5f5f5"
       d="m 388.5,350.5 c 5.656,0.367 7.489,3.367 5.5,9 -2.995,2.61 -6.495,3.943 -10.5,4 -1.127,-5.586 0.54,-9.919 5,-13 z"
       id="path37" />
  </g>
  <g
     id="g38"
     style="fill:#ffffff;fill-opacity:1"
     transform="matrix(1.1956988,0,0,1.4754149,-101.95905,-171.74129)">
    <path
       style="opacity:1;fill:#ffffff;fill-opacity:1"
       fill="#585858"
       d="m 530.5,349.5 c 3.562,0.064 5.229,1.897 5,5.5 -1.482,7.782 -4.149,15.116 -8,22 2.138,3.831 5.138,4.497 9,2 2.203,-3.611 4.036,-7.444 5.5,-11.5 5.766,-4.513 10.433,-3.513 14,3 1.833,-1.833 3.667,-3.667 5.5,-5.5 4.774,-1.361 8.274,0.139 10.5,4.5 2.381,7.165 0.048,11.832 -7,14 -3.775,-0.765 -6.775,-2.765 -9,-6 -1.833,1.833 -3.667,3.667 -5.5,5.5 -4.273,0.284 -7.939,-1.216 -11,-4.5 -5.442,6.919 -10.276,6.585 -14.5,-1 -0.839,-7.067 -0.506,-14.067 1,-21 1.012,-2.702 2.512,-5.035 4.5,-7 z"
       id="path38" />
  </g>
  <g
     id="g39"
     style="fill:#ffffff;fill-opacity:1"
     transform="matrix(1.1956988,0,0,1.4754149,-101.95905,-171.74129)">
    <path
       style="opacity:1;fill:#000000;fill-opacity:1"
       fill="#f1f0f0"
       d="m 531.5,352.5 c 1.069,5.626 -0.097,10.96 -3.5,16 -1.255,-5.926 -0.088,-11.259 3.5,-16 z"
       id="path39" />
  </g>
  <g
     id="g40"
     style="fill:#ffffff;fill-opacity:1"
     transform="matrix(1.1956988,0,0,1.4754149,-101.95905,-171.74129)">
    <path
       style="opacity:1;fill:#000000;fill-opacity:1"
       fill="#f5f6f5"
       d="m 545.5,367.5 c 6.814,-0.01 9.314,3.323 7.5,10 -3.333,4 -6.667,4 -10,0 -1.139,-3.921 -0.305,-7.254 2.5,-10 z"
       id="path40" />
  </g>
  <g
     id="g41"
     style="fill:#ffffff;fill-opacity:1"
     transform="matrix(1.1956988,0,0,1.4754149,-101.95905,-171.74129)">
    <path
       style="opacity:1;fill:#000000;fill-opacity:1"
       fill="#f4f4f4"
       d="m 562.5,367.5 c 6.224,-0.222 8.724,2.778 7.5,9 -5.507,5.831 -9.34,4.831 -11.5,-3 0.17,-2.826 1.503,-4.826 4,-6 z"
       id="path41" />
  </g>
  <g
     id="g42"
     style="fill:#ffffff;fill-opacity:1"
     transform="matrix(1.1956988,0,0,1.4754149,-101.95905,-171.74129)">
    <path
       style="opacity:1;fill:#000000;fill-opacity:1"
       fill="#f2f1f0"
       d="m 368.5,368.5 c 2.764,6.131 1.43,11.631 -4,16.5 -5.254,0.371 -7.421,-2.129 -6.5,-7.5 2.489,-4.332 5.989,-7.332 10.5,-9 z"
       id="path42" />
  </g>
  <g
     id="g43"
     style="fill:#ffffff;fill-opacity:1"
     transform="matrix(1.1956988,0,0,1.4754149,-101.95905,-171.74129)">
    <path
       style="opacity:1;fill:#000000;fill-opacity:1"
       fill="#f2f0f0"
       d="m 485.5,371.5 c 1.373,-0.157 2.707,0.01 4,0.5 3.675,3.203 5.842,7.036 6.5,11.5 -6.858,6.416 -11.024,5.083 -12.5,-4 0.09,-2.836 0.757,-5.503 2,-8 z"
       id="path43" />
  </g>
  <g
     id="g44"
     style="fill:#ffffff;fill-opacity:1"
     transform="matrix(1.1956988,0,0,1.4754149,-101.95905,-171.74129)">
    <path
       style="opacity:1;fill:#ffffff;fill-opacity:1"
       fill="#616161"
       d="m 584.5,372.5 c 2.824,-0.489 4.157,-2.156 4,-5 -2.688,-0.334 -5.021,0.332 -7,2 -0.904,-0.709 -1.237,-1.709 -1,-3 4.21,-4.325 7.877,-3.992 11,1 -1.259,5.259 -4.592,7.926 -10,8 0.444,5.653 3.444,7.486 9,5.5 1.333,-1.333 2.667,-2.667 4,-4 1.135,-0.749 2.135,-0.583 3,0.5 -4.055,6.386 -9.389,8.053 -16,5 -0.781,-1.229 -1.281,-2.562 -1.5,-4 -2.137,1.821 -2.97,4.154 -2.5,7 -3.939,0.322 -4.772,-1.011 -2.5,-4 0.499,-3.986 0.666,-7.986 0.5,-12 0.817,-2.469 1.317,-5.135 1.5,-8 0.92,4.11 2.086,8.11 3.5,12 1.599,0.268 2.932,-0.066 4,-1 z"
       id="path44" />
  </g>
  <g
     id="g45"
     style="fill:#ffffff;fill-opacity:1"
     transform="matrix(1.1956988,0,0,1.4754149,-101.95905,-171.74129)">
    <path
       style="opacity:1;fill:#000000;fill-opacity:1"
       fill="#f0f1f0"
       d="m 584.5,372.5 c -1,0 -2,0 -3,0 0,-1 0,-2 0,-3 1.979,-1.668 4.312,-2.334 7,-2 0.157,2.844 -1.176,4.511 -4,5 z"
       id="path45" />
  </g>
  <path
     style="fill:#f2faf5;fill-opacity:1"
     d="m 819.60264,133.48041 c -0.8173,-0.0908 -2.45191,-0.27244 -3.90491,-0.35028 -1.45301,-0.0779 -2.72435,-0.0519 -4.15141,0.11673 -1.42705,0.16865 -3.00974,0.48 -4.26814,0.80433 -1.2584,0.32433 -2.19245,0.66162 -3.20437,1.1546 -1.01191,0.49299 -2.10163,1.14164 -3.06165,1.76435 -0.96002,0.62272 -1.79028,1.21947 -2.65949,2.03679 -0.86921,0.81731 -1.77731,1.85514 -2.46489,2.6984 -0.68758,0.84326 -1.1546,1.4919 -1.67353,2.21841 -0.51893,0.7265 -1.08973,1.53081 -1.4919,2.46489 -0.40217,0.93407 -0.63568,1.99785 -0.80434,2.97084 -0.16865,0.97299 -0.27243,1.85515 -0.32433,2.60759 -0.0519,0.75245 -0.0519,1.37515 -0.0389,2.06273 0.013,0.68759 0.0389,1.44001 0.14268,2.2703 0.10378,0.83029 0.2854,1.73839 0.48,2.59463 0.19459,0.85623 0.40216,1.66054 0.70054,2.47786 0.29839,0.81731 0.68758,1.64758 1.12867,2.49084 0.44109,0.84326 0.93406,1.69947 1.49191,2.54273 0.55785,0.84326 1.18055,1.67352 1.69948,2.33516 0.51893,0.66163 0.93406,1.1546 1.51786,1.71245 0.58379,0.55785 1.33622,1.18055 2.24435,1.81623 0.90813,0.63569 1.9719,1.28433 3.03571,1.933 1.0638,0.64866 2.12758,1.2973 3.38598,2.08867 1.25841,0.79137 2.71137,1.72542 4.02167,2.54273 1.3103,0.81732 2.47785,1.51785 3.51571,2.15354 1.03786,0.63569 1.94596,1.20649 2.49083,1.5438 0.54488,0.3373 0.7265,0.44108 0.94705,0.46702 0.22054,0.0259 0.47999,-0.0259 0.67459,-0.11675 0.1946,-0.0908 0.32433,-0.22054 0.41514,-0.40217 0.0908,-0.18163 0.14271,-0.41514 0.12973,-0.8692 -0.013,-0.45407 -0.0908,-1.12866 -0.15568,-1.7384 -0.0649,-0.60974 -0.11676,-1.1546 -0.18162,-1.79029 -0.0649,-0.63569 -0.1427,-1.36217 -0.23352,-2.17948 -0.0908,-0.81732 -0.19459,-1.72542 -0.27243,-2.47787 -0.0778,-0.75245 -0.12973,-1.3492 -0.18162,-1.92002 -0.0519,-0.57082 -0.10379,-1.11568 -0.15568,-1.59569 -0.0519,-0.48001 -0.10379,-0.89514 -0.15568,-1.32326 -0.0519,-0.42812 -0.10379,-0.8692 -0.29838,-1.2065 -0.1946,-0.3373 -0.5319,-0.57081 -0.84326,-0.80433 -0.31135,-0.23352 -0.59676,-0.46703 -0.90812,-0.71352 -0.31135,-0.2465 -0.64865,-0.50595 -0.94703,-0.71353 -0.29839,-0.20757 -0.55784,-0.36324 -0.83028,-0.55784 -0.27244,-0.1946 -0.55784,-0.42811 -0.96001,-0.68758 -0.40218,-0.25946 -0.92109,-0.54486 -1.33623,-0.8173 -0.41515,-0.27244 -0.7265,-0.5319 -1.05083,-0.77839 -0.32433,-0.24649 -0.66162,-0.48 -1.02487,-0.71352 -0.36325,-0.23352 -0.75244,-0.46703 -1.10272,-0.71353 -0.35027,-0.24649 -0.66162,-0.50594 -0.94704,-0.75243 -0.28541,-0.24649 -0.54487,-0.48 -0.76541,-0.70055 -0.22055,-0.22054 -0.40216,-0.42811 -0.68758,-0.66163 -0.28541,-0.23352 -0.67459,-0.49297 -0.97298,-0.76541 -0.29838,-0.27244 -0.50595,-0.55785 -0.7265,-0.85623 -0.22054,-0.29838 -0.45405,-0.60973 -0.66162,-0.90811 -0.20757,-0.29839 -0.3892,-0.5838 -0.64866,-1.06381 -0.25947,-0.48001 -0.59676,-1.1546 -0.80431,-1.50486 -0.20754,-0.35026 -0.28544,-0.37621 -0.38922,-0.66161 -0.10378,-0.28541 -0.23351,-0.83027 -0.32432,-1.29731 -0.0908,-0.46703 -0.14271,-0.85622 -0.18162,-1.27136 -0.0389,-0.41515 -0.0648,-0.85622 -0.0778,-1.24542 -0.013,-0.3892 -0.013,-0.72649 0.0778,-1.2065 0.0908,-0.48002 0.27244,-1.10271 0.44109,-1.59569 0.16865,-0.49299 0.32433,-0.85623 0.60974,-1.34921 0.28541,-0.49299 0.70054,-1.11568 1.25839,-1.81624 0.55785,-0.70056 1.25839,-1.47893 1.98489,-2.15353 0.7265,-0.67461 1.47892,-1.24542 2.29624,-1.79029 0.81731,-0.54488 1.69947,-1.0638 2.47786,-1.46597 0.7784,-0.40217 1.45299,-0.68757 2.16652,-0.98595 0.71352,-0.29839 1.46595,-0.60974 2.38705,-0.89515 0.9211,-0.28541 2.01082,-0.54487 2.85408,-0.73946 0.84326,-0.1946 1.44001,-0.32433 1.86813,-0.38919 0.42811,-0.0649 0.68757,-0.0649 0.70054,-0.25947 0.013,-0.1946 -0.22054,-0.58379 -0.3373,-0.77838 -0.11676,-0.1946 -0.11675,-0.1946 -0.93406,-0.28541 z"
     id="path48"
     inkscape:path-effect="#path-effect48"
     inkscape:original-d="m 820.41995,133.57122 c -1.63461,-0.18163 -3.26922,-0.36325 -4.90383,-0.54487 -1.2714,0.0259 -2.54274,0.0519 -3.8141,0.0778 -1.58275,0.31136 -3.16544,0.62271 -4.74816,0.93406 -0.93408,0.33731 -1.86813,0.6746 -2.8022,1.0119 -1.08976,0.64867 -2.17948,1.29732 -3.26922,1.94597 -0.8303,0.59678 -1.66056,1.19353 -2.49084,1.79029 -0.90814,1.03787 -1.81624,2.0757 -2.72435,3.11355 -0.46705,0.64867 -0.93407,1.29731 -1.4011,1.94597 -0.57083,0.80435 -1.14163,1.60866 -1.71245,2.413 -0.23352,1.06381 -0.46703,2.12759 -0.70055,3.19138 -0.10379,0.88219 -0.20757,1.76435 -0.31136,2.64652 0,0.62272 0,1.24542 0,1.86813 0.0259,0.75246 0.0519,1.50488 0.0778,2.25732 0.18163,0.90814 0.36325,1.81624 0.54487,2.72436 0.20758,0.80435 0.41514,1.60866 0.62271,2.413 0.38921,0.83029 0.77839,1.66056 1.16758,2.49083 0.49299,0.85625 0.98596,1.71246 1.47894,2.56868 0.62272,0.8303 1.24542,1.66056 1.86813,2.49084 0.41515,0.49299 0.83028,0.98596 1.24542,1.47894 0.75245,0.62272 1.50488,1.24542 2.25732,1.86812 1.06382,0.64867 2.12759,1.29732 3.19139,1.94597 1.06381,0.64867 2.12759,1.29731 3.19138,1.94597 1.45302,0.93408 2.90598,1.86813 4.35897,2.80219 1.16761,0.70057 2.33516,1.4011 3.50274,2.10165 0.90814,0.57083 1.81624,1.14163 2.72436,1.71245 0.18163,0.10379 0.36325,0.20757 0.54487,0.31135 0.25947,-0.0519 0.51892,-0.10378 0.77839,-0.15567 0.12973,-0.12974 0.25946,-0.25946 0.38919,-0.3892 0.0519,-0.23352 0.10378,-0.46703 0.15568,-0.70054 -0.0778,-0.67462 -0.15568,-1.34921 -0.23352,-2.02381 -0.0519,-0.54488 -0.10378,-1.08974 -0.15568,-1.63461 -0.0778,-0.72651 -0.15567,-1.45299 -0.23351,-2.17949 -0.10379,-0.90813 -0.20757,-1.81623 -0.31136,-2.72435 -0.0519,-0.59678 -0.10378,-1.19353 -0.15567,-1.79029 -0.0519,-0.54488 -0.10379,-1.08974 -0.15568,-1.63461 -0.0519,-0.41515 -0.10379,-0.83028 -0.15568,-1.24542 -0.0519,-0.4411 -0.10378,-0.88218 -0.15568,-1.32326 -0.3373,-0.23352 -0.6746,-0.46703 -1.0119,-0.70055 -0.28541,-0.23352 -0.57082,-0.46703 -0.85623,-0.70055 -0.3373,-0.25947 -0.6746,-0.51892 -1.0119,-0.77839 -0.25947,-0.15568 -0.51892,-0.31135 -0.77839,-0.46703 -0.28541,-0.23352 -0.57081,-0.46703 -0.85622,-0.70055 -0.51894,-0.28541 -1.03785,-0.57081 -1.55678,-0.85622 -0.31136,-0.25947 -0.62271,-0.51893 -0.93406,-0.77839 -0.33731,-0.23352 -0.6746,-0.46703 -1.0119,-0.70055 -0.3892,-0.23352 -0.77839,-0.46703 -1.16758,-0.70055 -0.31137,-0.25946 -0.62271,-0.51892 -0.93407,-0.77838 -0.25947,-0.23352 -0.51892,-0.46704 -0.77839,-0.70055 -0.18162,-0.20758 -0.36324,-0.41514 -0.54487,-0.62271 -0.3892,-0.25947 -0.77838,-0.51893 -1.16758,-0.77839 -0.20757,-0.28541 -0.41514,-0.57082 -0.62271,-0.85622 -0.23352,-0.31136 -0.46703,-0.62271 -0.70055,-0.93407 -0.18162,-0.28541 -0.36324,-0.57082 -0.54487,-0.85622 -0.3373,-0.67462 -0.6746,-1.34921 -1.0119,-2.02381 -0.0778,-0.0259 -0.15568,-0.0519 -0.23352,-0.0778 -0.12973,-0.54488 -0.25946,-1.08974 -0.38919,-1.63461 -0.0519,-0.3892 -0.10378,-0.77839 -0.15568,-1.16758 -0.0259,-0.4411 -0.0519,-0.88217 -0.0778,-1.32326 0,-0.33731 0,-0.6746 0,-1.0119 0.18162,-0.62273 0.36324,-1.24542 0.54487,-1.86813 0.15568,-0.36326 0.31135,-0.7265 0.46703,-1.08974 0.41515,-0.62273 0.83028,-1.24542 1.24542,-1.86813 0.70056,-0.77841 1.40109,-1.55678 2.10164,-2.33516 0.75246,-0.57083 1.50488,-1.14164 2.25733,-1.71246 0.88218,-0.51893 1.76434,-1.03785 2.64651,-1.55677 0.67462,-0.28541 1.34921,-0.57082 2.02381,-0.85623 0.75245,-0.31136 1.50488,-0.62271 2.25732,-0.93406 1.08976,-0.25947 2.17948,-0.51893 3.26923,-0.77839 0.59677,-0.12973 1.19352,-0.25946 1.79029,-0.38919 0.25946,0 0.51892,0 0.77838,0 -0.23352,-0.3892 -0.46703,-0.77839 -0.70055,-1.16758 z" />
</svg>
