<?xml version="1.0" encoding="UTF-8"?>
<!DOCTYPE svg PUBLIC "-//W3C//DTD SVG 1.1//EN" "http://www.w3.org/Graphics/SVG/1.1/DTD/svg11.dtd">
<svg xmlns="http://www.w3.org/2000/svg" version="1.1" width="100px" height="100px" style="shape-rendering:geometricPrecision; text-rendering:geometricPrecision; image-rendering:optimizeQuality; fill-rule:evenodd; clip-rule:evenodd" xmlns:xlink="http://www.w3.org/1999/xlink">
<g><path style="opacity:0.997" fill="#efefef" d="M 87.5,16.5 C 86.8536,29.212 87.5203,41.5453 89.5,53.5C 90.8333,55.1667 92.1667,56.8333 93.5,58.5C 93.427,60.0269 94.0937,61.0269 95.5,61.5C 100.697,78.6037 95.0307,90.4371 78.5,97C 72.6847,97.8766 67.0181,97.3766 61.5,95.5C 61.0269,94.0937 60.0269,93.427 58.5,93.5C 56.8333,92.1667 55.1667,90.8333 53.5,89.5C 53.3893,88.8826 53.056,88.3826 52.5,88C 39.8377,87.5001 27.1711,87.3334 14.5,87.5C 13.5416,87.0472 12.7083,86.3805 12,85.5C 11.3333,62.1667 11.3333,38.8333 12,15.5C 12.5,15 13,14.5 13.5,14C 37.5,13.3333 61.5,13.3333 85.5,14C 86.3805,14.7083 87.0472,15.5416 87.5,16.5 Z"/></g>
<g><path style="opacity:0.339" fill="#1c1c1a" d="M 87.5,16.5 C 88.1174,16.6107 88.6174,16.944 89,17.5C 89.4999,29.4954 89.6665,41.4954 89.5,53.5C 87.5203,41.5453 86.8536,29.212 87.5,16.5 Z"/></g>
<g><path style="opacity:1" fill="#433c6f" d="M 16.5,18.5 C 38.5,18.5 60.5,18.5 82.5,18.5C 82.3335,30.8378 82.5001,43.1712 83,55.5C 94.2241,64.9099 95.3908,75.4099 86.5,87C 74.9114,95.3791 64.5781,94.0457 55.5,83C 42.5043,82.5001 29.5043,82.3334 16.5,82.5C 16.5,61.1667 16.5,39.8333 16.5,18.5 Z"/></g>
<g><path style="opacity:1" fill="#feb688" d="M 43.5,21.5 C 43.5,25.1667 43.5,28.8333 43.5,32.5C 47.4659,33.1621 51.4659,33.4955 55.5,33.5C 55.5,29.5 55.5,25.5 55.5,21.5C 63.5,21.5 71.5,21.5 79.5,21.5C 79.5,33.1667 79.5,44.8333 79.5,56.5C 61.8333,54.1667 54.1667,61.8333 56.5,79.5C 44.1667,79.5 31.8333,79.5 19.5,79.5C 19.5,60.1667 19.5,40.8333 19.5,21.5C 27.5,21.5 35.5,21.5 43.5,21.5 Z"/></g>
<g><path style="opacity:1" fill="#ffe7d8" d="M 43.5,21.5 C 47.5,21.5 51.5,21.5 55.5,21.5C 55.5,25.5 55.5,29.5 55.5,33.5C 51.4659,33.4955 47.4659,33.1621 43.5,32.5C 43.5,28.8333 43.5,25.1667 43.5,21.5 Z"/></g>
<g><path style="opacity:1" fill="#63a31a" d="M 79.5,56.5 C 92.0992,65.8134 92.7659,75.9801 81.5,87C 70.9124,92.0405 62.579,89.5405 56.5,79.5C 54.1667,61.8333 61.8333,54.1667 79.5,56.5 Z"/></g>
<g><path style="opacity:0.294" fill="#4a4a49" d="M 93.5,58.5 C 94.9063,58.9731 95.573,59.9731 95.5,61.5C 94.0937,61.0269 93.427,60.0269 93.5,58.5 Z"/></g>
<g><path style="opacity:1" fill="#f08937" d="M 27.5,60.5 C 28.8118,61.1451 29.8118,62.1451 30.5,63.5C 29.6258,65.7466 29.2924,68.0799 29.5,70.5C 28.5,70.5 27.5,70.5 26.5,70.5C 26.7076,68.0799 26.3742,65.7466 25.5,63.5C 26.1925,62.4822 26.8592,61.4822 27.5,60.5 Z"/></g>
<g><path style="opacity:1" fill="#f18b3b" d="M 37.5,60.5 C 38.3636,61.6883 39.3636,62.8549 40.5,64C 39.5769,66.0408 39.2436,68.2075 39.5,70.5C 38.1667,70.5 36.8333,70.5 35.5,70.5C 35.6816,68.4086 35.3482,66.4086 34.5,64.5C 35.5244,63.1482 36.5244,61.8149 37.5,60.5 Z"/></g>
<g><path style="opacity:0.297" fill="#1e1e1b" d="M 95.5,61.5 C 97.3417,63.1898 98.675,65.1898 99.5,67.5C 99.5,72.1667 99.5,76.8333 99.5,81.5C 97.8773,85.4005 95.7106,89.0671 93,92.5C 89.4864,95.5001 85.6531,97.8334 81.5,99.5C 76.8333,99.5 72.1667,99.5 67.5,99.5C 65.1898,98.675 63.1898,97.3417 61.5,95.5C 67.0181,97.3766 72.6847,97.8766 78.5,97C 95.0307,90.4371 100.697,78.6037 95.5,61.5 Z"/></g>
<g><path style="opacity:1" fill="#e3e9db" d="M 71.5,65.5 C 72.4959,65.4142 73.3292,65.7476 74,66.5C 74.4935,68.1341 74.6602,69.8008 74.5,71.5C 76.9775,71.0508 78.9775,71.7175 80.5,73.5C 78.9775,75.2825 76.9775,75.9492 74.5,75.5C 74.9492,77.9775 74.2825,79.9775 72.5,81.5C 70.7175,79.9775 70.0508,77.9775 70.5,75.5C 68.0225,75.9492 66.0225,75.2825 64.5,73.5C 66.0225,71.7175 68.0225,71.0508 70.5,71.5C 70.3253,69.3792 70.6586,67.3792 71.5,65.5 Z"/></g>
<g><path style="opacity:1" fill="#f08a38" d="M 24.5,72.5 C 30.1667,72.5 35.8333,72.5 41.5,72.5C 41.5,73.5 41.5,74.5 41.5,75.5C 35.8333,75.5 30.1667,75.5 24.5,75.5C 24.5,74.5 24.5,73.5 24.5,72.5 Z"/></g>
<g><path style="opacity:0.34" fill="#1b1b18" d="M 14.5,87.5 C 27.1711,87.3334 39.8377,87.5001 52.5,88C 53.056,88.3826 53.3893,88.8826 53.5,89.5C 40.8289,89.6666 28.1623,89.4999 15.5,89C 14.944,88.6174 14.6107,88.1174 14.5,87.5 Z"/></g>
<g><path style="opacity:0.294" fill="#484846" d="M 58.5,93.5 C 60.0269,93.427 61.0269,94.0937 61.5,95.5C 59.9731,95.573 58.9731,94.9063 58.5,93.5 Z"/></g>
</svg>
