<?xml version="1.0" encoding="UTF-8"?>
<!DOCTYPE svg PUBLIC "-//W3C//DTD SVG 1.1//EN" "http://www.w3.org/Graphics/SVG/1.1/DTD/svg11.dtd">
<svg xmlns="http://www.w3.org/2000/svg" version="1.1" width="100px" height="100px" style="shape-rendering:geometricPrecision; text-rendering:geometricPrecision; image-rendering:optimizeQuality; fill-rule:evenodd; clip-rule:evenodd" xmlns:xlink="http://www.w3.org/1999/xlink">
<g><path style="opacity:0.978" fill="#eeeeef" d="M 80.5,13.5 C 80.427,15.0269 81.0937,16.0269 82.5,16.5C 84.2868,20.9805 85.4535,25.6471 86,30.5C 86.3826,31.056 86.8826,31.3893 87.5,31.5C 89.3089,36.9537 88.4756,41.9537 85,46.5C 84.7435,49.557 84.2435,52.557 83.5,55.5C 84.325,56.3857 85.325,56.719 86.5,56.5C 90.0944,58.4237 93.0944,61.0904 95.5,64.5C 98.0886,70.6993 98.0886,76.866 95.5,83C 93.2852,84.0438 90.9519,84.7105 88.5,85C 81.0609,97.5349 70.7275,100.702 57.5,94.5C 56.5,93.8333 55.5,93.1667 54.5,92.5C 54.3893,91.8826 54.056,91.3826 53.5,91C 36.8367,90.5001 20.17,90.3334 3.5,90.5C 2.53128,89.6906 1.69794,88.6906 1,87.5C -1.34855,78.5637 0.818112,71.0637 7.5,65C 11.0607,63.3903 14.3941,61.557 17.5,59.5C 16.9017,58.2054 16.4017,56.8721 16,55.5C 11.522,52.8315 9.35534,48.8315 9.5,43.5C 11.5298,37.6744 13.0298,31.6744 14,25.5C 20.2239,12.8586 30.2239,8.52523 44,12.5C 52.3071,4.71691 61.8071,2.88358 72.5,7C 75.7874,8.46746 78.4541,10.6341 80.5,13.5 Z"/></g>
<g><path style="opacity:1" fill="#453d71" d="M 56.5,10.5 C 72.6163,9.11874 80.4496,16.4521 80,32.5C 84.4175,35.8898 84.5841,39.5565 80.5,43.5C 80.6695,49.3114 78.6695,54.1447 74.5,58C 78.3849,59.8532 82.3849,61.5198 86.5,63C 92.2464,67.0849 93.9131,72.4182 91.5,79C 88.854,79.4974 86.1873,79.6641 83.5,79.5C 81.9688,87.6908 76.9688,92.0241 68.5,92.5C 63.5189,92.1756 59.5189,90.009 56.5,86C 39.5928,85.8258 22.7595,85.3258 6,84.5C 4.12588,77.9888 5.95921,72.8221 11.5,69C 15.7225,67.0558 20.0558,65.3892 24.5,64C 25.0219,63.4387 25.3552,62.772 25.5,62C 22.6508,55.2024 18.9841,49.0357 14.5,43.5C 14.6917,41.143 15.8584,39.4763 18,38.5C 17.3941,22.7714 24.8941,15.6047 40.5,17C 41.8168,18.6591 43.4835,19.8257 45.5,20.5C 48.5888,16.4055 52.2555,13.0722 56.5,10.5 Z"/></g>
<g><path style="opacity:0.322" fill="#4b4b4b" d="M 80.5,13.5 C 81.9063,13.9731 82.573,14.9731 82.5,16.5C 81.0937,16.0269 80.427,15.0269 80.5,13.5 Z"/></g>
<g><path style="opacity:0.191" fill="#050505" d="M 82.5,16.5 C 86.1459,20.7147 87.8126,25.7147 87.5,31.5C 86.8826,31.3893 86.3826,31.056 86,30.5C 85.4535,25.6471 84.2868,20.9805 82.5,16.5 Z"/></g>
<g><path style="opacity:1" fill="#f0d0bb" d="M 69.5,53.5 C 63.968,55.086 58.6347,54.7527 53.5,52.5C 53.5,52.1667 53.5,51.8333 53.5,51.5C 57.0834,46.9086 57.4168,42.0753 54.5,37C 55.2156,34.2077 55.5489,31.3743 55.5,28.5C 60.5734,27.279 64.4067,24.279 67,19.5C 68.6104,23.4435 71.2771,26.4435 75,28.5C 75.3333,30.8333 75.6667,33.1667 76,35.5C 77.3985,36.0509 78.7318,36.3842 80,36.5C 80.3423,40.3197 78.509,41.9864 74.5,41.5C 74.3732,46.2321 72.7065,50.2321 69.5,53.5 Z"/></g>
<g><path style="opacity:1" fill="#b49ca0" d="M 55.5,28.5 C 55.5489,31.3743 55.2156,34.2077 54.5,37C 57.4168,42.0753 57.0834,46.9086 53.5,51.5C 52.8333,50.8333 52.1667,50.1667 51.5,49.5C 53.3907,47.1643 53.8907,44.4976 53,41.5C 52.3292,40.7476 51.4959,40.4142 50.5,40.5C 52.1432,36.6995 52.8099,32.6995 52.5,28.5C 53.5,28.5 54.5,28.5 55.5,28.5 Z"/></g>
<g><path style="opacity:0.278" fill="#0c0c0c" d="M 87.5,31.5 C 91.5119,37.4875 91.3453,43.4875 87,49.5C 86.5034,51.8098 86.3367,54.1432 86.5,56.5C 85.325,56.719 84.325,56.3857 83.5,55.5C 84.2435,52.557 84.7435,49.557 85,46.5C 88.4756,41.9537 89.3089,36.9537 87.5,31.5 Z"/></g>
<g><path style="opacity:1" fill="#4b4273" d="M 51.5,49.5 C 52.1667,50.1667 52.8333,50.8333 53.5,51.5C 53.5,51.8333 53.5,52.1667 53.5,52.5C 53.5,54.1667 53.5,55.8333 53.5,57.5C 50.6789,58.0954 48.3455,56.9287 46.5,54C 47.3802,52.6439 47.7135,51.1439 47.5,49.5C 48.8333,49.5 50.1667,49.5 51.5,49.5 Z"/></g>
<g><path style="opacity:1" fill="#b9a0a3" d="M 53.5,52.5 C 58.6347,54.7527 63.968,55.086 69.5,53.5C 69.5,54.1667 69.5,54.8333 69.5,55.5C 64.3797,59.7318 59.5463,59.3985 55,54.5C 54.7679,55.7375 54.2679,56.7375 53.5,57.5C 53.5,55.8333 53.5,54.1667 53.5,52.5 Z"/></g>
<g><path style="opacity:1" fill="#eccebc" d="M 50.5,40.5 C 51.4959,40.4142 52.3292,40.7476 53,41.5C 53.8907,44.4976 53.3907,47.1643 51.5,49.5C 50.1667,49.5 48.8333,49.5 47.5,49.5C 47.7135,51.1439 47.3802,52.6439 46.5,54C 48.3455,56.9287 50.6789,58.0954 53.5,57.5C 54.2679,56.7375 54.7679,55.7375 55,54.5C 59.5463,59.3985 64.3797,59.7318 69.5,55.5C 69.0283,58.3579 70.0283,60.3579 72.5,61.5C 71.8333,62.5 71.1667,63.5 70.5,64.5C 67.3084,64.4045 64.3084,65.0712 61.5,66.5C 58.8915,66.5997 56.5582,65.9331 54.5,64.5C 53.34,59.9868 50.6733,58.6534 46.5,60.5C 44.0882,60.6941 43.0882,62.0274 43.5,64.5C 44.791,64.2627 45.791,64.596 46.5,65.5C 44.6398,70.6003 40.9731,72.9336 35.5,72.5C 30.5289,73.0219 27.1955,71.0219 25.5,66.5C 26.4959,66.5858 27.3292,66.2524 28,65.5C 29.1154,61.5155 28.1154,58.1822 25,55.5C 24.4888,53.1218 23.8221,50.7885 23,48.5C 20.2853,48.0459 18.452,46.5459 17.5,44C 17.6301,42.9412 18.1301,42.1079 19,41.5C 20,42.8333 21,42.8333 22,41.5C 23.2022,39.3225 23.7022,36.9892 23.5,34.5C 30.4553,34.5252 36.7886,32.5252 42.5,28.5C 45.8066,31.8176 47.8066,35.8176 48.5,40.5C 49.2565,41.7733 49.9232,41.7733 50.5,40.5 Z"/></g>
<g><path style="opacity:1" fill="#dc221e" d="M 54.5,64.5 C 51.1975,64.0884 48.5309,62.755 46.5,60.5C 50.6733,58.6534 53.34,59.9868 54.5,64.5 Z"/></g>
<g><path style="opacity:1" fill="#ad343f" d="M 46.5,60.5 C 48.5309,62.755 51.1975,64.0884 54.5,64.5C 56.5582,65.9331 58.8915,66.5997 61.5,66.5C 60.8333,67.8333 59.8333,68.8333 58.5,69.5C 54.7146,67.5715 50.7146,66.2382 46.5,65.5C 45.791,64.596 44.791,64.2627 43.5,64.5C 43.0882,62.0274 44.0882,60.6941 46.5,60.5 Z"/></g>
<g><path style="opacity:1" fill="#da1916" d="M 72.5,61.5 C 77.0138,62.4208 81.3471,63.9208 85.5,66C 88.8705,68.6973 90.2038,72.1973 89.5,76.5C 86.8333,76.5 84.1667,76.5 81.5,76.5C 80.6145,69.948 76.9479,65.948 70.5,64.5C 71.1667,63.5 71.8333,62.5 72.5,61.5 Z"/></g>
<g><path style="opacity:1" fill="#61a415" d="M 70.5,64.5 C 76.9479,65.948 80.6145,69.948 81.5,76.5C 80.4274,86.069 75.0941,90.2356 65.5,89C 62.0386,87.6954 59.372,85.5287 57.5,82.5C 56.044,78.0265 56.3773,73.6932 58.5,69.5C 59.8333,68.8333 60.8333,67.8333 61.5,66.5C 64.3084,65.0712 67.3084,64.4045 70.5,64.5 Z"/></g>
<g><path style="opacity:1" fill="#2382d1" d="M 46.5,65.5 C 50.7146,66.2382 54.7146,67.5715 58.5,69.5C 56.3773,73.6932 56.044,78.0265 57.5,82.5C 41.1667,82.5 24.8333,82.5 8.5,82.5C 7.79618,78.1973 9.12951,74.6973 12.5,72C 16.8216,70.0619 21.1549,68.2286 25.5,66.5C 27.1955,71.0219 30.5289,73.0219 35.5,72.5C 40.9731,72.9336 44.6398,70.6003 46.5,65.5 Z"/></g>
<g><path style="opacity:0.28" fill="#080808" d="M 95.5,64.5 C 97.0737,65.9842 98.407,67.6508 99.5,69.5C 99.5,74.1667 99.5,78.8333 99.5,83.5C 97.1224,85.9205 94.1224,87.0872 90.5,87C 87.5651,92.7712 83.2317,96.9379 77.5,99.5C 73.1667,99.5 68.8333,99.5 64.5,99.5C 61.6733,98.5812 59.34,96.9145 57.5,94.5C 70.7275,100.702 81.0609,97.5349 88.5,85C 90.9519,84.7105 93.2852,84.0438 95.5,83C 98.0886,76.866 98.0886,70.6993 95.5,64.5 Z"/></g>
<g><path style="opacity:1" fill="#eef1eb" d="M 68.5,69.5 C 70.2798,70.9899 70.9465,72.9899 70.5,75.5C 72.9775,75.0508 74.9775,75.7175 76.5,77.5C 74.604,78.4656 72.604,78.7989 70.5,78.5C 70.5,80.5 70.5,82.5 70.5,84.5C 69.5,84.5 68.5,84.5 67.5,84.5C 67.5,82.5 67.5,80.5 67.5,78.5C 65.396,78.7989 63.396,78.4656 61.5,77.5C 63.0225,75.7175 65.0225,75.0508 67.5,75.5C 67.3253,73.3792 67.6586,71.3792 68.5,69.5 Z"/></g>
<g><path style="opacity:0.34" fill="#000000" d="M 3.5,90.5 C 20.17,90.3334 36.8367,90.5001 53.5,91C 54.056,91.3826 54.3893,91.8826 54.5,92.5C 38.1633,92.6666 21.8299,92.4999 5.5,92C 4.5842,91.7216 3.91753,91.2216 3.5,90.5 Z"/></g>
</svg>
