<?xml version="1.0" encoding="UTF-8"?>
<!DOCTYPE svg PUBLIC "-//W3C//DTD SVG 1.1//EN" "http://www.w3.org/Graphics/SVG/1.1/DTD/svg11.dtd">
<svg xmlns="http://www.w3.org/2000/svg" version="1.1" width="100px" height="100px" style="shape-rendering:geometricPrecision; text-rendering:geometricPrecision; image-rendering:optimizeQuality; fill-rule:evenodd; clip-rule:evenodd" xmlns:xlink="http://www.w3.org/1999/xlink">
<g><path style="opacity:0.965" fill="#ececed" d="M 75.5,16.5 C 77.0685,22.3602 77.9018,28.3602 78,34.5C 78.3826,35.056 78.8826,35.3893 79.5,35.5C 80.3382,35.8417 80.6716,36.5084 80.5,37.5C 81.787,45.498 79.1204,51.6647 72.5,56C 74.1341,56.4935 75.8008,56.6602 77.5,56.5C 84.6107,56.3876 89.944,59.3876 93.5,65.5C 93.427,67.0269 94.0937,68.0269 95.5,68.5C 98.5,90.1667 89.1667,99.5 67.5,96.5C 66.5084,96.6716 65.8417,96.3382 65.5,95.5C 65.3893,94.8826 65.056,94.3826 64.5,94C 46.8365,93.5001 29.1698,93.3334 11.5,93.5C 7.36026,88.8697 6.86026,83.5364 10,77.5C 11.7932,74.7047 13.9598,72.2047 16.5,70C 21.5044,68.1645 26.1711,65.8312 30.5,63C 29.2765,57.7701 26.4432,53.6034 22,50.5C 18.9936,44.4028 19.3269,38.7362 23,33.5C 21.0496,22.2368 24.5496,13.0701 33.5,6C 41.5101,2.66357 49.8434,1.66357 58.5,3C 62.8981,6.39428 67.5648,9.39428 72.5,12C 73.8825,13.2708 74.8825,14.7708 75.5,16.5 Z"/></g>
<g><path style="opacity:1" fill="#463e71" d="M 43.5,7.5 C 54.8841,6.44255 64.0508,10.4426 71,19.5C 71.9057,21.7438 72.4057,24.0772 72.5,26.5C 71.7762,29.8275 71.6096,33.1608 72,36.5C 75.78,39.5057 76.4467,43.1723 74,47.5C 72.7365,49.607 70.9032,50.607 68.5,50.5C 68.0202,55.126 66.1868,59.126 63,62.5C 62.2025,64.2588 62.3691,65.9255 63.5,67.5C 74.6373,58.2381 83.8039,59.9048 91,72.5C 92.4023,84.2638 87.2356,90.9304 75.5,92.5C 72.0632,92.4479 69.0632,91.2813 66.5,89C 48.8365,88.5001 31.1698,88.3334 13.5,88.5C 13.1776,82.9773 15.1776,78.4773 19.5,75C 25.6411,71.9263 31.9744,69.4263 38.5,67.5C 36.251,61.9853 34.251,56.3187 32.5,50.5C 27.8743,49.6971 25.541,46.8638 25.5,42C 26.0242,39.1568 27.3576,36.8235 29.5,35C 25.8877,21.3879 30.5544,12.2212 43.5,7.5 Z"/></g>
<g><path style="opacity:0.269" fill="#050505" d="M 75.5,16.5 C 77.4095,17.9746 78.5762,19.9746 79,22.5C 79.499,26.8206 79.6657,31.1539 79.5,35.5C 78.8826,35.3893 78.3826,35.056 78,34.5C 77.9018,28.3602 77.0685,22.3602 75.5,16.5 Z"/></g>
<g><path style="opacity:1" fill="#fcc5a2" d="M 59.5,62.5 C 53.483,65.0761 47.483,65.0761 41.5,62.5C 37.5475,58.7428 35.3808,54.0762 35,48.5C 29.3661,47.5598 27.6994,44.5598 30,39.5C 31.0113,40.3366 32.1779,40.67 33.5,40.5C 33.6741,38.139 34.0074,35.8056 34.5,33.5C 39.8893,32.6531 45.2227,31.4864 50.5,30C 54.2743,28.6981 57.441,26.5314 60,23.5C 64.1744,28.483 66.6744,34.1497 67.5,40.5C 71.5379,38.6981 73.0379,40.0314 72,44.5C 70.7135,47.1446 68.5468,48.1446 65.5,47.5C 65.4366,53.2909 63.4366,58.2909 59.5,62.5 Z"/></g>
<g><path style="opacity:0.283" fill="#040404" d="M 80.5,37.5 C 83.7486,44.3411 82.7486,50.6745 77.5,56.5C 75.8008,56.6602 74.1341,56.4935 72.5,56C 79.1204,51.6647 81.787,45.498 80.5,37.5 Z"/></g>
<g><path style="opacity:1" fill="#c09991" d="M 41.5,63.5 C 41.5,63.1667 41.5,62.8333 41.5,62.5C 47.483,65.0761 53.483,65.0761 59.5,62.5C 59.5,62.8333 59.5,63.1667 59.5,63.5C 53.5932,70.1417 47.5932,70.1417 41.5,63.5 Z"/></g>
<g><path style="opacity:1" fill="#fbc5a3" d="M 41.5,63.5 C 47.5932,70.1417 53.5932,70.1417 59.5,63.5C 59.5,65.1667 59.5,66.8333 59.5,68.5C 57.9932,72.764 54.8265,74.764 50,74.5C 47.2682,74.3852 44.7682,73.5519 42.5,72C 41.6634,70.9887 41.33,69.8221 41.5,68.5C 41.5,66.8333 41.5,65.1667 41.5,63.5 Z"/></g>
<g><path style="opacity:1" fill="#95c164" d="M 66.5,85.5 C 63.0461,80.6722 62.7128,75.6722 65.5,70.5C 71.878,62.8609 78.7114,62.5276 86,69.5C 90.7819,82.4376 86.2819,88.9376 72.5,89C 70.3083,88.074 68.3083,86.9073 66.5,85.5 Z"/></g>
<g><path style="opacity:0.278" fill="#282828" d="M 93.5,65.5 C 94.9063,65.9731 95.573,66.9731 95.5,68.5C 94.0937,68.0269 93.427,67.0269 93.5,65.5 Z"/></g>
<g><path style="opacity:0.267" fill="#040404" d="M 95.5,68.5 C 101.972,82.4163 98.3055,92.7496 84.5,99.5C 80.1667,99.5 75.8333,99.5 71.5,99.5C 69.9236,98.8571 68.5903,97.8571 67.5,96.5C 89.1667,99.5 98.5,90.1667 95.5,68.5 Z"/></g>
<g><path style="opacity:1" fill="#71bdfc" d="M 41.5,68.5 C 41.33,69.8221 41.6634,70.9887 42.5,72C 44.7682,73.5519 47.2682,74.3852 50,74.5C 54.8265,74.764 57.9932,72.764 59.5,68.5C 61.1417,70.0808 63.1417,70.7475 65.5,70.5C 62.7128,75.6722 63.0461,80.6722 66.5,85.5C 49.82,85.8328 33.1533,85.4995 16.5,84.5C 17.5466,81.5698 19.2132,79.0698 21.5,77C 28.3082,74.4273 34.9748,71.594 41.5,68.5 Z"/></g>
<g><path style="opacity:1" fill="#eef0ec" d="M 74.5,69.5 C 75.5,69.5 76.5,69.5 77.5,69.5C 77.5,71.5 77.5,73.5 77.5,75.5C 79.5,75.5 81.5,75.5 83.5,75.5C 83.5,76.5 83.5,77.5 83.5,78.5C 81.5,78.5 79.5,78.5 77.5,78.5C 77.5,80.5 77.5,82.5 77.5,84.5C 76.5,84.5 75.5,84.5 74.5,84.5C 74.5,82.5 74.5,80.5 74.5,78.5C 72.5,78.5 70.5,78.5 68.5,78.5C 68.5,77.5 68.5,76.5 68.5,75.5C 70.5,75.5 72.5,75.5 74.5,75.5C 74.5,73.5 74.5,71.5 74.5,69.5 Z"/></g>
<g><path style="opacity:0.34" fill="#010101" d="M 11.5,93.5 C 29.1698,93.3334 46.8365,93.5001 64.5,94C 65.056,94.3826 65.3893,94.8826 65.5,95.5C 48.1635,95.6666 30.8301,95.4999 13.5,95C 12.5842,94.7216 11.9175,94.2216 11.5,93.5 Z"/></g>
</svg>
