<?xml version="1.0" encoding="UTF-8"?>
<!DOCTYPE svg PUBLIC "-//W3C//DTD SVG 1.1//EN" "http://www.w3.org/Graphics/SVG/1.1/DTD/svg11.dtd">
<svg xmlns="http://www.w3.org/2000/svg" version="1.1" width="100px" height="100px" style="shape-rendering:geometricPrecision; text-rendering:geometricPrecision; image-rendering:optimizeQuality; fill-rule:evenodd; clip-rule:evenodd" xmlns:xlink="http://www.w3.org/1999/xlink">
<g><path style="opacity:0.961" fill="#ebebec" d="M 38.5,-0.5 C 44.1667,-0.5 49.8333,-0.5 55.5,-0.5C 60.3224,3.41096 65.3224,7.07763 70.5,10.5C 70.427,12.0269 71.0937,13.0269 72.5,13.5C 74.1346,19.3292 74.9679,25.3292 75,31.5C 75.3826,32.056 75.8826,32.3893 76.5,32.5C 77.3382,32.8417 77.6716,33.5084 77.5,34.5C 78.787,42.498 76.1204,48.6647 69.5,53C 71.1341,53.4935 72.8008,53.6602 74.5,53.5C 82.6973,53.2086 89.364,56.2086 94.5,62.5C 93.9078,65.6305 94.9078,67.9639 97.5,69.5C 98.5,89.1667 89.1667,98.5 69.5,97.5C 68.0101,95.7202 66.0101,95.0535 63.5,95.5C 62.1667,94.5 60.8333,93.5 59.5,92.5C 59.3893,91.8826 59.056,91.3826 58.5,91C 41.8367,90.5001 25.17,90.3334 8.5,90.5C 3.46962,81.4984 5.13628,73.665 13.5,67C 18.5044,65.1645 23.1711,62.8312 27.5,60C 26.2765,54.7701 23.4432,50.6034 19,47.5C 16.6913,41.5891 17.0246,35.9224 20,30.5C 18.0677,14.9926 24.2343,4.65927 38.5,-0.5 Z"/></g>
<g><path style="opacity:1" fill="#453e71" d="M 40.5,4.5 C 51.8841,3.44255 61.0508,7.44255 68,16.5C 68.9057,18.7438 69.4057,21.0772 69.5,23.5C 68.7762,26.8275 68.6096,30.1608 69,33.5C 72.78,36.5057 73.4467,40.1723 71,44.5C 69.7365,46.607 67.9032,47.607 65.5,47.5C 63.749,53.3187 61.749,58.9853 59.5,64.5C 64.8999,62.6231 70.2332,60.6231 75.5,58.5C 78.8632,60.1191 82.5298,61.2858 86.5,62C 87.3333,62.8333 88.1667,63.6667 89,64.5C 89.0475,67.3294 90.0475,69.6627 92,71.5C 92.6667,74.1667 92.6667,76.8333 92,79.5C 90.1294,80.9973 89.1294,82.9973 89,85.5C 86.1614,88.2456 82.9948,90.4123 79.5,92C 76.8333,92.6667 74.1667,92.6667 71.5,92C 70.9535,91.0754 70.2868,90.2421 69.5,89.5C 68.2322,90.4279 66.8989,90.5946 65.5,90C 64.1667,88.6667 62.8333,87.3333 61.5,86C 44.5033,85.5001 27.5033,85.3334 10.5,85.5C 10.1776,79.9773 12.1776,75.4773 16.5,72C 22.6411,68.9263 28.9744,66.4263 35.5,64.5C 33.251,58.9853 31.251,53.3187 29.5,47.5C 25.0919,46.7532 22.7586,44.0866 22.5,39.5C 23.2359,36.3001 24.5692,33.4668 26.5,31C 23.1795,17.8028 27.8461,8.9695 40.5,4.5 Z"/></g>
<g><path style="opacity:0.251" fill="#414141" d="M 70.5,10.5 C 71.9063,10.9731 72.573,11.9731 72.5,13.5C 71.0937,13.0269 70.427,12.0269 70.5,10.5 Z"/></g>
<g><path style="opacity:0.273" fill="#030303" d="M 72.5,13.5 C 74.4095,14.9746 75.5762,16.9746 76,19.5C 76.499,23.8206 76.6657,28.1539 76.5,32.5C 75.8826,32.3893 75.3826,32.056 75,31.5C 74.9679,25.3292 74.1346,19.3292 72.5,13.5 Z"/></g>
<g><path style="opacity:1" fill="#fcc4a2" d="M 56.5,59.5 C 50.483,62.0761 44.483,62.0761 38.5,59.5C 34.5528,55.3341 32.5528,50.3341 32.5,44.5C 26.4183,44.6595 24.585,41.9928 27,36.5C 28.0113,37.3366 29.1779,37.67 30.5,37.5C 30.0325,34.6205 30.8659,32.2871 33,30.5C 37.8493,29.4127 42.6826,28.246 47.5,27C 51.2743,25.6981 54.441,23.5314 57,20.5C 61.1855,25.4891 63.6855,31.1558 64.5,37.5C 68.5379,35.6981 70.0379,37.0314 69,41.5C 67.7135,44.1446 65.5468,45.1446 62.5,44.5C 62.4472,50.3341 60.4472,55.3341 56.5,59.5 Z"/></g>
<g><path style="opacity:0.286" fill="#050505" d="M 77.5,34.5 C 80.7486,41.3411 79.7486,47.6745 74.5,53.5C 72.8008,53.6602 71.1341,53.4935 69.5,53C 76.1204,48.6647 78.787,42.498 77.5,34.5 Z"/></g>
<g><path style="opacity:1" fill="#c09991" d="M 38.5,60.5 C 38.5,60.1667 38.5,59.8333 38.5,59.5C 44.483,62.0761 50.483,62.0761 56.5,59.5C 56.5,59.8333 56.5,60.1667 56.5,60.5C 50.5932,67.1417 44.5932,67.1417 38.5,60.5 Z"/></g>
<g><path style="opacity:1" fill="#fbc6a4" d="M 38.5,60.5 C 44.5932,67.1417 50.5932,67.1417 56.5,60.5C 56.5,62.1667 56.5,63.8333 56.5,65.5C 54.062,67.5346 51.3953,69.2013 48.5,70.5C 47.8333,70.5 47.1667,70.5 46.5,70.5C 43.6047,69.2013 40.938,67.5346 38.5,65.5C 38.5,63.8333 38.5,62.1667 38.5,60.5 Z"/></g>
<g><path style="opacity:1" fill="#71bcfb" d="M 63.5,83.5 C 65.2132,82.3646 65.8799,80.698 65.5,78.5C 64.1667,78.5 62.8333,78.5 61.5,78.5C 61.5,76.5 61.5,74.5 61.5,72.5C 65.2838,72.4747 66.2838,70.8081 64.5,67.5C 66.0497,64.3892 68.383,63.5559 71.5,65C 72.3366,63.9887 72.67,62.8221 72.5,61.5C 74.5,61.5 76.5,61.5 78.5,61.5C 78.3505,62.552 78.5172,63.552 79,64.5C 80.7866,65.3431 82.6199,65.5098 84.5,65C 85.3567,65.6891 86.0233,66.5224 86.5,67.5C 84.7261,70.8497 85.7261,72.5164 89.5,72.5C 89.5,74.5 89.5,76.5 89.5,78.5C 88.448,78.3505 87.448,78.5172 86.5,79C 85.6569,80.7866 85.4902,82.6199 86,84.5C 85.3109,85.3567 84.4776,86.0233 83.5,86.5C 80.1503,84.7261 78.4836,85.7261 78.5,89.5C 76.5,89.5 74.5,89.5 72.5,89.5C 72.0408,85.1798 70.2075,84.5132 67,87.5C 65.6244,86.2949 64.4577,84.9616 63.5,83.5 Z"/></g>
<g><path style="opacity:0.163" fill="#272727" d="M 94.5,62.5 C 96.8176,64.1852 97.8176,66.5185 97.5,69.5C 94.9078,67.9639 93.9078,65.6305 94.5,62.5 Z"/></g>
<g><path style="opacity:1" fill="#2c59a0" d="M 37.5,66.5 C 39.5592,71.0099 41.2259,75.6766 42.5,80.5C 42.8333,81.1667 43.1667,81.8333 43.5,82.5C 33.4778,82.8319 23.4778,82.4985 13.5,81.5C 14.5466,78.5698 16.2132,76.0698 18.5,74C 24.8175,71.3955 31.1509,68.8955 37.5,66.5 Z"/></g>
<g><path style="opacity:1" fill="#d2e5f7" d="M 38.5,65.5 C 40.938,67.5346 43.6047,69.2013 46.5,70.5C 43.5703,71.7007 42.9036,73.7007 44.5,76.5C 44.3318,78.1705 43.6651,79.5039 42.5,80.5C 41.2259,75.6766 39.5592,71.0099 37.5,66.5C 37.5,65.8333 37.8333,65.5 38.5,65.5 Z"/></g>
<g><path style="opacity:1" fill="#d2e4f7" d="M 56.5,65.5 C 57.1667,65.5 57.5,65.8333 57.5,66.5C 55.4408,71.0099 53.7741,75.6766 52.5,80.5C 50.2549,78.5829 49.9215,76.2496 51.5,73.5C 50.6602,72.265 49.6602,71.265 48.5,70.5C 51.3953,69.2013 54.062,67.5346 56.5,65.5 Z"/></g>
<g><path style="opacity:1" fill="#2e5ba3" d="M 57.5,66.5 C 59.6914,68.3535 62.0248,68.6868 64.5,67.5C 66.2838,70.8081 65.2838,72.4747 61.5,72.5C 61.5,74.5 61.5,76.5 61.5,78.5C 62.8333,78.5 64.1667,78.5 65.5,78.5C 65.8799,80.698 65.2132,82.3646 63.5,83.5C 59.6002,82.5701 55.6002,82.2367 51.5,82.5C 51.8333,81.8333 52.1667,81.1667 52.5,80.5C 53.7741,75.6766 55.4408,71.0099 57.5,66.5 Z"/></g>
<g><path style="opacity:0.291" fill="#020202" d="M 97.5,69.5 C 98.1667,69.8333 98.8333,70.1667 99.5,70.5C 99.5,74.8333 99.5,79.1667 99.5,83.5C 96.5,91.1667 91.1667,96.5 83.5,99.5C 79.5,99.5 75.5,99.5 71.5,99.5C 70.8333,98.8333 70.1667,98.1667 69.5,97.5C 89.1667,98.5 98.5,89.1667 97.5,69.5 Z"/></g>
<g><path style="opacity:1" fill="#9da6e7" d="M 46.5,70.5 C 47.1667,70.5 47.8333,70.5 48.5,70.5C 49.6602,71.265 50.6602,72.265 51.5,73.5C 49.9215,76.2496 50.2549,78.5829 52.5,80.5C 52.1667,81.1667 51.8333,81.8333 51.5,82.5C 48.8333,82.5 46.1667,82.5 43.5,82.5C 43.1667,81.8333 42.8333,81.1667 42.5,80.5C 43.6651,79.5039 44.3318,78.1705 44.5,76.5C 42.9036,73.7007 43.5703,71.7007 46.5,70.5 Z"/></g>
<g><path style="opacity:1" fill="#d3ebff" d="M 73.5,70.5 C 80.8211,71.3193 82.1545,74.486 77.5,80C 70.075,79.4845 68.7416,76.3178 73.5,70.5 Z"/></g>
<g><path style="opacity:0.34" fill="#000000" d="M 8.5,90.5 C 25.17,90.3334 41.8367,90.5001 58.5,91C 59.056,91.3826 59.3893,91.8826 59.5,92.5C 43.1633,92.6666 26.8299,92.4999 10.5,92C 9.5842,91.7216 8.91753,91.2216 8.5,90.5 Z"/></g>
<g><path style="opacity:0.244" fill="#080808" d="M 63.5,95.5 C 66.0101,95.0535 68.0101,95.7202 69.5,97.5C 66.9899,97.9465 64.9899,97.2798 63.5,95.5 Z"/></g>
</svg>
