<?xml version="1.0" encoding="UTF-8"?>
<!DOCTYPE svg PUBLIC "-//W3C//DTD SVG 1.1//EN" "http://www.w3.org/Graphics/SVG/1.1/DTD/svg11.dtd">
<svg xmlns="http://www.w3.org/2000/svg" version="1.1" width="100px" height="100px" style="shape-rendering:geometricPrecision; text-rendering:geometricPrecision; image-rendering:optimizeQuality; fill-rule:evenodd; clip-rule:evenodd" xmlns:xlink="http://www.w3.org/1999/xlink">
<g><path style="opacity:0.977" fill="#eeeeee" d="M 42.5,23.5 C 41.9898,26.3878 42.6565,28.7211 44.5,30.5C 59.5037,30.3334 74.5037,30.5001 89.5,31C 90.6906,31.6979 91.6906,32.5313 92.5,33.5C 92.6665,43.8387 92.4998,54.172 92,64.5C 91.6258,65.4162 91.1258,66.2496 90.5,67C 74.5956,68.4696 58.5956,68.9696 42.5,68.5C 43.2382,76.9587 39.5715,79.9587 31.5,77.5C 23.5045,69.6718 15.3379,62.0052 7,54.5C 5.57834,51.9699 5.24501,49.3033 6,46.5C 14.1126,38.3874 22.2792,30.2208 30.5,22C 34.99,19.6666 38.99,20.1666 42.5,23.5 Z"/></g>
<g><path style="opacity:0.268" fill="#000000" d="M 42.5,23.5 C 44.1628,25.4385 44.8294,27.7718 44.5,30.5C 42.6565,28.7211 41.9898,26.3878 42.5,23.5 Z"/></g>
<g><path style="opacity:1" fill="#433c6f" d="M 34.5,25.5 C 35.5,25.5 36.5,25.5 37.5,25.5C 37.5,28.8333 37.5,32.1667 37.5,35.5C 53.8367,35.3334 70.1701,35.5001 86.5,36C 87.8333,45 87.8333,54 86.5,63C 70.1701,63.4999 53.8367,63.6666 37.5,63.5C 37.5,66.8333 37.5,70.1667 37.5,73.5C 36.448,73.6495 35.448,73.4828 34.5,73C 26.6256,64.9581 18.6256,57.1248 10.5,49.5C 18.8273,41.8394 26.8273,33.8394 34.5,25.5 Z"/></g>
<g><path style="opacity:1" fill="#60a316" d="M 33.5,30.5 C 34.21,32.8927 34.8767,35.3927 35.5,38C 51.8299,38.4999 68.1633,38.6666 84.5,38.5C 84.5,45.8333 84.5,53.1667 84.5,60.5C 68.1633,60.3334 51.8299,60.5001 35.5,61C 34.7256,63.405 34.2256,65.905 34,68.5C 27.6255,61.9578 21.1255,55.6245 14.5,49.5C 21.1606,43.5061 27.4939,37.1727 33.5,30.5 Z"/></g>
<g><path style="opacity:0.327" fill="#040404" d="M 92.5,33.5 C 93.2216,33.9175 93.7216,34.5842 94,35.5C 94.6667,46.1667 94.6667,56.8333 94,67.5C 93.6924,68.3081 93.1924,68.9747 92.5,69.5C 76.5478,70.4848 60.5478,70.8181 44.5,70.5C 45.5069,78.3278 42.1735,81.4944 34.5,80C 33.0577,79.6232 32.0577,78.7899 31.5,77.5C 39.5715,79.9587 43.2382,76.9587 42.5,68.5C 58.5956,68.9696 74.5956,68.4696 90.5,67C 91.1258,66.2496 91.6258,65.4162 92,64.5C 92.4998,54.172 92.6665,43.8387 92.5,33.5 Z"/></g>
</svg>
