<?xml version="1.0" encoding="UTF-8"?>
<!DOCTYPE svg PUBLIC "-//W3C//DTD SVG 1.1//EN" "http://www.w3.org/Graphics/SVG/1.1/DTD/svg11.dtd">
<svg xmlns="http://www.w3.org/2000/svg" version="1.1" width="100px" height="100px" style="shape-rendering:geometricPrecision; text-rendering:geometricPrecision; image-rendering:optimizeQuality; fill-rule:evenodd; clip-rule:evenodd" xmlns:xlink="http://www.w3.org/1999/xlink">
<g><path style="opacity:0.96" fill="#e7e7e8" d="M 48.5,16.5 C 48.5,20.5 48.5,24.5 48.5,28.5C 49.5,28.5 50.5,28.5 51.5,28.5C 64.4272,30.1272 74.7606,36.1272 82.5,46.5C 82.427,48.0269 83.0937,49.0269 84.5,49.5C 84.427,51.0269 85.0937,52.0269 86.5,52.5C 87.3382,52.8417 87.6716,53.5084 87.5,54.5C 90.3573,62.0953 92.3573,69.9286 93.5,78C 92.584,83.7517 89.2507,86.2517 83.5,85.5C 82.2058,84.7101 81.0391,83.7101 80,82.5C 79.0427,75.3975 75.5427,70.0641 69.5,66.5C 63.1872,62.5013 56.1872,60.5013 48.5,60.5C 48.6653,64.1817 48.4986,67.8484 48,71.5C 45.8038,74.1252 42.9705,75.1252 39.5,74.5C 39.0269,73.0937 38.0269,72.427 36.5,72.5C 28.5172,66.5142 20.8506,60.1809 13.5,53.5C 12.4154,51.4131 10.7488,50.0798 8.5,49.5C 5.85617,47.484 5.02283,44.8173 6,41.5C 8.79049,38.0086 11.9572,34.842 15.5,32C 23.348,26.2414 31.0146,20.2414 38.5,14C 42.4631,12.8634 45.7964,13.6967 48.5,16.5 Z"/></g>
<g><path style="opacity:0.184" fill="#131313" d="M 48.5,16.5 C 49.9663,17.347 50.7996,18.6803 51,20.5C 51.4974,23.146 51.6641,25.8127 51.5,28.5C 50.5,28.5 49.5,28.5 48.5,28.5C 48.5,24.5 48.5,20.5 48.5,16.5 Z"/></g>
<g><path style="opacity:1" fill="#474270" d="M 40.5,18.5 C 41.5,18.5 42.5,18.5 43.5,18.5C 43.5,23.5 43.5,28.5 43.5,33.5C 69.483,35.4801 84.1496,49.4801 87.5,75.5C 86.1469,81.9398 84.9802,81.6065 84,74.5C 78.4828,63.8063 69.6494,57.6396 57.5,56C 52.8627,55.1706 48.196,54.6706 43.5,54.5C 43.8275,59.544 43.4941,64.544 42.5,69.5C 32.6904,62.1911 23.0237,54.6911 13.5,47C 12.4258,46.2613 11.7591,45.2613 11.5,44C 21.1391,35.5066 30.8058,27.0066 40.5,18.5 Z"/></g>
<g><path style="opacity:1" fill="#60a118" d="M 39.5,23.5 C 40.3238,27.3123 40.8238,31.3123 41,35.5C 56.6326,35.4826 68.9659,41.8159 78,54.5C 80.5263,58.193 81.8597,62.193 82,66.5C 78.3338,61.5164 73.5005,58.0164 67.5,56C 58.8187,52.8566 49.9853,51.6899 41,52.5C 40.6667,56.5 40.3333,60.5 40,64.5C 31.8333,57.6667 23.6667,50.8333 15.5,44C 23.6917,37.3019 31.6917,30.4686 39.5,23.5 Z"/></g>
<g><path style="opacity:0.275" fill="#3a3a3a" d="M 82.5,46.5 C 83.9063,46.9731 84.573,47.9731 84.5,49.5C 83.0937,49.0269 82.427,48.0269 82.5,46.5 Z"/></g>
<g><path style="opacity:0.792" fill="#7e7e7e" d="M 8.5,49.5 C 10.7488,50.0798 12.4154,51.4131 13.5,53.5C 11.2512,52.9202 9.58457,51.5869 8.5,49.5 Z"/></g>
<g><path style="opacity:0.125" fill="#1f1f1f" d="M 84.5,49.5 C 85.9063,49.9731 86.573,50.9731 86.5,52.5C 85.0937,52.0269 84.427,51.0269 84.5,49.5 Z"/></g>
<g><path style="opacity:0.24" fill="#080808" d="M 87.5,54.5 C 92.2258,62.2018 94.8925,70.7018 95.5,80C 94.9943,87.0528 91.3277,89.3862 84.5,87C 83.944,86.6174 83.6107,86.1174 83.5,85.5C 89.2507,86.2517 92.584,83.7517 93.5,78C 92.3573,69.9286 90.3573,62.0953 87.5,54.5 Z"/></g>
<g><path style="opacity:0.25" fill="#0a0a0a" d="M 69.5,66.5 C 63.6606,64.5407 57.6606,63.2074 51.5,62.5C 51.812,66.6746 51.1453,70.6746 49.5,74.5C 47.9788,75.9373 46.1454,76.604 44,76.5C 41.9919,76.6932 40.4919,76.0265 39.5,74.5C 42.9705,75.1252 45.8038,74.1252 48,71.5C 48.4986,67.8484 48.6653,64.1817 48.5,60.5C 56.1872,60.5013 63.1872,62.5013 69.5,66.5 Z"/></g>
<g><path style="opacity:0.353" fill="#565656" d="M 36.5,72.5 C 38.0269,72.427 39.0269,73.0937 39.5,74.5C 37.9731,74.573 36.9731,73.9063 36.5,72.5 Z"/></g>
</svg>
