<?xml version="1.0" encoding="UTF-8"?>
<!DOCTYPE svg PUBLIC "-//W3C//DTD SVG 1.1//EN" "http://www.w3.org/Graphics/SVG/1.1/DTD/svg11.dtd">
<svg xmlns="http://www.w3.org/2000/svg" version="1.1" width="100px" height="100px" style="shape-rendering:geometricPrecision; text-rendering:geometricPrecision; image-rendering:optimizeQuality; fill-rule:evenodd; clip-rule:evenodd" xmlns:xlink="http://www.w3.org/1999/xlink">
<g><path style="opacity:0.973" fill="#eeeeee" d="M 80.5,8.5 C 79.865,17.2337 80.5316,25.5671 82.5,33.5C 85.1873,33.3359 87.854,33.5026 90.5,34C 91.6906,34.6979 92.6906,35.5313 93.5,36.5C 93.6666,50.8372 93.4999,65.1705 93,79.5C 92.0975,80.7014 90.9308,81.5348 89.5,82C 81.8406,82.4997 74.1739,82.6664 66.5,82.5C 67.6877,90.3122 64.3544,94.6455 56.5,95.5C 54.7257,95.1132 53.059,94.4465 51.5,93.5C 48.1667,96.1667 44.8333,96.1667 41.5,93.5C 38.1667,96.1667 34.8333,96.1667 31.5,93.5C 28.1667,96.1667 24.8333,96.1667 21.5,93.5C 19.941,94.4465 18.2743,95.1132 16.5,95.5C 13.8172,94.4897 11.1505,93.4897 8.5,92.5C 7.54163,92.0472 6.7083,91.3805 6,90.5C 5.33333,71.1667 5.33333,51.8333 6,32.5C 8.63367,26.7023 13.1337,24.0356 19.5,24.5C 19.334,19.1563 19.5006,13.8229 20,8.5C 22.2513,6.62272 24.7513,5.12272 27.5,4C 41.8333,3.83333 56.1667,3.66667 70.5,3.5C 74.4323,4.13268 77.7656,5.79934 80.5,8.5 Z"/></g>
<g><path style="opacity:1" fill="#423c70" d="M 27.5,9.5 C 43.526,9.57555 59.526,9.90888 75.5,10.5C 75.5,19.8333 75.5,29.1667 75.5,38.5C 79.8333,38.5 84.1667,38.5 88.5,38.5C 88.6666,51.1711 88.4999,63.8377 88,76.5C 79.2511,77.4839 70.4178,77.8172 61.5,77.5C 61.5,81.1667 61.5,84.8333 61.5,88.5C 46.3397,88.764 31.173,89.0973 16,89.5C 14.1049,89.3852 12.4382,88.7185 11,87.5C 10.3333,69.8333 10.3333,52.1667 11,34.5C 14.3344,29.9446 18.8344,28.278 24.5,29.5C 24.3338,23.4908 24.5005,17.4908 25,11.5C 25.9947,10.9341 26.828,10.2674 27.5,9.5 Z"/></g>
<g><path style="opacity:0.336" fill="#1b1b18" d="M 80.5,8.5 C 81.2216,8.91753 81.7216,9.5842 82,10.5C 82.4997,18.1594 82.6664,25.8261 82.5,33.5C 80.5316,25.5671 79.865,17.2337 80.5,8.5 Z"/></g>
<g><path style="opacity:1" fill="#5e8fcb" d="M 72.5,41.5 C 70.1667,41.5 67.8333,41.5 65.5,41.5C 65.6633,39.1432 65.4966,36.8098 65,34.5C 63.4443,32.3652 61.6109,32.0319 59.5,33.5C 49.0131,32.5056 38.3464,32.1722 27.5,32.5C 27.189,25.9102 27.5223,19.4102 28.5,13C 43.1449,12.5097 57.8116,12.3431 72.5,12.5C 72.5,22.1667 72.5,31.8333 72.5,41.5 Z"/></g>
<g><path style="opacity:1" fill="#72bffe" d="M 27.5,32.5 C 38.3464,32.1722 49.0131,32.5056 59.5,33.5C 58.612,36.0545 58.2786,38.7212 58.5,41.5C 58.5,42.8333 58.5,44.1667 58.5,45.5C 58.5,46.8333 58.5,48.1667 58.5,49.5C 58.5,55.1667 58.5,60.8333 58.5,66.5C 58.5,69.1667 58.5,71.8333 58.5,74.5C 58.5,78.5 58.5,82.5 58.5,86.5C 43.5786,86.7108 28.7453,86.3774 14,85.5C 13.3333,68.8333 13.3333,52.1667 14,35.5C 14.8333,34.6667 15.6667,33.8333 16.5,33C 20.1516,32.5014 23.8183,32.3347 27.5,32.5 Z"/></g>
<g><path style="opacity:1" fill="#403a6f" d="M 65.5,41.5 C 63.1667,41.5 60.8333,41.5 58.5,41.5C 58.2786,38.7212 58.612,36.0545 59.5,33.5C 61.6109,32.0319 63.4443,32.3652 65,34.5C 65.4966,36.8098 65.6633,39.1432 65.5,41.5 Z"/></g>
<g><path style="opacity:0.321" fill="#1f1f1c" d="M 93.5,36.5 C 94.2216,36.9175 94.7216,37.5842 95,38.5C 95.8164,53.2115 95.6497,67.8782 94.5,82.5C 93.9747,83.1924 93.3081,83.6924 92.5,84C 84.5069,84.4997 76.5069,84.6664 68.5,84.5C 70.0734,92.5944 66.7401,96.9278 58.5,97.5C 45.1667,97.5 31.8333,97.5 18.5,97.5C 14.5677,96.8673 11.2344,95.2007 8.5,92.5C 11.1505,93.4897 13.8172,94.4897 16.5,95.5C 18.2743,95.1132 19.941,94.4465 21.5,93.5C 24.8333,96.1667 28.1667,96.1667 31.5,93.5C 34.8333,96.1667 38.1667,96.1667 41.5,93.5C 44.8333,96.1667 48.1667,96.1667 51.5,93.5C 53.059,94.4465 54.7257,95.1132 56.5,95.5C 64.3544,94.6455 67.6877,90.3122 66.5,82.5C 74.1739,82.6664 81.8406,82.4997 89.5,82C 90.9308,81.5348 92.0975,80.7014 93,79.5C 93.4999,65.1705 93.6666,50.8372 93.5,36.5 Z"/></g>
<g><path style="opacity:1" fill="#779365" d="M 58.5,41.5 C 60.8333,41.5 63.1667,41.5 65.5,41.5C 65.5,42.8333 65.5,44.1667 65.5,45.5C 63.1667,45.5 60.8333,45.5 58.5,45.5C 58.5,44.1667 58.5,42.8333 58.5,41.5 Z"/></g>
<g><path style="opacity:1" fill="#95c261" d="M 65.5,41.5 C 67.8333,41.5 70.1667,41.5 72.5,41.5C 76.8333,41.5 81.1667,41.5 85.5,41.5C 85.5,52.5 85.5,63.5 85.5,74.5C 78.8333,74.5 72.1667,74.5 65.5,74.5C 65.5,73.1667 65.5,71.8333 65.5,70.5C 69.1667,70.5 72.8333,70.5 76.5,70.5C 76.5,67.1667 78.1667,65.5 81.5,65.5C 81.5,60.5 81.5,55.5 81.5,50.5C 78.1667,50.5 76.5,48.8333 76.5,45.5C 72.8333,45.5 69.1667,45.5 65.5,45.5C 65.5,44.1667 65.5,42.8333 65.5,41.5 Z"/></g>
<g><path style="opacity:1" fill="#d8edff" d="M 20.5,44.5 C 30.5056,44.3335 40.5056,44.5002 50.5,45C 51.8333,46 51.8333,47 50.5,48C 40.5,48.6667 30.5,48.6667 20.5,48C 19.3157,46.8545 19.3157,45.6879 20.5,44.5 Z"/></g>
<g><path style="opacity:1" fill="#407845" d="M 65.5,45.5 C 69.1667,45.5 72.8333,45.5 76.5,45.5C 76.5,48.8333 78.1667,50.5 81.5,50.5C 81.5,55.5 81.5,60.5 81.5,65.5C 78.1667,65.5 76.5,67.1667 76.5,70.5C 72.8333,70.5 69.1667,70.5 65.5,70.5C 65.5,62.1667 65.5,53.8333 65.5,45.5 Z"/></g>
<g><path style="opacity:1" fill="#769265" d="M 58.5,49.5 C 64.6818,52.4072 66.1818,57.0739 63,63.5C 61.871,65.1412 60.371,66.1412 58.5,66.5C 58.5,60.8333 58.5,55.1667 58.5,49.5 Z"/></g>
<g><path style="opacity:1" fill="#8bb95e" d="M 73.5,54.5 C 78.1585,54.0146 79.4919,55.848 77.5,60C 72.7282,60.8104 71.3948,58.9771 73.5,54.5 Z"/></g>
<g><path style="opacity:1" fill="#d7edff" d="M 20.5,56.5 C 24.5138,56.3345 28.5138,56.5012 32.5,57C 33.8333,58 33.8333,59 32.5,60C 28.5,60.6667 24.5,60.6667 20.5,60C 19.3157,58.8545 19.3157,57.6879 20.5,56.5 Z"/></g>
<g><path style="opacity:1" fill="#4d6d57" d="M 58.5,45.5 C 60.8333,45.5 63.1667,45.5 65.5,45.5C 65.5,53.8333 65.5,62.1667 65.5,70.5C 65.5,71.8333 65.5,73.1667 65.5,74.5C 63.1667,74.5 60.8333,74.5 58.5,74.5C 58.5,71.8333 58.5,69.1667 58.5,66.5C 60.371,66.1412 61.871,65.1412 63,63.5C 66.1818,57.0739 64.6818,52.4072 58.5,49.5C 58.5,48.1667 58.5,46.8333 58.5,45.5 Z"/></g>
<g><path style="opacity:1" fill="#d6ecff" d="M 20.5,64.5 C 23.1873,64.3359 25.854,64.5026 28.5,65C 29.8333,66 29.8333,67 28.5,68C 25.8333,68.6667 23.1667,68.6667 20.5,68C 19.3157,66.8545 19.3157,65.6879 20.5,64.5 Z"/></g>
<g><path style="opacity:1" fill="#d7edff" d="M 20.5,72.5 C 24.5138,72.3345 28.5138,72.5012 32.5,73C 33.8333,74 33.8333,75 32.5,76C 28.5,76.6667 24.5,76.6667 20.5,76C 19.3157,74.8545 19.3157,73.6879 20.5,72.5 Z"/></g>
</svg>
