<?xml version="1.0" encoding="UTF-8"?>
<!DOCTYPE svg PUBLIC "-//W3C//DTD SVG 1.1//EN" "http://www.w3.org/Graphics/SVG/1.1/DTD/svg11.dtd">
<svg xmlns="http://www.w3.org/2000/svg" version="1.1" width="100px" height="100px" style="shape-rendering:geometricPrecision; text-rendering:geometricPrecision; image-rendering:optimizeQuality; fill-rule:evenodd; clip-rule:evenodd" xmlns:xlink="http://www.w3.org/1999/xlink">
<g><path style="opacity:0.994" fill="#eaeaeb" d="M 89.5,16.5 C 89.5,21.5 89.5,26.5 89.5,31.5C 90.5,31.5 91.5,31.5 92.5,31.5C 93.5,31.8333 94.1667,32.5 94.5,33.5C 95.4675,36.4453 95.6342,39.4453 95,42.5C 92.1266,55.2011 89.1266,67.8677 86,80.5C 84.0934,84.0096 81.2601,85.1762 77.5,84C 53.2227,78.1783 28.8894,72.6783 4.5,67.5C 2.47266,66.1394 0.805998,64.4727 -0.5,62.5C -0.5,47.8333 -0.5,33.1667 -0.5,18.5C 0.218865,16.9087 1.21886,15.4087 2.5,14C 30.5,13.3333 58.5,13.3333 86.5,14C 87.6906,14.6979 88.6906,15.5313 89.5,16.5 Z"/></g>
<g><path style="opacity:0.192" fill="#0e0e0e" d="M 89.5,16.5 C 90.793,17.842 91.6264,19.5087 92,21.5C 92.4983,24.8168 92.665,28.1501 92.5,31.5C 91.5,31.5 90.5,31.5 89.5,31.5C 89.5,26.5 89.5,21.5 89.5,16.5 Z"/></g>
<g><path style="opacity:1" fill="#453e70" d="M 5.5,18.5 C 31.8333,18.5 58.1667,18.5 84.5,18.5C 84.5,24.1667 84.5,29.8333 84.5,35.5C 86.5,35.8333 88.5,36.1667 90.5,36.5C 87.2855,50.4536 84.2855,64.4536 81.5,78.5C 56.4225,73.4814 31.4225,67.9814 6.5,62C 5.50959,47.5785 5.17626,33.0785 5.5,18.5 Z"/></g>
<g><path style="opacity:1" fill="#95c261" d="M 81.5,37.5 C 81.5,44.8333 81.5,52.1667 81.5,59.5C 80.1667,59.5 78.8333,59.5 77.5,59.5C 62.5,59.5 47.5,59.5 32.5,59.5C 24.8333,59.5 17.1667,59.5 9.5,59.5C 8.50465,47.011 8.17132,34.3443 8.5,21.5C 32.8333,21.5 57.1667,21.5 81.5,21.5C 81.5,26.8333 81.5,32.1667 81.5,37.5 Z"/></g>
<g><path style="opacity:1" fill="#407845" d="M 17.5,25.5 C 35.5,25.5 53.5,25.5 71.5,25.5C 71.5,28.8333 73.1667,30.5 76.5,30.5C 76.5,36.8333 76.5,43.1667 76.5,49.5C 73.1667,49.5 71.5,51.1667 71.5,54.5C 53.5,54.5 35.5,54.5 17.5,54.5C 17.5,51.1667 15.8333,49.5 12.5,49.5C 12.1703,43.1318 12.5037,36.7985 13.5,30.5C 15.9608,29.7086 17.2941,28.0419 17.5,25.5 Z"/></g>
<g><path style="opacity:1" fill="#93c061" d="M 41.5,29.5 C 48.543,29.2114 52.543,32.5447 53.5,39.5C 53.1127,45.6276 49.946,49.2943 44,50.5C 38.1697,49.0451 35.3363,45.2117 35.5,39C 36.1207,34.9175 38.1207,31.7508 41.5,29.5 Z"/></g>
<g><path style="opacity:0.243" fill="#060606" d="M 94.5,33.5 C 95.7899,34.0577 96.6232,35.0577 97,36.5C 95.45,52.3808 92.45,68.0475 88,83.5C 85.3466,86.1941 82.1799,87.0274 78.5,86C 54.1667,80.3333 29.8333,74.6667 5.5,69C 4.94404,68.6174 4.61071,68.1174 4.5,67.5C 28.8894,72.6783 53.2227,78.1783 77.5,84C 81.2601,85.1762 84.0934,84.0096 86,80.5C 89.1266,67.8677 92.1266,55.2011 95,42.5C 95.6342,39.4453 95.4675,36.4453 94.5,33.5 Z"/></g>
<g><path style="opacity:1" fill="#8cba5e" d="M 17.5,36.5 C 22.1585,36.0146 23.4919,37.848 21.5,42C 16.7282,42.8104 15.3948,40.9771 17.5,36.5 Z"/></g>
<g><path style="opacity:1" fill="#8cba5e" d="M 67.5,36.5 C 72.1585,36.0146 73.4919,37.848 71.5,42C 66.7282,42.8104 65.3948,40.9771 67.5,36.5 Z"/></g>
<g><path style="opacity:1" fill="#758f66" d="M 81.5,37.5 C 83.1172,38.038 84.7839,38.3713 86.5,38.5C 84.0595,50.8093 81.7261,63.1426 79.5,75.5C 55.9217,70.7404 32.5884,65.407 9.5,59.5C 17.1667,59.5 24.8333,59.5 32.5,59.5C 44.2841,62.8627 56.2841,65.8627 68.5,68.5C 70.2861,68.3038 71.6195,67.4705 72.5,66C 74.1341,65.5065 75.8008,65.3398 77.5,65.5C 77.5,63.5 77.5,61.5 77.5,59.5C 78.8333,59.5 80.1667,59.5 81.5,59.5C 81.5,52.1667 81.5,44.8333 81.5,37.5 Z"/></g>
<g><path style="opacity:1" fill="#416353" d="M 32.5,59.5 C 47.5,59.5 62.5,59.5 77.5,59.5C 77.5,61.5 77.5,63.5 77.5,65.5C 75.8008,65.3398 74.1341,65.5065 72.5,66C 71.6195,67.4705 70.2861,68.3038 68.5,68.5C 56.2841,65.8627 44.2841,62.8627 32.5,59.5 Z"/></g>
</svg>
