<?xml version="1.0" encoding="UTF-8"?>
<!DOCTYPE svg PUBLIC "-//W3C//DTD SVG 1.1//EN" "http://www.w3.org/Graphics/SVG/1.1/DTD/svg11.dtd">
<svg xmlns="http://www.w3.org/2000/svg" version="1.1" width="100px" height="100px" style="shape-rendering:geometricPrecision; text-rendering:geometricPrecision; image-rendering:optimizeQuality; fill-rule:evenodd; clip-rule:evenodd" xmlns:xlink="http://www.w3.org/1999/xlink">
<g><path style="opacity:0.969" fill="#f0f0f0" d="M 91.5,20.5 C 92.4349,23.1128 92.6015,25.7795 92,28.5C 85.3333,35.1667 78.6667,41.8333 72,48.5C 71.4808,50.4894 72.3141,51.4894 74.5,51.5C 80.1667,57.5 85.8333,63.5 91.5,69.5C 92.9842,72.5839 92.8175,75.5839 91,78.5C 86.8333,82.6667 82.6667,86.8333 78.5,91C 75.5839,92.8175 72.5839,92.9842 69.5,91.5C 63.5,85.8333 57.5,80.1667 51.5,74.5C 51.4894,72.3141 50.4894,71.4808 48.5,72C 42.1667,78.3333 35.8333,84.6667 29.5,91C 26.5839,92.8175 23.5839,92.9842 20.5,91.5C 16.2022,87.7036 12.0356,83.7036 8,79.5C 6,75.8333 6,72.1667 8,68.5C 14.3481,62.3189 20.5148,55.9855 26.5,49.5C 20.5148,43.0145 14.3481,36.6811 8,30.5C 6,26.8333 6,23.1667 8,19.5C 11.8333,15.6667 15.6667,11.8333 19.5,8C 22.366,6.54321 25.366,6.20988 28.5,7C 35.6504,13.3163 42.6504,19.8163 49.5,26.5C 55.9855,20.5148 62.3189,14.3481 68.5,8C 72.1667,6 75.8333,6 79.5,8C 83.7036,12.0356 87.7036,16.2022 91.5,20.5 Z"/></g>
<g><path style="opacity:1" fill="#5b5482" d="M 23.5,11.5 C 24.552,11.3505 25.552,11.5172 26.5,12C 34.0143,19.6812 41.681,27.1812 49.5,34.5C 57.5277,26.6375 65.6944,18.9708 74,11.5C 78.6219,15.1192 82.9552,19.1192 87,23.5C 87.6667,24.5 87.6667,25.5 87,26.5C 79.3188,34.0143 71.8188,41.681 64.5,49.5C 72.3625,57.5277 80.0292,65.6944 87.5,74C 83.8808,78.6219 79.8808,82.9552 75.5,87C 74.5,87.6667 73.5,87.6667 72.5,87C 64.9857,79.3188 57.319,71.8188 49.5,64.5C 41.4723,72.3625 33.3056,80.0292 25,87.5C 20.3781,83.8808 16.0448,79.8808 12,75.5C 11.3333,74.5 11.3333,73.5 12,72.5C 19.6812,64.9857 27.1812,57.319 34.5,49.5C 26.6375,41.4723 18.9708,33.3056 11.5,25C 15.3236,20.3431 19.3236,15.8431 23.5,11.5 Z"/></g>
<g><path style="opacity:1" fill="#fefefe" d="M 24.5,15.5 C 32.5406,23.5429 40.8739,31.2096 49.5,38.5C 58.0913,31.4125 66.258,23.7459 74,15.5C 77.1667,18.6667 80.3333,21.8333 83.5,25C 75.2541,32.742 67.5875,40.9087 60.5,49.5C 67.5875,58.0913 75.2541,66.258 83.5,74C 80.3333,77.1667 77.1667,80.3333 74,83.5C 66.258,75.2541 58.0913,67.5875 49.5,60.5C 40.9087,67.5875 32.742,75.2541 25,83.5C 21.8333,80.3333 18.6667,77.1667 15.5,74C 23.7459,66.258 31.4125,58.0913 38.5,49.5C 31.4125,40.9087 23.7459,32.742 15.5,25C 18.7044,21.9641 21.7044,18.7974 24.5,15.5 Z"/></g>
<g><path style="opacity:0.243" fill="#050505" d="M 91.5,20.5 C 94.8334,24.01 95.3334,28.01 93,32.5C 86.6306,38.7019 80.4639,45.0352 74.5,51.5C 72.3141,51.4894 71.4808,50.4894 72,48.5C 78.6667,41.8333 85.3333,35.1667 92,28.5C 92.6015,25.7795 92.4349,23.1128 91.5,20.5 Z"/></g>
<g><path style="opacity:0.248" fill="#090909" d="M 91.5,69.5 C 94.8334,73.01 95.3334,77.01 93,81.5C 88.8006,86.0343 84.3006,90.201 79.5,94C 75.5369,95.1366 72.2036,94.3033 69.5,91.5C 72.5839,92.9842 75.5839,92.8175 78.5,91C 82.6667,86.8333 86.8333,82.6667 91,78.5C 92.8175,75.5839 92.9842,72.5839 91.5,69.5 Z"/></g>
<g><path style="opacity:0.243" fill="#070707" d="M 51.5,74.5 C 45.0352,80.4639 38.7019,86.6306 32.5,93C 28.01,95.3334 24.01,94.8334 20.5,91.5C 23.5839,92.9842 26.5839,92.8175 29.5,91C 35.8333,84.6667 42.1667,78.3333 48.5,72C 50.4894,71.4808 51.4894,72.3141 51.5,74.5 Z"/></g>
</svg>
