<?xml version="1.0" encoding="UTF-8"?>
<!DOCTYPE svg PUBLIC "-//W3C//DTD SVG 1.1//EN" "http://www.w3.org/Graphics/SVG/1.1/DTD/svg11.dtd">
<svg xmlns="http://www.w3.org/2000/svg" version="1.1" width="100px" height="100px" style="shape-rendering:geometricPrecision; text-rendering:geometricPrecision; image-rendering:optimizeQuality; fill-rule:evenodd; clip-rule:evenodd" xmlns:xlink="http://www.w3.org/1999/xlink">
<g><path style="opacity:0.985" fill="#ebebec" d="M 93.5,22.5 C 93.7803,27.3134 93.1137,31.9801 91.5,36.5C 96.9224,58.4046 90.2557,75.5712 71.5,88C 57.7135,94.7033 43.7135,95.2033 29.5,89.5C 28.5084,89.6716 27.8417,89.3382 27.5,88.5C 26.7377,86.7376 25.4044,85.7376 23.5,85.5C 20.9906,84.0787 18.6572,82.4121 16.5,80.5C 16.5386,79.2438 16.0386,78.2438 15,77.5C 12.7124,79.6562 10.2124,79.9896 7.5,78.5C 5.18528,77.217 3.85195,75.217 3.5,72.5C 6.72629,65.0629 7.39296,57.3963 5.5,49.5C 5.32315,32.6828 12.3232,19.8494 26.5,11C 47.0012,1.4757 65.6679,4.14236 82.5,19C 86.9985,17.5984 90.6652,18.7651 93.5,22.5 Z"/></g>
<g><path style="opacity:1" fill="#24222e" d="M 41.5,10.5 C 60.2731,8.63711 74.4398,15.6371 84,31.5C 85.2022,29.3225 85.7022,26.9892 85.5,24.5C 86.5,24.5 87.5,24.5 88.5,24.5C 87.6734,28.8072 87.0067,33.1405 86.5,37.5C 82.1474,36.9412 77.814,36.2745 73.5,35.5C 73.5,34.5 73.5,33.5 73.5,32.5C 75.3417,32.7233 77.175,33.0566 79,33.5C 79.8333,33.1667 80.6667,32.8333 81.5,32.5C 67.5042,12.751 49.8375,8.58434 28.5,20C 18.2772,27.612 13.2772,37.7787 13.5,50.5C 12.5,50.5 11.5,50.5 10.5,50.5C 11.882,30.1294 22.2154,16.796 41.5,10.5 Z"/></g>
<g><path style="opacity:0.267" fill="#070707" d="M 93.5,22.5 C 95.2427,23.6409 96.2427,25.3076 96.5,27.5C 95.6406,30.9634 94.974,34.4634 94.5,38C 99.4053,60.9933 92.0719,78.66 72.5,91C 59.3249,96.6226 45.9916,96.9559 32.5,92C 31.0577,91.6232 30.0577,90.7899 29.5,89.5C 43.7135,95.2033 57.7135,94.7033 71.5,88C 90.2557,75.5712 96.9224,58.4046 91.5,36.5C 93.1137,31.9801 93.7803,27.3134 93.5,22.5 Z"/></g>
<g><path style="opacity:1" fill="#212127" d="M 45.5,25.5 C 48.1667,25.5 50.8333,25.5 53.5,25.5C 52.5974,30.2667 54.5974,32.6001 59.5,32.5C 63.5999,29.7018 66.5999,30.7018 68.5,35.5C 66.0984,38.3 65.9317,41.3 68,44.5C 69.6995,45.4061 71.5328,45.7394 73.5,45.5C 73.5,48.1667 73.5,50.8333 73.5,53.5C 68.7333,52.5974 66.3999,54.5974 66.5,59.5C 69.2473,63.37 68.414,66.37 64,68.5C 61.013,66.0245 57.8463,65.8578 54.5,68C 53.5939,69.6995 53.2606,71.5328 53.5,73.5C 50.8333,73.5 48.1667,73.5 45.5,73.5C 46.4026,68.7333 44.4026,66.3999 39.5,66.5C 35.1898,69.7302 32.1898,68.7302 30.5,63.5C 32.9016,60.7 33.0683,57.7 31,54.5C 29.3005,53.5939 27.4672,53.2606 25.5,53.5C 25.5,50.8333 25.5,48.1667 25.5,45.5C 30.2667,46.4026 32.6001,44.4026 32.5,39.5C 29.7018,35.4001 30.7018,32.4001 35.5,30.5C 38.3,32.9016 41.3,33.0683 44.5,31C 45.4061,29.3005 45.7394,27.4672 45.5,25.5 Z"/></g>
<g><path style="opacity:1" fill="#5d9c16" d="M 47.5,28.5 C 48.8333,28.5 50.1667,28.5 51.5,28.5C 51.1412,30.7659 51.8078,32.5993 53.5,34C 55.6147,34.5573 57.6147,35.3906 59.5,36.5C 60.8498,35.0499 62.5165,34.3832 64.5,34.5C 64.6168,36.4835 63.9501,38.1502 62.5,39.5C 63.9416,42.0496 65.1083,44.7163 66,47.5C 72,48.8333 72,50.1667 66,51.5C 64.9305,54.2081 63.7639,56.8747 62.5,59.5C 63.9501,60.8498 64.6168,62.5165 64.5,64.5C 62.5165,64.6168 60.8498,63.9501 59.5,62.5C 56.8747,63.7639 54.2081,64.9305 51.5,66C 50.1667,72 48.8333,72 47.5,66C 44.7163,65.1083 42.0496,63.9416 39.5,62.5C 38.1502,63.9501 36.4835,64.6168 34.5,64.5C 34.3832,62.5165 35.0499,60.8498 36.5,59.5C 35.3906,57.6147 34.5573,55.6147 34,53.5C 32.5993,51.8078 30.7659,51.1412 28.5,51.5C 28.5,50.1667 28.5,48.8333 28.5,47.5C 30.1667,47.5 31.8333,47.5 33.5,47.5C 33.9239,44.646 34.9239,41.9793 36.5,39.5C 35.0499,38.1502 34.3832,36.4835 34.5,34.5C 36.4835,34.3832 38.1502,35.0499 39.5,36.5C 41.9793,34.9239 44.646,33.9239 47.5,33.5C 47.5,31.8333 47.5,30.1667 47.5,28.5 Z"/></g>
<g><path style="opacity:1" fill="#1c1b24" d="M 45.5,40.5 C 55.6591,39.1581 59.8257,43.4914 58,53.5C 55.1034,58.1549 50.9367,59.6549 45.5,58C 40.8451,55.1034 39.3451,50.9367 41,45.5C 42.025,43.313 43.525,41.6464 45.5,40.5 Z"/></g>
<g><path style="opacity:1" fill="#ededed" d="M 46.5,43.5 C 55.8176,43.6546 57.8176,47.488 52.5,55C 43.0959,55.141 41.0959,51.3076 46.5,43.5 Z"/></g>
<g><path style="opacity:1" fill="#25232f" d="M 85.5,48.5 C 86.5,48.5 87.5,48.5 88.5,48.5C 86.7685,73.7315 73.2685,87.0648 48,88.5C 33.3391,86.9937 22.1724,79.9937 14.5,67.5C 12.9137,69.1727 12.2471,71.1727 12.5,73.5C 11.5,73.5 10.5,73.5 9.5,73.5C 9.80809,68.5654 11.4748,64.2321 14.5,60.5C 18.2853,61.9806 21.952,63.6472 25.5,65.5C 22.8653,66.2716 20.1986,66.4382 17.5,66C 31.1002,86.4831 48.7669,90.8165 70.5,79C 80.1897,71.1209 85.1897,60.9542 85.5,48.5 Z"/></g>
<g><path style="opacity:0.239" fill="#0c0c0c" d="M 16.5,80.5 C 12.944,82.123 9.94403,81.4563 7.5,78.5C 10.2124,79.9896 12.7124,79.6562 15,77.5C 16.0386,78.2438 16.5386,79.2438 16.5,80.5 Z"/></g>
<g><path style="opacity:0.373" fill="#404040" d="M 23.5,85.5 C 25.4044,85.7376 26.7377,86.7376 27.5,88.5C 25.5956,88.2624 24.2623,87.2624 23.5,85.5 Z"/></g>
</svg>
