<?xml version="1.0" encoding="UTF-8"?>
<!DOCTYPE svg PUBLIC "-//W3C//DTD SVG 1.1//EN" "http://www.w3.org/Graphics/SVG/1.1/DTD/svg11.dtd">
<svg xmlns="http://www.w3.org/2000/svg" version="1.1" width="50px" height="50px" style="shape-rendering:geometricPrecision; text-rendering:geometricPrecision; image-rendering:optimizeQuality; fill-rule:evenodd; clip-rule:evenodd" xmlns:xlink="http://www.w3.org/1999/xlink">
<g><path style="opacity:0.877" fill="#fff" d="M 43.5,49.5 C 30.8333,49.5 18.1667,49.5 5.5,49.5C 5.5,39.5 5.5,29.5 5.5,19.5C 7.83333,19.5 10.1667,19.5 12.5,19.5C 11.1527,6.67979 16.8194,1.17979 29.5,3C 35.9081,6.64813 38.2415,12.1481 36.5,19.5C 38.8333,19.5 41.1667,19.5 43.5,19.5C 43.5,29.5 43.5,39.5 43.5,49.5 Z M 20.5,5.5 C 30.7519,4.41826 35.4185,9.08492 34.5,19.5C 27.8333,19.5 21.1667,19.5 14.5,19.5C 14.1091,13.6379 16.1091,8.97125 20.5,5.5 Z M 8.5,21.5 C 19.1719,21.3335 29.8385,21.5002 40.5,22C 41.6483,30.0876 41.8149,38.2543 41,46.5C 30.2433,47.6529 19.41,47.8196 8.5,47C 7.18054,38.5001 7.18054,30.0001 8.5,21.5 Z"/></g>
<g><path style="opacity:0.824" fill="#fff" d="M 21.5,29.5 C 23.5,29.5 25.5,29.5 27.5,29.5C 27.3841,32.8599 27.0508,36.1933 26.5,39.5C 25.1667,39.5 23.8333,39.5 22.5,39.5C 21.9492,36.1933 21.6159,32.8599 21.5,29.5 Z"/></g>
</svg>
