<?xml version="1.0" encoding="UTF-8"?>
<!DOCTYPE svg PUBLIC "-//W3C//DTD SVG 1.1//EN" "http://www.w3.org/Graphics/SVG/1.1/DTD/svg11.dtd">
<svg xmlns="http://www.w3.org/2000/svg" version="1.1" width="100px" height="100px" style="shape-rendering:geometricPrecision; text-rendering:geometricPrecision; image-rendering:optimizeQuality; fill-rule:evenodd; clip-rule:evenodd" xmlns:xlink="http://www.w3.org/1999/xlink">
<g><path style="opacity:0.951" fill="#e6e6e9" d="M 77.5,41.5 C 77.6658,46.1785 77.4992,50.8452 77,55.5C 74.9815,57.1241 75.1481,58.4574 77.5,59.5C 77.5,59.8333 77.5,60.1667 77.5,60.5C 78.0001,66.0283 77.3334,71.3617 75.5,76.5C 75.8555,77.5223 76.5222,78.189 77.5,78.5C 77.6658,83.1785 77.4992,87.8452 77,92.5C 76.5,94.3333 75.3333,95.5 73.5,96C 52.5026,96.5 31.5026,96.6666 10.5,96.5C 7.07912,93.9317 5.74579,90.4317 6.5,86C 6.3327,82.6298 6.99936,79.4631 8.5,76.5C 5.85433,70.3019 5.85433,64.1352 8.5,58C 6.96226,55.0724 6.29559,51.9058 6.5,48.5C 6.29559,45.0942 6.96226,41.9276 8.5,39C 30.0779,37.3559 51.7446,37.0226 73.5,38C 75.3237,38.66 76.657,39.8267 77.5,41.5 Z"/></g>
<g><path style="opacity:0.236" fill="#020202" d="M 77.5,41.5 C 78.2216,41.9175 78.7216,42.5842 79,43.5C 79.9975,49.0496 79.4975,54.383 77.5,59.5C 75.1481,58.4574 74.9815,57.1241 77,55.5C 77.4992,50.8452 77.6658,46.1785 77.5,41.5 Z"/></g>
<g><path style="opacity:1" fill="#443d71" d="M 11.5,42.5 C 31.8333,42.5 52.1667,42.5 72.5,42.5C 72.5,46.5 72.5,50.5 72.5,54.5C 52.1667,54.5 31.8333,54.5 11.5,54.5C 11.5,50.5 11.5,46.5 11.5,42.5 Z"/></g>
<g><path style="opacity:1" fill="#9894b0" d="M 70.5,45.5 C 51.8333,45.5 33.1667,45.5 14.5,45.5C 14.5,47.5 14.5,49.5 14.5,51.5C 33.1667,51.5 51.8333,51.5 70.5,51.5C 51.674,52.497 32.674,52.8303 13.5,52.5C 13.5,49.8333 13.5,47.1667 13.5,44.5C 32.674,44.1697 51.674,44.503 70.5,45.5 Z"/></g>
<g><path style="opacity:1" fill="#fefefe" d="M 70.5,45.5 C 70.5,47.5 70.5,49.5 70.5,51.5C 51.8333,51.5 33.1667,51.5 14.5,51.5C 14.5,49.5 14.5,47.5 14.5,45.5C 33.1667,45.5 51.8333,45.5 70.5,45.5 Z"/></g>
<g><path style="opacity:0.224" fill="#040404" d="M 77.5,60.5 C 78.1174,60.6107 78.6174,60.944 79,61.5C 80.0099,67.3798 79.5099,73.0464 77.5,78.5C 76.5222,78.189 75.8555,77.5223 75.5,76.5C 77.3334,71.3617 78.0001,66.0283 77.5,60.5 Z"/></g>
<g><path style="opacity:1" fill="#4b4476" d="M 11.5,61.5 C 31.8333,61.5 52.1667,61.5 72.5,61.5C 72.5,65.5 72.5,69.5 72.5,73.5C 52.1667,73.5 31.8333,73.5 11.5,73.5C 11.5,69.5 11.5,65.5 11.5,61.5 Z"/></g>
<g><path style="opacity:1" fill="#c8c6d5" d="M 69.5,70.5 C 69.5,68.5 69.5,66.5 69.5,64.5C 51.1667,64.5 32.8333,64.5 14.5,64.5C 14.5,66.5 14.5,68.5 14.5,70.5C 13.5318,68.3926 13.1984,66.0593 13.5,63.5C 32.5,63.5 51.5,63.5 70.5,63.5C 70.8016,66.0593 70.4682,68.3926 69.5,70.5 Z"/></g>
<g><path style="opacity:1" fill="#fefffe" d="M 69.5,70.5 C 51.1667,70.5 32.8333,70.5 14.5,70.5C 14.5,68.5 14.5,66.5 14.5,64.5C 32.8333,64.5 51.1667,64.5 69.5,64.5C 69.5,66.5 69.5,68.5 69.5,70.5 Z"/></g>
<g><path style="opacity:0.238" fill="#010101" d="M 77.5,78.5 C 78.2216,78.9175 78.7216,79.5842 79,80.5C 79.6667,85.1667 79.6667,89.8333 79,94.5C 78.5,96.3333 77.3333,97.5 75.5,98C 54.5,98.6667 33.5,98.6667 12.5,98C 11.5842,97.7216 10.9175,97.2216 10.5,96.5C 31.5026,96.6666 52.5026,96.5 73.5,96C 75.3333,95.5 76.5,94.3333 77,92.5C 77.4992,87.8452 77.6658,83.1785 77.5,78.5 Z"/></g>
<g><path style="opacity:1" fill="#40396e" d="M 11.5,80.5 C 31.8333,80.5 52.1667,80.5 72.5,80.5C 72.5,84.1667 72.5,87.8333 72.5,91.5C 52.1667,91.5 31.8333,91.5 11.5,91.5C 11.5,87.8333 11.5,84.1667 11.5,80.5 Z"/></g>
<g><path style="opacity:1" fill="#dedce6" d="M 14.5,82.5 C 14.5,84.5 14.5,86.5 14.5,88.5C 32.8333,88.5 51.1667,88.5 69.5,88.5C 69.5,86.5 69.5,84.5 69.5,82.5C 70.4682,84.6074 70.8016,86.9407 70.5,89.5C 51.5,89.5 32.5,89.5 13.5,89.5C 13.1984,86.9407 13.5318,84.6074 14.5,82.5 Z"/></g>
<g><path style="opacity:1" fill="#fefffe" d="M 14.5,82.5 C 32.8333,82.5 51.1667,82.5 69.5,82.5C 69.5,84.5 69.5,86.5 69.5,88.5C 51.1667,88.5 32.8333,88.5 14.5,88.5C 14.5,86.5 14.5,84.5 14.5,82.5 Z"/></g>
</svg>
