<?xml version="1.0" encoding="UTF-8"?>
<!DOCTYPE svg PUBLIC "-//W3C//DTD SVG 1.1//EN" "http://www.w3.org/Graphics/SVG/1.1/DTD/svg11.dtd">
<svg xmlns="http://www.w3.org/2000/svg" version="1.1" width="100px" height="100px" style="shape-rendering:geometricPrecision; text-rendering:geometricPrecision; image-rendering:optimizeQuality; fill-rule:evenodd; clip-rule:evenodd" xmlns:xlink="http://www.w3.org/1999/xlink">
<g><path style="opacity:0.994" fill="#f1f1f1" d="M 90.5,18.5 C 90.6661,24.1764 90.4994,29.8431 90,35.5C 88.2443,37.2742 88.2443,38.9409 90,40.5C 90.6667,46.1667 90.6667,51.8333 90,57.5C 88.2443,59.2742 88.2443,60.9409 90,62.5C 90.6667,68.1667 90.6667,73.8333 90,79.5C 89.6258,80.4162 89.1258,81.2496 88.5,82C 62.9227,83.4815 37.256,83.9815 11.5,83.5C 10.5313,82.6906 9.69794,81.6906 9,80.5C 8.83333,77.5 8.66667,74.5 8.5,71.5C 8.5,56.8333 8.5,42.1667 8.5,27.5C 8.66667,24.5 8.83333,21.5 9,18.5C 9.30762,17.6919 9.80762,17.0253 10.5,16.5C 36.1241,15.3429 61.7908,15.1762 87.5,16C 88.6906,16.6979 89.6906,17.5313 90.5,18.5 Z"/></g>
<g><path style="opacity:0.323" fill="#020202" d="M 90.5,18.5 C 91.2216,18.9175 91.7216,19.5842 92,20.5C 92.1667,23.5 92.3333,26.5 92.5,29.5C 92.5,44.1667 92.5,58.8333 92.5,73.5C 92.3333,76.5 92.1667,79.5 92,82.5C 91.6924,83.3081 91.1924,83.9747 90.5,84.5C 64.8759,85.6571 39.2092,85.8238 13.5,85C 12.5842,84.7216 11.9175,84.2216 11.5,83.5C 37.256,83.9815 62.9227,83.4815 88.5,82C 89.1258,81.2496 89.6258,80.4162 90,79.5C 90.6667,73.8333 90.6667,68.1667 90,62.5C 88.2443,60.9409 88.2443,59.2742 90,57.5C 90.6667,51.8333 90.6667,46.1667 90,40.5C 88.2443,38.9409 88.2443,37.2742 90,35.5C 90.4994,29.8431 90.6661,24.1764 90.5,18.5 Z"/></g>
<g><path style="opacity:1" fill="#40396e" d="M 13.5,20.5 C 37.169,20.3334 60.8357,20.5 84.5,21C 85.8333,25.3333 85.8333,29.6667 84.5,34C 60.8357,34.5 37.169,34.6666 13.5,34.5C 13.5,29.8333 13.5,25.1667 13.5,20.5 Z"/></g>
<g><path style="opacity:1" fill="#60a414" d="M 16.5,23.5 C 38.5,23.5 60.5,23.5 82.5,23.5C 82.5,26.1667 82.5,28.8333 82.5,31.5C 60.5,31.5 38.5,31.5 16.5,31.5C 16.5,28.8333 16.5,26.1667 16.5,23.5 Z"/></g>
<g><path style="opacity:1" fill="#40396e" d="M 13.5,42.5 C 37.169,42.3334 60.8357,42.5 84.5,43C 85.8333,47.3333 85.8333,51.6667 84.5,56C 60.8357,56.5 37.169,56.6666 13.5,56.5C 13.5,51.8333 13.5,47.1667 13.5,42.5 Z"/></g>
<g><path style="opacity:1" fill="#60a414" d="M 16.5,45.5 C 38.5,45.5 60.5,45.5 82.5,45.5C 82.5,48.1667 82.5,50.8333 82.5,53.5C 60.5,53.5 38.5,53.5 16.5,53.5C 16.5,50.8333 16.5,48.1667 16.5,45.5 Z"/></g>
<g><path style="opacity:1" fill="#40396e" d="M 13.5,64.5 C 37.169,64.3334 60.8357,64.5 84.5,65C 85.6295,69.0785 85.7961,73.2452 85,77.5C 61.5726,78.6604 38.0726,78.8271 14.5,78C 13.5333,73.5986 13.2,69.0986 13.5,64.5 Z"/></g>
<g><path style="opacity:1" fill="#60a414" d="M 16.5,67.5 C 38.5,67.5 60.5,67.5 82.5,67.5C 82.5,70.1667 82.5,72.8333 82.5,75.5C 60.5,75.5 38.5,75.5 16.5,75.5C 16.5,72.8333 16.5,70.1667 16.5,67.5 Z"/></g>
</svg>
