<?xml version="1.0" encoding="UTF-8"?>
<!DOCTYPE svg PUBLIC "-//W3C//DTD SVG 1.1//EN" "http://www.w3.org/Graphics/SVG/1.1/DTD/svg11.dtd">
<svg xmlns="http://www.w3.org/2000/svg" version="1.1" width="100px" height="100px" style="shape-rendering:geometricPrecision; text-rendering:geometricPrecision; image-rendering:optimizeQuality; fill-rule:evenodd; clip-rule:evenodd" xmlns:xlink="http://www.w3.org/1999/xlink">
<g><path style="opacity:0.974" fill="#ececed" d="M 28.5,18.5 C 28.427,20.0269 29.0937,21.0269 30.5,21.5C 50.5028,21.3334 70.5028,21.5 90.5,22C 91.6906,22.6979 92.6906,23.5313 93.5,24.5C 93.8203,35.415 93.487,46.2483 92.5,57C 98.5686,69.7898 95.5686,79.7898 83.5,87C 77.8848,88.8285 72.2181,88.9952 66.5,87.5C 66.0269,86.0937 65.0269,85.427 63.5,85.5C 62.1667,84.5 60.8333,83.5 59.5,82.5C 59.0133,81.5266 58.5133,80.5266 58,79.5C 54.2901,86.2446 48.7901,88.2446 41.5,85.5C 39.1097,84.1092 37.4431,82.1092 36.5,79.5C 35.9653,77.5544 34.632,76.5544 32.5,76.5C 30.8267,75.657 29.66,74.3237 29,72.5C 28.5942,68.0391 28.9275,63.7058 30,59.5C 26.4849,51.1409 22.9849,42.8075 19.5,34.5C 17.0122,32.6122 14.0122,31.9455 10.5,32.5C 4.78875,29.1629 2.95542,24.1629 5,17.5C 8.65505,12.7255 13.4884,11.2255 19.5,13C 21.4899,14.7506 23.8232,15.7506 26.5,16C 27.3805,16.7083 28.0472,17.5416 28.5,18.5 Z"/></g>
<g><path style="opacity:1" fill="#484173" d="M 12.5,17.5 C 16.1228,18.7473 19.7895,20.0806 23.5,21.5C 24.1667,22.8333 24.8333,24.1667 25.5,25.5C 46.3983,26.1721 67.2316,26.8387 88,27.5C 88.6667,36.5 88.6667,45.5 88,54.5C 87.5,55.5 87,56.5 86.5,57.5C 92.4362,66.177 91.4362,74.0103 83.5,81C 73.4005,85.9499 65.7338,83.4499 60.5,73.5C 58.2573,72.5258 55.924,72.1924 53.5,72.5C 53.5426,80.5495 50.0426,82.8828 43,79.5C 41.7978,77.3225 41.2978,74.9892 41.5,72.5C 33.3622,72.0591 32.3622,68.8924 38.5,63C 32.1654,50.5091 26.4987,37.6757 21.5,24.5C 21.1667,24.1667 20.8333,23.8333 20.5,23.5C 18.7475,25.2611 16.7475,26.5944 14.5,27.5C 8.75287,25.1785 8.0862,21.8452 12.5,17.5 Z"/></g>
<g><path style="opacity:0.075" fill="#040404" d="M 28.5,18.5 C 29.9063,18.9731 30.573,19.9731 30.5,21.5C 29.0937,21.0269 28.427,20.0269 28.5,18.5 Z"/></g>
<g><path style="opacity:1" fill="#d34f49" d="M 13.5,20.5 C 16.8606,21.2032 17.1939,22.5365 14.5,24.5C 12.3576,23.5629 12.0243,22.2296 13.5,20.5 Z"/></g>
<g><path style="opacity:0.291" fill="#030303" d="M 93.5,24.5 C 94.2216,24.9175 94.7216,25.5842 95,26.5C 95.021,41.0825 95.8544,55.5825 97.5,70C 95.667,86.1012 86.667,92.7678 70.5,90C 68.6803,89.7996 67.347,88.9663 66.5,87.5C 72.2181,88.9952 77.8848,88.8285 83.5,87C 95.5686,79.7898 98.5686,69.7898 92.5,57C 93.487,46.2483 93.8203,35.415 93.5,24.5 Z"/></g>
<g><path style="opacity:1" fill="#ededee" d="M 27.5,29.5 C 31.5138,29.3345 35.5138,29.5012 39.5,30C 40.8672,32.3015 41.5339,34.8015 41.5,37.5C 37.8183,37.6653 34.1516,37.4986 30.5,37C 29.0087,34.6922 28.0087,32.1922 27.5,29.5 Z"/></g>
<g><path style="opacity:1" fill="#eaeaec" d="M 42.5,30.5 C 46.97,29.5139 51.6367,29.1805 56.5,29.5C 57.0916,32.1272 57.4249,34.7938 57.5,37.5C 53.1667,37.5 48.8333,37.5 44.5,37.5C 44.5905,34.8478 43.9238,32.5145 42.5,30.5 Z"/></g>
<g><path style="opacity:1" fill="#eae9ec" d="M 59.5,29.5 C 63.5546,29.1758 67.5546,29.5091 71.5,30.5C 72.3482,32.4086 72.6816,34.4086 72.5,36.5C 68.4454,36.8242 64.4454,36.4909 60.5,35.5C 59.6518,33.5914 59.3184,31.5914 59.5,29.5 Z"/></g>
<g><path style="opacity:1" fill="#f1f1f1" d="M 85.5,35.5 C 82.1667,35.5 78.8333,35.5 75.5,35.5C 75.7678,33.901 75.4345,32.5676 74.5,31.5C 77.6843,29.5864 81.351,28.9197 85.5,29.5C 85.5,31.5 85.5,33.5 85.5,35.5 Z"/></g>
<g><path style="opacity:0.274" fill="#000000" d="M 10.5,32.5 C 14.0122,31.9455 17.0122,32.6122 19.5,34.5C 16.8127,34.6641 14.146,34.4974 11.5,34C 10.944,33.6174 10.6107,33.1174 10.5,32.5 Z"/></g>
<g><path style="opacity:1" fill="#b4b1c4" d="M 74.5,31.5 C 75.4345,32.5676 75.7678,33.901 75.5,35.5C 78.8333,35.5 82.1667,35.5 85.5,35.5C 82.0381,36.4816 78.3714,36.815 74.5,36.5C 74.5,34.8333 74.5,33.1667 74.5,31.5 Z"/></g>
<g><path style="opacity:1" fill="#ececee" d="M 75.5,39.5 C 78.8333,39.5 82.1667,39.5 85.5,39.5C 85.5,41.5 85.5,43.5 85.5,45.5C 82.4281,45.8174 79.4281,45.4841 76.5,44.5C 75.6906,42.9291 75.3573,41.2624 75.5,39.5 Z"/></g>
<g><path style="opacity:1" fill="#e8e8eb" d="M 46.5,40.5 C 50.5138,40.3345 54.5138,40.5012 58.5,41C 59.435,43.3806 59.7683,45.8806 59.5,48.5C 55.8333,48.5 52.1667,48.5 48.5,48.5C 48.0372,45.779 47.3705,43.1123 46.5,40.5 Z"/></g>
<g><path style="opacity:1" fill="#e6e6e9" d="M 61.5,39.5 C 65.1667,39.5 68.8333,39.5 72.5,39.5C 72.6741,41.861 73.0074,44.1944 73.5,46.5C 69.8212,46.7244 66.1545,47.0578 62.5,47.5C 62.5987,44.7628 62.2653,42.0961 61.5,39.5 Z"/></g>
<g><path style="opacity:1" fill="#e3e2e7" d="M 31.5,40.5 C 35.5546,40.1758 39.5546,40.5091 43.5,41.5C 44.4822,44.0956 45.1489,46.7623 45.5,49.5C 41.8333,49.5 38.1667,49.5 34.5,49.5C 34.0857,46.2569 33.0857,43.2569 31.5,40.5 Z"/></g>
<g><path style="opacity:1" fill="#dbdae1" d="M 76.5,48.5 C 79.5,48.5 82.5,48.5 85.5,48.5C 85.5,50.5 85.5,52.5 85.5,54.5C 82.7835,54.3215 80.1168,53.8215 77.5,53C 76.6198,51.6439 76.2865,50.1439 76.5,48.5 Z"/></g>
<g><path style="opacity:1" fill="#e3e2e6" d="M 64.5,49.5 C 67.5,49.5 70.5,49.5 73.5,49.5C 73.5,50.5 73.5,51.5 73.5,52.5C 70.646,52.9239 67.9793,53.9239 65.5,55.5C 64.5344,53.604 64.2011,51.604 64.5,49.5 Z"/></g>
<g><path style="opacity:1" fill="#e5e5e9" d="M 53.5,50.5 C 56.1667,50.5 58.8333,50.5 61.5,50.5C 61.8333,53.1667 62.1667,55.8333 62.5,58.5C 59.0729,58.9756 55.7395,58.9756 52.5,58.5C 51.4229,56.2706 50.7563,53.9372 50.5,51.5C 51.791,51.7373 52.791,51.404 53.5,50.5 Z"/></g>
<g><path style="opacity:1" fill="#eaeaec" d="M 36.5,52.5 C 40.1667,52.5 43.8333,52.5 47.5,52.5C 47.7563,54.9372 48.4229,57.2706 49.5,59.5C 46.2156,60.657 42.8823,60.8236 39.5,60C 38.3578,57.5501 37.3578,55.0501 36.5,52.5 Z"/></g>
<g><path style="opacity:1" fill="#94c062" d="M 71.5,55.5 C 85.2611,56.0369 89.7611,62.7036 85,75.5C 79.8333,81 74,81.8333 67.5,78C 59.7918,68.7727 61.1252,61.2727 71.5,55.5 Z"/></g>
<g><path style="opacity:1" fill="#eef0ec" d="M 73.5,60.5 C 74.5,60.5 75.5,60.5 76.5,60.5C 76.5,62.5 76.5,64.5 76.5,66.5C 78.5,66.5 80.5,66.5 82.5,66.5C 82.5,67.5 82.5,68.5 82.5,69.5C 80.5,69.5 78.5,69.5 76.5,69.5C 76.5,71.5 76.5,73.5 76.5,75.5C 75.5,75.5 74.5,75.5 73.5,75.5C 73.5,73.5 73.5,71.5 73.5,69.5C 71.5,69.5 69.5,69.5 67.5,69.5C 67.5,68.5 67.5,67.5 67.5,66.5C 69.5,66.5 71.5,66.5 73.5,66.5C 73.5,64.5 73.5,62.5 73.5,60.5 Z"/></g>
<g><path style="opacity:1" fill="#ecebed" d="M 56.5,61.5 C 57.8333,61.5 59.1667,61.5 60.5,61.5C 59.9084,64.1272 59.5751,66.7938 59.5,69.5C 52.1365,69.8306 44.8032,69.4973 37.5,68.5C 38.6477,66.8513 39.981,65.3513 41.5,64C 46.7061,63.5633 51.7061,62.73 56.5,61.5 Z"/></g>
<g><path style="opacity:1" fill="#6a74b6" d="M 45.5,72.5 C 50.1585,72.0146 51.4919,73.848 49.5,78C 44.7282,78.8104 43.3948,76.9771 45.5,72.5 Z"/></g>
<g><path style="opacity:0.172" fill="#171717" d="M 32.5,76.5 C 34.632,76.5544 35.9653,77.5544 36.5,79.5C 34.7697,78.9744 33.4363,77.9744 32.5,76.5 Z"/></g>
<g><path style="opacity:0.26" fill="#090909" d="M 59.5,82.5 C 58.7457,85.091 57.079,86.9243 54.5,88C 51.1667,88.6667 47.8333,88.6667 44.5,88C 43.0577,87.6232 42.0577,86.7899 41.5,85.5C 48.7901,88.2446 54.2901,86.2446 58,79.5C 58.5133,80.5266 59.0133,81.5266 59.5,82.5 Z"/></g>
<g><path style="opacity:0.255" fill="#242424" d="M 63.5,85.5 C 65.0269,85.427 66.0269,86.0937 66.5,87.5C 64.9731,87.573 63.9731,86.9063 63.5,85.5 Z"/></g>
</svg>
