<?xml version="1.0" encoding="UTF-8"?>
<!DOCTYPE svg PUBLIC "-//W3C//DTD SVG 1.1//EN" "http://www.w3.org/Graphics/SVG/1.1/DTD/svg11.dtd">
<svg xmlns="http://www.w3.org/2000/svg" version="1.1" width="100px" height="100px" style="shape-rendering:geometricPrecision; text-rendering:geometricPrecision; image-rendering:optimizeQuality; fill-rule:evenodd; clip-rule:evenodd" xmlns:xlink="http://www.w3.org/1999/xlink">
<g><path style="opacity:0.959" fill="#eae9eb" d="M 83.5,23.5 C 85.014,29.2194 86.3473,35.0528 87.5,41C 87.0748,45.5164 85.0748,49.1831 81.5,52C 82.2438,53.0386 83.2438,53.5386 84.5,53.5C 86.7772,54.4486 88.7772,55.7819 90.5,57.5C 90.427,59.0269 91.0937,60.0269 92.5,60.5C 93.4922,63.7786 93.6588,67.1119 93,70.5C 91.871,72.1412 90.371,73.1412 88.5,73.5C 84.1161,73.1744 79.7828,73.5078 75.5,74.5C 75.6236,75.1067 75.9569,75.44 76.5,75.5C 77.6481,80.439 75.9814,83.939 71.5,86C 56.1347,86.7858 40.8014,86.6191 25.5,85.5C 24.5416,85.0472 23.7083,84.3805 23,83.5C 22.5034,81.1902 22.3367,78.8568 22.5,76.5C 22.5,76.1667 22.5,75.8333 22.5,75.5C 23.0431,75.44 23.3764,75.1067 23.5,74.5C 19.2172,73.5078 14.8839,73.1744 10.5,73.5C 9.83333,73.5 9.16667,73.5 8.5,73.5C 7.54163,73.0472 6.7083,72.3805 6,71.5C 4.05659,61.9504 7.55659,55.2837 16.5,51.5C 10.6399,46.38 9.63992,40.5467 13.5,34C 12.1171,24.3639 16.1171,18.0306 25.5,15C 35.1224,12.8948 42.9557,15.7281 49,23.5C 56.3732,14.2202 65.5399,12.0535 76.5,17C 79.3312,18.6657 81.6645,20.8324 83.5,23.5 Z"/></g>
<g><path style="opacity:1" fill="#463e71" d="M 27.5,19.5 C 34.3404,18.6701 39.8404,21.0034 44,26.5C 45.0086,28.0249 45.5086,29.6916 45.5,31.5C 48.1194,31.2317 50.6194,31.565 53,32.5C 54.6711,22.5763 60.5044,18.4097 70.5,20C 74.4083,22.0322 77.575,24.8655 80,28.5C 80.1107,32.8875 80.944,37.0541 82.5,41C 82.5163,44.5154 80.8496,46.3487 77.5,46.5C 77.6227,49.5879 76.6227,52.2546 74.5,54.5C 78.0001,56.6146 81.6667,58.4479 85.5,60C 87.9305,62.3046 88.9305,65.1379 88.5,68.5C 80.16,68.3336 71.8267,68.5003 63.5,69C 69.1443,70.8043 71.811,74.6376 71.5,80.5C 56.8333,80.5 42.1667,80.5 27.5,80.5C 27.5564,74.8972 30.223,71.0638 35.5,69C 27.1733,68.5003 18.84,68.3336 10.5,68.5C 10.1437,65.4359 10.9771,62.7693 13,60.5C 17.1041,58.6988 20.9374,56.5321 24.5,54C 22.8069,51.7799 21.8069,49.2799 21.5,46.5C 20.1779,46.67 19.0113,46.3366 18,45.5C 17.3988,43.8632 16.8988,42.1966 16.5,40.5C 18.1173,36.397 18.9507,32.0636 19,27.5C 21.0738,23.9231 23.9072,21.2565 27.5,19.5 Z"/></g>
<g><path style="opacity:1" fill="#cf7c56" d="M 38.5,50.5 C 37.1667,50.5 36.5,51.1667 36.5,52.5C 33.5,53.8333 30.5,53.8333 27.5,52.5C 25.5152,49.8791 24.5152,46.8791 24.5,43.5C 18.8956,43.3243 18.3956,41.991 23,39.5C 23.49,38.2068 23.6567,36.8734 23.5,35.5C 29.0526,35.1515 33.8859,33.1515 38,29.5C 38.8498,31.01 39.6831,32.51 40.5,34C 37.407,39.1825 36.7403,44.6825 38.5,50.5 Z"/></g>
<g><path style="opacity:1" fill="#f7b188" d="M 71.5,57.5 C 70.8919,59.9905 69.2252,61.3238 66.5,61.5C 64.0409,59.6968 61.3743,58.3635 58.5,57.5C 62.459,56.133 63.459,53.4663 61.5,49.5C 63.4966,44.2899 62.4966,39.7899 58.5,36C 63.9945,35.1741 68.8278,33.0074 73,29.5C 75.0043,32.4746 76.0043,35.8079 76,39.5C 77.0113,40.3366 78.1779,40.67 79.5,40.5C 79.5,41.5 79.5,42.5 79.5,43.5C 77.8561,43.2865 76.3561,43.6198 75,44.5C 74.7506,47.1768 73.7506,49.5101 72,51.5C 71.5045,53.4727 71.3379,55.4727 71.5,57.5 Z"/></g>
<g><path style="opacity:0.261" fill="#0a0a0a" d="M 83.5,23.5 C 85.1733,24.343 86.34,25.6763 87,27.5C 87.2099,32.8446 88.3766,37.8446 90.5,42.5C 90.1298,47.1681 88.1298,50.8348 84.5,53.5C 83.2438,53.5386 82.2438,53.0386 81.5,52C 85.0748,49.1831 87.0748,45.5164 87.5,41C 86.3473,35.0528 85.014,29.2194 83.5,23.5 Z"/></g>
<g><path style="opacity:1" fill="#fad4bc" d="M 61.5,49.5 C 63.459,53.4663 62.459,56.133 58.5,57.5C 57.7729,59.9538 56.7729,62.2872 55.5,64.5C 51.4172,65.3648 47.4172,65.6981 43.5,65.5C 42.9004,61.5747 40.9004,58.9081 37.5,57.5C 37.6716,56.5084 37.3382,55.8417 36.5,55.5C 36.5,54.5 36.5,53.5 36.5,52.5C 36.5,51.1667 37.1667,50.5 38.5,50.5C 38.56,51.0431 38.8933,51.3764 39.5,51.5C 40.2436,50.0095 40.9103,48.5095 41.5,47C 46.5862,46.5287 51.0862,44.6954 55,41.5C 57.0589,44.9494 58.5589,48.6161 59.5,52.5C 60.1757,51.3984 60.8423,50.3984 61.5,49.5 Z"/></g>
<g><path style="opacity:1" fill="#a4695e" d="M 27.5,52.5 C 30.5,53.8333 33.5,53.8333 36.5,52.5C 36.5,53.5 36.5,54.5 36.5,55.5C 33.3939,56.3279 30.3939,56.6612 27.5,56.5C 27.5,55.1667 27.5,53.8333 27.5,52.5 Z"/></g>
<g><path style="opacity:1" fill="#d08357" d="M 36.5,55.5 C 37.3382,55.8417 37.6716,56.5084 37.5,57.5C 34.0239,62.7823 30.6906,62.7823 27.5,57.5C 27.5,57.1667 27.5,56.8333 27.5,56.5C 30.3939,56.6612 33.3939,56.3279 36.5,55.5 Z"/></g>
<g><path style="opacity:1" fill="#96c162" d="M 27.5,57.5 C 30.6906,62.7823 34.0239,62.7823 37.5,57.5C 40.9004,58.9081 42.9004,61.5747 43.5,65.5C 33.8104,65.8318 24.1437,65.4984 14.5,64.5C 18.0868,60.8718 22.4202,58.5385 27.5,57.5 Z"/></g>
<g><path style="opacity:1" fill="#fd7575" d="M 58.5,57.5 C 61.3743,58.3635 64.0409,59.6968 66.5,61.5C 69.2252,61.3238 70.8919,59.9905 71.5,57.5C 76.5798,58.5385 80.9132,60.8718 84.5,64.5C 74.8563,65.4984 65.1896,65.8318 55.5,65.5C 55.5,65.1667 55.5,64.8333 55.5,64.5C 56.7729,62.2872 57.7729,59.9538 58.5,57.5 Z"/></g>
<g><path style="opacity:0.247" fill="#313131" d="M 90.5,57.5 C 91.9063,57.9731 92.573,58.9731 92.5,60.5C 91.0937,60.0269 90.427,59.0269 90.5,57.5 Z"/></g>
<g><path style="opacity:0.241" fill="#010101" d="M 92.5,60.5 C 93.7899,61.0577 94.6232,62.0577 95,63.5C 95.6667,66.8333 95.6667,70.1667 95,73.5C 94.0975,74.7014 92.9308,75.5348 91.5,76C 87.1794,76.499 82.8461,76.6657 78.5,76.5C 78.6646,79.5184 78.498,82.5184 78,85.5C 77.0975,86.7014 75.9308,87.5348 74.5,88C 59.5,88.6667 44.5,88.6667 29.5,88C 27.6803,87.7996 26.347,86.9663 25.5,85.5C 40.8014,86.6191 56.1347,86.7858 71.5,86C 75.9814,83.939 77.6481,80.439 76.5,75.5C 80.5,74.8333 84.5,74.1667 88.5,73.5C 90.371,73.1412 91.871,72.1412 93,70.5C 93.6588,67.1119 93.4922,63.7786 92.5,60.5 Z"/></g>
<g><path style="opacity:1" fill="#f8d5c0" d="M 54.5,69.5 C 52.5647,73.5707 49.5647,74.4041 45.5,72C 44.7476,71.3292 44.4142,70.4959 44.5,69.5C 44.281,68.325 44.6143,67.325 45.5,66.5C 48.1667,69.1667 50.8333,69.1667 53.5,66.5C 54.3857,67.325 54.719,68.325 54.5,69.5 Z"/></g>
<g><path style="opacity:1" fill="#c8aaa7" d="M 55.5,64.5 C 55.5,64.8333 55.5,65.1667 55.5,65.5C 55.5,66.5 55.5,67.5 55.5,68.5C 55.5,69.1667 55.1667,69.5 54.5,69.5C 54.719,68.325 54.3857,67.325 53.5,66.5C 50.8333,69.1667 48.1667,69.1667 45.5,66.5C 44.6143,67.325 44.281,68.325 44.5,69.5C 43.8333,69.5 43.5,69.1667 43.5,68.5C 43.5,67.5 43.5,66.5 43.5,65.5C 47.4172,65.6981 51.4172,65.3648 55.5,64.5 Z"/></g>
<g><path style="opacity:1" fill="#70bdfc" d="M 43.5,68.5 C 43.5,69.1667 43.8333,69.5 44.5,69.5C 44.4142,70.4959 44.7476,71.3292 45.5,72C 49.5647,74.4041 52.5647,73.5707 54.5,69.5C 55.1667,69.5 55.5,69.1667 55.5,68.5C 60.3434,70.4176 64.6767,73.0843 68.5,76.5C 56.1667,77.8333 43.8333,77.8333 31.5,76.5C 34.8033,72.8442 38.8033,70.1775 43.5,68.5 Z"/></g>
<g><path style="opacity:0.196" fill="#000000" d="M 8.5,73.5 C 9.16667,73.5 9.83333,73.5 10.5,73.5C 14.5,74.1667 18.5,74.8333 22.5,75.5C 22.5,75.8333 22.5,76.1667 22.5,76.5C 19.1501,76.665 15.8168,76.4983 12.5,76C 10.6803,75.7996 9.347,74.9663 8.5,73.5 Z"/></g>
<g><path style="opacity:0.478" fill="#646464" d="M 10.5,73.5 C 14.8839,73.1744 19.2172,73.5078 23.5,74.5C 23.3764,75.1067 23.0431,75.44 22.5,75.5C 18.5,74.8333 14.5,74.1667 10.5,73.5 Z"/></g>
<g><path style="opacity:0.565" fill="#8b8b8b" d="M 88.5,73.5 C 84.5,74.1667 80.5,74.8333 76.5,75.5C 75.9569,75.44 75.6236,75.1067 75.5,74.5C 79.7828,73.5078 84.1161,73.1744 88.5,73.5 Z"/></g>
</svg>
