<?xml version="1.0" encoding="UTF-8"?>
<!DOCTYPE svg PUBLIC "-//W3C//DTD SVG 1.1//EN" "http://www.w3.org/Graphics/SVG/1.1/DTD/svg11.dtd">
<svg xmlns="http://www.w3.org/2000/svg" version="1.1" width="100px" height="100px" style="shape-rendering:geometricPrecision; text-rendering:geometricPrecision; image-rendering:optimizeQuality; fill-rule:evenodd; clip-rule:evenodd" xmlns:xlink="http://www.w3.org/1999/xlink">
<g><path style="opacity:0.989" fill="#efefef" d="M 83.5,11.5 C 83.3379,13.5273 83.5045,15.5273 84,17.5C 84.3826,18.056 84.8826,18.3893 85.5,18.5C 87.1667,19.5 88.5,20.8333 89.5,22.5C 90.0087,26.573 90.842,30.573 92,34.5C 92.6667,50.5 92.6667,66.5 92,82.5C 90.5422,84.96 88.7089,87.1266 86.5,89C 74.2585,90.148 61.9252,90.648 49.5,90.5C 37.8333,90.3333 26.1667,90.1667 14.5,90C 13.7562,88.9614 12.7562,88.4614 11.5,88.5C 9.4959,87.3272 7.9959,85.6605 7,83.5C 6.33333,63.8333 6.33333,44.1667 7,24.5C 8.33333,20.5 11,17.8333 15,16.5C 14.9474,13.3439 16.1141,10.8439 18.5,9C 39.1667,8.33333 59.8333,8.33333 80.5,9C 81.6906,9.69794 82.6906,10.5313 83.5,11.5 Z"/></g>
<g><path style="opacity:0.257" fill="#000000" d="M 83.5,11.5 C 85.1628,13.4385 85.8294,15.7718 85.5,18.5C 84.8826,18.3893 84.3826,18.056 84,17.5C 83.5045,15.5273 83.3379,13.5273 83.5,11.5 Z"/></g>
<g><path style="opacity:1" fill="#030202" d="M 21.5,13.5 C 40.4097,13.174 59.243,13.5073 78,14.5C 78.1858,16.9005 78.6858,19.2338 79.5,21.5C 82.1334,22.3006 83.9667,23.9673 85,26.5C 87.5309,44.307 88.1976,62.307 87,80.5C 86.065,83.1019 84.2317,84.6019 81.5,85C 59.0782,85.9781 36.7449,85.6448 14.5,84C 13.2986,83.0975 12.4652,81.9308 12,80.5C 11.3333,62.5 11.3333,44.5 12,26.5C 13.6742,22.9114 16.5075,21.2447 20.5,21.5C 20.2786,18.7212 20.612,16.0545 21.5,13.5 Z"/></g>
<g><path style="opacity:1" fill="#95c261" d="M 75.5,23.5 C 75.5,25.8333 75.5,28.1667 75.5,30.5C 74.5,30.5 73.5,30.5 72.5,30.5C 73.0304,26.6031 72.0304,23.2698 69.5,20.5C 56.1667,19.1667 42.8333,19.1667 29.5,20.5C 26.9696,23.2698 25.9696,26.6031 26.5,30.5C 25.5,30.5 24.5,30.5 23.5,30.5C 23.5,28.1667 23.5,25.8333 23.5,23.5C 23.5,21.1667 23.5,18.8333 23.5,16.5C 40.8333,16.5 58.1667,16.5 75.5,16.5C 75.5,18.8333 75.5,21.1667 75.5,23.5 Z"/></g>
<g><path style="opacity:1" fill="#447c46" d="M 72.5,30.5 C 66.8333,30.5 61.1667,30.5 55.5,30.5C 54.9226,23.1312 51.4226,21.1312 45,24.5C 43.872,26.3453 43.372,28.3453 43.5,30.5C 37.8333,30.5 32.1667,30.5 26.5,30.5C 25.9696,26.6031 26.9696,23.2698 29.5,20.5C 42.8333,19.1667 56.1667,19.1667 69.5,20.5C 72.0304,23.2698 73.0304,26.6031 72.5,30.5 Z"/></g>
<g><path style="opacity:1" fill="#93c061" d="M 55.5,30.5 C 51.5,30.5 47.5,30.5 43.5,30.5C 43.372,28.3453 43.872,26.3453 45,24.5C 51.4226,21.1312 54.9226,23.1312 55.5,30.5 Z"/></g>
<g><path style="opacity:1" fill="#9b6e17" d="M 23.5,23.5 C 23.5,25.8333 23.5,28.1667 23.5,30.5C 23.5,31.8333 23.5,33.1667 23.5,34.5C 20.1625,34.9347 17.1625,34.2681 14.5,32.5C 13.7836,25.8829 16.7836,22.8829 23.5,23.5 Z"/></g>
<g><path style="opacity:1" fill="#9a6d17" d="M 75.5,23.5 C 81.9457,24.3162 84.279,27.9829 82.5,34.5C 80.1667,34.5 77.8333,34.5 75.5,34.5C 75.5,33.1667 75.5,31.8333 75.5,30.5C 75.5,28.1667 75.5,25.8333 75.5,23.5 Z"/></g>
<g><path style="opacity:1" fill="#335530" d="M 23.5,30.5 C 24.5,30.5 25.5,30.5 26.5,30.5C 32.1667,30.5 37.8333,30.5 43.5,30.5C 43.8333,31.8333 44.1667,33.1667 44.5,34.5C 37.5,34.5 30.5,34.5 23.5,34.5C 23.5,33.1667 23.5,31.8333 23.5,30.5 Z"/></g>
<g><path style="opacity:1" fill="#617e3f" d="M 43.5,30.5 C 47.5,30.5 51.5,30.5 55.5,30.5C 55.1667,31.8333 54.8333,33.1667 54.5,34.5C 51.1667,34.5 47.8333,34.5 44.5,34.5C 44.1667,33.1667 43.8333,31.8333 43.5,30.5 Z"/></g>
<g><path style="opacity:1" fill="#335530" d="M 55.5,30.5 C 61.1667,30.5 66.8333,30.5 72.5,30.5C 73.5,30.5 74.5,30.5 75.5,30.5C 75.5,31.8333 75.5,33.1667 75.5,34.5C 68.5,34.5 61.5,34.5 54.5,34.5C 54.8333,33.1667 55.1667,31.8333 55.5,30.5 Z"/></g>
<g><path style="opacity:1" fill="#f2ab21" d="M 14.5,32.5 C 17.1625,34.2681 20.1625,34.9347 23.5,34.5C 30.5,34.5 37.5,34.5 44.5,34.5C 47.8333,34.5 51.1667,34.5 54.5,34.5C 61.5,34.5 68.5,34.5 75.5,34.5C 77.8333,34.5 80.1667,34.5 82.5,34.5C 82.7828,35.2891 83.2828,35.9558 84,36.5C 84.4992,41.1548 84.6658,45.8215 84.5,50.5C 79.4889,50.3341 74.4889,50.5007 69.5,51C 64.4648,54.0133 63.2981,58.1799 66,63.5C 66.9025,64.7014 68.0692,65.5348 69.5,66C 74.4889,66.4993 79.4889,66.6659 84.5,66.5C 84.6658,71.1785 84.4992,75.8452 84,80.5C 83.5,81 83,81.5 82.5,82C 60.5,82.6667 38.5,82.6667 16.5,82C 16,81.5 15.5,81 15,80.5C 14.5001,64.5035 14.3334,48.5035 14.5,32.5 Z"/></g>
<g><path style="opacity:0.275" fill="#060606" d="M 89.5,22.5 C 90.7899,23.0577 91.6232,24.0577 92,25.5C 92.1891,30.3574 93.1891,35.0241 95,39.5C 95.6667,53.1667 95.6667,66.8333 95,80.5C 94.8807,84.9056 93.0473,88.4056 89.5,91C 64.9209,92.6469 40.2542,92.9802 15.5,92C 13.6763,91.34 12.343,90.1733 11.5,88.5C 12.7562,88.4614 13.7562,88.9614 14.5,90C 26.1667,90.1667 37.8333,90.3333 49.5,90.5C 61.9252,90.648 74.2585,90.148 86.5,89C 88.7089,87.1266 90.5422,84.96 92,82.5C 92.6667,66.5 92.6667,50.5 92,34.5C 90.842,30.573 90.0087,26.573 89.5,22.5 Z"/></g>
<g><path style="opacity:1" fill="#9f5600" d="M 84.5,50.5 C 84.5,55.8333 84.5,61.1667 84.5,66.5C 79.4889,66.6659 74.4889,66.4993 69.5,66C 68.0692,65.5348 66.9025,64.7014 66,63.5C 63.2981,58.1799 64.4648,54.0133 69.5,51C 74.4889,50.5007 79.4889,50.3341 84.5,50.5 Z"/></g>
<g><path style="opacity:1" fill="#0a0500" d="M 70.5,56.5 C 73.8606,57.2032 74.1939,58.5365 71.5,60.5C 69.3576,59.5629 69.0243,58.2296 70.5,56.5 Z"/></g>
</svg>
