<?xml version="1.0" encoding="UTF-8"?>
<!DOCTYPE svg PUBLIC "-//W3C//DTD SVG 1.1//EN" "http://www.w3.org/Graphics/SVG/1.1/DTD/svg11.dtd">
<svg xmlns="http://www.w3.org/2000/svg" version="1.1" width="32px" height="32px" style="shape-rendering:geometricPrecision; text-rendering:geometricPrecision; image-rendering:optimizeQuality; fill-rule:evenodd; clip-rule:evenodd" xmlns:xlink="http://www.w3.org/1999/xlink">
<g><path style="opacity:0.443" fill="#d7f2d2" d="M 24.5,5.5 C 24.427,7.02694 25.0937,8.02694 26.5,8.5C 26.1667,9.16667 25.8333,9.83333 25.5,10.5C 21.1249,10.3469 17.2916,11.6803 14,14.5C 11.8913,13.9647 11.3913,12.9647 12.5,11.5C 11.573,9.05443 9.90635,8.2211 7.5,9C 6.48288,10.0495 6.31621,11.2161 7,12.5C 11.6667,14.5 11.6667,16.5 7,18.5C 6.51722,19.448 6.35055,20.448 6.5,21.5C 6.5,22.1667 6.5,22.8333 6.5,23.5C 5.83333,23.1667 5.16667,22.8333 4.5,22.5C 3.84007,20.1843 3.17341,17.851 2.5,15.5C 3.17341,13.149 3.84007,10.8157 4.5,8.5C 5.16667,8.5 5.5,8.16667 5.5,7.5C 11.2789,1.80802 17.6123,1.14135 24.5,5.5 Z"/></g>
<g><path style="opacity:0.609" fill="#eeb918" d="M 24.5,5.5 C 23.4619,3.89157 24.1286,2.89157 26.5,2.5C 29.1667,3.83333 29.1667,5.16667 26.5,6.5C 25.8165,6.13727 25.1499,5.80393 24.5,5.5 Z"/></g>
<g><path style="opacity:0.851" fill="#eb3c53" d="M 5.5,7.5 C 5.5,8.16667 5.16667,8.5 4.5,8.5C 1.99908,8.48908 1.83242,7.82241 4,6.5C 4.38258,7.05596 4.88258,7.38929 5.5,7.5 Z"/></g>
<g><path style="opacity:0.957" fill="#a3b2ad" d="M 25.5,10.5 C 23.5707,12.1482 21.5707,13.8149 19.5,15.5C 21.3586,17.1924 23.3586,18.6924 25.5,20C 21.1254,20.6532 17.292,19.4865 14,16.5C 11.8913,17.0353 11.3913,18.0353 12.5,19.5C 11.1627,22.3905 9.16275,23.0572 6.5,21.5C 6.35055,20.448 6.51722,19.448 7,18.5C 11.6667,16.5 11.6667,14.5 7,12.5C 6.31621,11.2161 6.48288,10.0495 7.5,9C 9.90635,8.2211 11.573,9.05443 12.5,11.5C 11.3913,12.9647 11.8913,13.9647 14,14.5C 17.2916,11.6803 21.1249,10.3469 25.5,10.5 Z"/></g>
<g><path style="opacity:0.444" fill="#d9f1cd" d="M 26.5,8.5 C 27.4045,10.6379 28.0711,12.9712 28.5,15.5C 27.481,18.8596 26.481,22.193 25.5,25.5C 22.193,26.481 18.8596,27.481 15.5,28.5C 13.149,27.8266 10.8157,27.1599 8.5,26.5C 8.16667,25.5 7.5,24.8333 6.5,24.5C 6.5,24.1667 6.5,23.8333 6.5,23.5C 6.5,22.8333 6.5,22.1667 6.5,21.5C 9.16275,23.0572 11.1627,22.3905 12.5,19.5C 11.3913,18.0353 11.8913,17.0353 14,16.5C 17.292,19.4865 21.1254,20.6532 25.5,20C 23.3586,18.6924 21.3586,17.1924 19.5,15.5C 21.5707,13.8149 23.5707,12.1482 25.5,10.5C 25.8333,9.83333 26.1667,9.16667 26.5,8.5 Z"/></g>
<g><path style="opacity:0.742" fill="#fbce56" d="M 4.5,22.5 C 5.16667,22.8333 5.83333,23.1667 6.5,23.5C 6.5,23.8333 6.5,24.1667 6.5,24.5C 6.5,25.1667 6.5,25.8333 6.5,26.5C 5.5,26.5 4.5,26.5 3.5,26.5C 3.23219,24.901 3.56552,23.5676 4.5,22.5 Z"/></g>
<g><path style="opacity:0.843" fill="#f23845" d="M 6.5,24.5 C 7.5,24.8333 8.16667,25.5 8.5,26.5C 7.83333,27.8333 7.16667,27.8333 6.5,26.5C 6.5,25.8333 6.5,25.1667 6.5,24.5 Z"/></g>
</svg>
